<svg width="354" height="310" viewBox="0 0 354 310" fill="none" xmlns="http://www.w3.org/2000/svg">
<g clip-path="url(#clip0_2794_188)">
<path d="M254.127 161.175C233.003 142.868 206.245 132.211 178.227 130.945C150.209 129.679 122.587 137.879 99.8735 154.206C108.984 143.408 120.372 134.726 133.235 128.774C146.098 122.823 160.12 119.746 174.313 119.762C207.374 119.762 236.575 136.141 254.127 161.175Z" fill="url(#paint0_linear_2794_188)"/>
<path d="M133.471 70.9752C133.345 70.9752 133.225 70.9259 133.137 70.8381C133.048 70.7502 132.999 70.6311 132.999 70.5069V58.4801C132.999 58.3558 133.048 58.2367 133.137 58.1489C133.225 58.0611 133.345 58.0117 133.471 58.0117C133.596 58.0117 133.716 58.0611 133.804 58.1489C133.893 58.2367 133.943 58.3558 133.943 58.4801V70.5069C133.943 70.6311 133.893 70.7502 133.804 70.8381C133.716 70.9259 133.596 70.9752 133.471 70.9752Z" fill="url(#paint1_linear_2794_188)"/>
<path d="M175.546 12.9635C175.421 12.9635 175.301 12.9142 175.212 12.8263C175.124 12.7385 175.074 12.6194 175.074 12.4952V0.468335C175.074 0.344124 175.124 0.225004 175.212 0.137174C175.301 0.0493443 175.421 0 175.546 0C175.671 0 175.791 0.0493443 175.88 0.137174C175.968 0.225004 176.018 0.344124 176.018 0.468335V12.4952C176.018 12.6194 175.968 12.7385 175.88 12.8263C175.791 12.9142 175.671 12.9635 175.546 12.9635Z" fill="url(#paint2_linear_2794_188)"/>
<path d="M218.954 71.3834C218.829 71.3834 218.709 71.3341 218.621 71.2462C218.532 71.1584 218.482 71.0393 218.482 70.9151V58.8883C218.482 58.764 218.532 58.6449 218.621 58.5571C218.709 58.4693 218.829 58.4199 218.954 58.4199C219.08 58.4199 219.2 58.4693 219.288 58.5571C219.377 58.6449 219.426 58.764 219.426 58.8883V70.9151C219.426 71.0393 219.377 71.1584 219.288 71.2462C219.2 71.3341 219.08 71.3834 218.954 71.3834Z" fill="url(#paint3_linear_2794_188)"/>
<path d="M121.893 129.004H126.84C126.84 129.004 132.658 122.76 141.21 120.518V112.147H142.837V105.625H139.061V107.932H136.443V106.43H134.989V105.044H130.968V108.276H128.451V106.312H126.878V104.582H121.874V111.395H117.995V127.096H121.953L121.893 129.004Z" fill="url(#paint4_linear_2794_188)"/>
<path d="M129.342 104.587V83.287H126.491L133.47 69.084L139.348 82.8249H137.661V91.7701H143.769V94.7737H147.84V92.0605H153.076V94.8892H157.497V91.7701H162.91V104.125H157.73V116.42L141.733 120.058V112.783H143.709V104.874H141.151V102.826H138.24V103.981H135.072V104.587H129.342Z" fill="url(#paint5_linear_2794_188)"/>
<path d="M230.53 129.398H225.587C225.587 129.398 219.769 123.153 211.216 120.912V112.538H209.586V106.028H213.362V108.338H215.98V106.837H217.434V105.45H221.449V108.685H223.966V106.721H225.54V104.988H230.543V111.801H234.442V127.503H230.474L230.53 129.398Z" fill="url(#paint6_linear_2794_188)"/>
<path d="M223.086 104.99V83.6901H225.937L218.954 69.4902L213.08 83.228H214.766V92.1764H208.655V95.1768H204.584V92.4636H199.348V95.2924H194.927V92.1764H189.515V104.531H194.694V116.826L210.694 120.461V113.189H208.715V105.28H211.273V103.232H214.184V104.384H217.353V104.99H223.086Z" fill="url(#paint7_linear_2794_188)"/>
<path d="M158.4 116.285V104.96H163.813V90.9103H158.4V87.7662H159.728V83.1484H167.717V86.536H172.258V83.1484H179.587V86.6516H185.093V83.1484H192.928V86.7484H194.209V91.5972H188.624V104.873H193.57V116.285L183.388 115.217C183.388 115.217 183.68 102.922 178.617 101.882C173.268 100.38 169.659 103.958 169.31 108.52C168.96 113.081 168.901 114.927 168.901 114.927L158.4 116.285Z" fill="url(#paint8_linear_2794_188)"/>
<path d="M205.108 93.6563V69.4902H197.814V72.4907H193.859V69.4902H185.404V72.7998H181.292V69.4902H172.604V72.9528H167.875V69.4902H159.807V73.1058H154.763V69.4902H146.619V93.3503H147.293V91.3271H153.542V94.0684H156.918V91.3271H157.988V87.3026H159.234V82.5287H168.192V85.7571H171.402V82.3944H180.178V85.8445H184.366V82.2196H193.592V85.9756H194.75V91.5363H195.363V94.5711H198.74V92.1014H204.586V93.5939L205.108 93.6563Z" fill="url(#paint9_linear_2794_188)"/>
<path d="M167.425 69.0801H168.429V72.3335H172.006V68.9989H181.827V72.2023H184.769V68.8615H185.593V63.2072C185.593 63.2072 185.729 60.2848 188.064 60.2192C190.398 60.1536 191.006 61.8459 191.037 63.1073C191.075 64.2812 191.037 68.3245 191.037 68.8522H194.354V71.99H197.359V69.1394H199.917V52.2388H193.504V55.6389H189.986V39.166H183.655V42.1727H179.203V39.166H172.249V42.2164H169.174V39.166H162.176V55.4703H158.602V52.4355H152.309V69.1082L155.314 69.0801V72.5739H159.263V69.0801H161.969M161.969 68.9209V63.2072C161.969 63.2072 162.101 60.2848 164.439 60.2192C166.777 60.1536 167.384 61.8459 167.415 63.1073C167.447 64.3687 167.415 68.9115 167.415 68.9115M180.162 63.3976H172.909V55.795C172.909 55.795 173.089 51.9047 176.21 51.8173C179.332 51.7299 180.131 53.9841 180.172 55.667C180.213 57.3499 180.172 63.407 180.172 63.407L180.162 63.3976Z" fill="url(#paint10_linear_2794_188)"/>
<path d="M169.763 41.0598V30.7908H166.053L175.411 11.2051L185.751 30.5723H182.897V41.0598H179.643V38.4403H171.666V41.0598H169.763Z" fill="url(#paint11_linear_2794_188)"/>
<path d="M31.6008 163.045L27.1421 161.718V160.391H38.2905C39.7681 160.365 41.2413 160.559 42.6612 160.965C43.8344 161.318 44.9472 161.844 45.962 162.527C46.9115 163.176 47.7542 163.967 48.4604 164.871C49.1928 165.82 49.8205 166.843 50.3326 167.925L63.5484 194.036L77.1071 164.375L70.4174 161.718V160.391H87.3525V161.718L80.216 164.366L64.6056 198.451V219.682L69.9549 221.012V222.339H44.5271V221.012L49.8764 219.682V199.335L31.6008 163.045Z" fill="url(#paint12_linear_2794_188)"/>
<path d="M93.1498 221.021V222.348H76.6489V221.021L83.7854 218.38L108.329 159.52H111.004L136.409 219.691L140.871 221.021V222.348H130.173C126.842 222.348 124.225 221.596 122.322 220.091C120.524 218.714 119.115 216.9 118.231 214.824L113.685 204.208H92.3568L86.4601 218.38L93.1498 221.021ZM93.241 201.976H112.775L102.964 178.727L93.241 201.976Z" fill="url(#paint13_linear_2794_188)"/>
<path d="M136.408 162.608L131.499 161.721V160.394H142.198C145.585 160.394 148.246 161.147 150.18 162.652C151.995 164.003 153.399 165.824 154.24 167.916L167.71 201.995L175.577 179.159L168.969 162.611L164.063 161.724V160.397H174.762C178.154 160.397 180.8 161.15 182.701 162.655C184.503 164.03 185.917 165.843 186.807 167.919L200.284 201.995L213.125 164.369L206.436 161.712V160.385H222.94V161.712L215.803 164.369L195.731 223.235H193.047L176.999 182.79L163.173 223.235H160.498L136.408 162.608Z" fill="url(#paint14_linear_2794_188)"/>
<path d="M226.952 221.021V222.348H210.451V221.021L217.591 218.38L242.134 159.52H244.812L270.234 219.707L274.696 221.037V222.364H263.997C260.664 222.364 258.042 221.611 256.131 220.106C254.332 218.731 252.922 216.916 252.04 214.839L247.49 204.224H226.15L220.262 218.38L226.952 221.021ZM227.043 201.976H246.577L236.763 178.727L227.043 201.976Z" fill="url(#paint15_linear_2794_188)"/>
<path d="M271.109 163.045L266.647 161.718V160.391H277.799C279.277 160.365 280.75 160.559 282.17 160.965C283.343 161.319 284.455 161.845 285.47 162.527C286.42 163.176 287.263 163.967 287.969 164.871C288.7 165.821 289.328 166.844 289.841 167.925L303.057 194.036L316.616 164.375L309.926 161.718V160.391H326.874V161.718L319.724 164.366L304.124 198.451V219.682L309.473 221.012V222.339H284.051V221.012L289.401 219.682V199.335L271.109 163.045Z" fill="url(#paint16_linear_2794_188)"/>
<path d="M16.8387 264.401C16.6405 265.416 15.6524 268.816 15.322 269.83H-0.00195312V268.912C2.99677 268.619 3.26109 268.457 3.26109 265.675V252.692C3.26109 249.914 2.93069 249.751 0.293829 249.489V248.574H9.12951V249.489C6.49265 249.751 6.13079 249.882 6.13079 252.692V266.003C6.13079 267.998 6.39511 268.457 8.27363 268.5L10.8759 268.535C12.5593 268.535 13.0533 268.338 13.8117 267.52C14.6329 266.671 15.3252 265.362 15.8224 264.151L16.8387 264.401Z" fill="url(#paint17_linear_2794_188)"/>
<path d="M40.207 249.489C38.1334 249.62 37.3751 250.142 37.309 251.647C37.2744 252.399 37.2083 253.773 37.2083 256.783V260.314C37.2083 263.648 36.815 266.199 34.9018 268.194C33.3537 269.796 31.1259 270.286 28.8383 270.286C26.9252 270.286 24.883 269.896 23.4324 268.784C21.4564 267.28 20.4998 265.038 20.4998 261.194V252.858C20.4998 249.914 20.2355 249.717 17.5986 249.489V248.574H26.277V249.489C23.6401 249.651 23.3758 249.914 23.3758 252.858V261.032C23.3758 265.806 25.6508 268.422 29.6061 268.422C34.2851 268.422 35.7672 265.547 35.7672 260.117V256.786C35.7672 253.776 35.6696 252.533 35.6035 251.65C35.506 250.179 34.7477 249.623 32.309 249.492V248.577H40.2165L40.207 249.489Z" fill="url(#paint18_linear_2794_188)"/>
<path d="M53.6874 269.83V268.912C55.7327 268.684 55.9309 268.357 55.3362 267.279C54.5779 266.002 53.1336 263.552 51.0852 260.345C49.537 262.734 48.0864 264.988 46.9946 266.902C46.2362 268.275 46.5005 268.638 48.7095 268.897V269.815H41.0317V268.897C43.011 268.703 43.9329 268.21 44.8895 267.002C46.1072 265.44 47.4256 263.536 50.2954 259.152C48.5804 256.405 47.0984 254.085 46.0097 252.352C44.5937 250.167 44.1626 249.736 41.7586 249.473V248.559H49.965V249.473C47.9197 249.67 47.8536 250.029 48.3917 250.913C49.4458 252.742 50.6667 254.641 52.1172 256.864C53.4011 254.9 54.5873 253.039 55.4432 251.534C56.2362 250.126 56.0033 249.736 53.829 249.473V248.559H61.3431V249.473C58.873 249.786 58.2783 250.06 56.8623 252.055C55.7736 253.595 55.116 254.553 52.841 257.944C54.6219 260.723 56.3022 263.436 57.8504 265.825C59.4237 268.322 60.0908 268.669 62.4633 268.897V269.815L53.6874 269.83Z" fill="url(#paint19_linear_2794_188)"/>
<path d="M85.3926 249.489C83.3158 249.62 82.5606 250.142 82.4946 251.647C82.4599 252.399 82.3939 253.773 82.3939 256.783V260.314C82.3939 263.648 81.9974 266.199 80.0874 268.194C78.5393 269.796 76.2957 270.286 74.0239 270.286C72.1107 270.286 70.0686 269.896 68.618 268.784C66.6419 267.28 65.6854 265.038 65.6854 261.194V252.858C65.6854 249.914 65.421 249.717 62.7842 249.489V248.574H71.4531V249.489C68.8162 249.651 68.5519 249.914 68.5519 252.858V261.032C68.5519 265.806 70.8269 268.422 74.7822 268.422C79.4612 268.422 80.9433 265.547 80.9433 260.117V256.786C80.9433 253.776 80.8457 252.533 80.7796 251.65C80.679 250.179 79.9238 249.623 77.482 249.492V248.577H85.3926V249.489Z" fill="url(#paint20_linear_2794_188)"/>
<path d="M106.784 270.088C106.356 270.088 105.994 270.057 105.566 270.022C103.159 269.86 101.872 269.239 100.424 267.212C99.2033 265.545 98.0171 263.484 96.9629 261.817C96.3022 260.768 95.8742 260.568 94.1939 260.568H93.0391V265.701C93.0391 268.48 93.4041 268.645 96.041 268.905V269.823H87.2305V268.905C89.9649 268.611 90.1977 268.48 90.1977 265.701V252.653C90.1977 249.875 89.8327 249.775 87.2305 249.481V248.566H95.6351C98.0391 248.566 99.6564 248.86 100.909 249.678C102.259 250.527 103.149 251.998 103.149 253.993C103.149 256.803 101.337 258.573 98.8981 259.613C99.4897 260.628 100.909 262.816 101.897 264.296C102.681 265.48 103.551 266.606 104.499 267.665C105.128 268.399 105.968 268.924 106.906 269.17L106.784 270.088ZM94.6219 259.472C96.3368 259.472 97.4223 259.213 98.2468 258.536C99.5337 257.599 100.059 256.278 100.059 254.511C100.059 251.014 97.7213 249.737 95.182 249.737C94.238 249.737 93.6653 249.868 93.4356 250.065C93.1398 250.293 93.0391 250.621 93.0391 251.47V259.482L94.6219 259.472Z" fill="url(#paint21_linear_2794_188)"/>
<path d="M125.864 249.489C123.558 249.751 123.165 250.113 121.846 252.202C120.361 254.591 119.143 256.845 117.529 259.758C117.177 260.339 117.004 261.01 117.032 261.688V265.709C117.032 268.422 117.347 268.619 120.396 268.912V269.83H110.937V268.912C113.936 268.522 114.165 268.457 114.165 265.709V261.491C114.165 260.835 114.033 260.554 113.508 259.593C112.353 257.469 111.233 255.409 109.452 252.333C108.168 250.11 107.838 249.717 105.597 249.489V248.574H113.706V249.489C111.333 249.801 111.462 250.242 112.057 251.362C113.442 253.879 114.99 256.823 116.374 259.277C117.561 257.092 119.439 253.52 120.361 251.721C121.119 250.085 121.022 249.761 118.416 249.498V248.584H125.864V249.489Z" fill="url(#paint22_linear_2794_188)"/>
<path d="M155.066 260.899C153.024 261.161 152.892 261.358 152.892 263.287V266.035C152.866 267.074 152.932 268.114 153.09 269.141C151.044 269.597 148.37 270.319 145.607 270.319C138.128 270.319 133.578 265.707 133.578 259.135C133.578 252.235 139.242 248.113 145.849 248.113C149.21 248.113 151.68 248.766 152.703 248.931C152.769 250.14 152.932 252.135 153.197 254.195L152.209 254.392C151.419 251.613 150.462 250.436 148.386 249.749C147.389 249.466 146.357 249.323 145.321 249.325C140.286 249.325 137.017 252.759 137.017 258.741C137.017 263.94 139.717 269.107 146.111 269.107C147.075 269.127 148.032 268.937 148.914 268.551C149.606 268.158 150.034 267.799 150.034 266.46V263.778C150.034 261.389 149.77 261.127 146.605 260.899V259.962H155.075L155.066 260.899Z" fill="url(#paint23_linear_2794_188)"/>
<path d="M179.785 249.489C177.708 249.62 176.953 250.142 176.883 251.647C176.852 252.399 176.786 253.773 176.786 256.783V260.314C176.786 263.648 176.389 266.199 174.476 268.194C172.928 269.796 170.7 270.286 168.413 270.286C166.503 270.286 164.458 269.896 163.01 268.784C161.031 267.28 160.074 265.038 160.074 261.194V252.858C160.074 249.914 159.813 249.717 157.176 249.489V248.574H165.842V249.489C163.205 249.651 162.944 249.914 162.944 252.858V261.032C162.944 265.806 165.216 268.422 169.171 268.422C173.85 268.422 175.335 265.547 175.335 260.117V256.786C175.335 253.776 175.235 252.533 175.169 251.65C175.071 250.179 174.313 249.623 171.874 249.492V248.577H179.785V249.489Z" fill="url(#paint24_linear_2794_188)"/>
<path d="M198.737 264.626C198.539 265.478 197.648 268.844 197.318 269.828H181.302V268.91C184.367 268.682 184.596 268.388 184.596 265.706V252.79C184.596 249.88 184.234 249.714 181.764 249.486V248.571H191.852C194.949 248.571 196.232 248.537 196.629 248.506C196.664 249.324 196.796 251.775 196.944 253.501L195.952 253.667C195.729 252.797 195.397 251.958 194.964 251.169C194.436 250.089 193.681 249.861 191.701 249.861H188.57C187.548 249.861 187.485 249.958 187.485 250.907V258.132H191.141C193.614 258.132 193.778 257.642 194.175 255.418H195.194V262.156H194.175C193.747 259.802 193.482 259.474 191.11 259.474H187.466V265.981C187.466 268.27 188.19 268.479 189.839 268.501H192.903C194.914 268.501 195.241 268.204 195.968 267.355C196.597 266.668 197.287 265.328 197.746 264.345L198.737 264.626Z" fill="url(#paint25_linear_2794_188)"/>
<path d="M212.478 253.542C211.918 251.381 210.996 249.258 207.896 249.258C205.325 249.258 204.435 251.132 204.435 252.821C204.435 255.078 205.882 256.224 208.62 257.629C212.575 259.655 214.284 261.16 214.284 264.267C214.284 267.701 211.285 270.318 207.047 270.318C205.315 270.276 203.606 269.91 202.012 269.238C201.622 267.62 201.325 265.983 201.122 264.333L202.141 264.07C202.802 266.256 204.252 269.106 207.679 269.106C210.052 269.106 211.502 267.47 211.502 265.36C211.502 262.84 210.152 261.828 207.251 260.258C203.79 258.385 201.845 256.824 201.845 253.782C201.845 250.873 204.284 248.125 208.636 248.125C210.48 248.125 212.292 248.615 212.984 248.749C213.116 249.927 213.249 251.247 213.513 253.361L212.478 253.542Z" fill="url(#paint26_linear_2794_188)"/>
<path d="M234.429 253.708C234.187 252.765 233.833 251.855 233.375 250.994C232.846 250.111 232.516 249.883 230.704 249.883H227.409V265.806C227.409 268.357 227.673 268.719 230.804 268.913V269.831H221.213V268.913C224.278 268.719 224.543 268.392 224.543 265.806V249.883H221.544C219.731 249.883 219.203 250.077 218.643 251.06C218.246 251.713 217.982 252.499 217.554 253.708H216.566C216.764 251.713 216.962 249.649 217.06 247.822H217.818C218.312 248.606 218.674 248.575 219.599 248.575H232.648C233.57 248.575 233.835 248.444 234.329 247.822H235.121C235.121 249.358 235.254 251.713 235.417 253.611L234.429 253.708Z" fill="url(#paint27_linear_2794_188)"/>
<path d="M268.538 249.489C265.804 249.751 265.539 249.914 265.539 252.661V265.775C265.539 268.522 265.838 268.619 268.538 268.897V269.815H259.706V268.897C262.443 268.585 262.707 268.507 262.707 265.775V259.218H251.436V265.775C251.436 268.488 251.697 268.585 254.4 268.897V269.815H245.596V268.897C248.265 268.603 248.56 268.507 248.56 265.775V252.661C248.56 249.914 248.265 249.751 245.596 249.489V248.574H254.407V249.489C251.77 249.717 251.443 249.945 251.443 252.661V257.86H262.714V252.661C262.714 249.945 262.349 249.717 259.712 249.489V248.574H268.544L268.538 249.489Z" fill="url(#paint28_linear_2794_188)"/>
<path d="M282.812 248.113C288.447 248.113 293.488 252.397 293.488 258.904C293.488 265.935 288.677 270.319 282.614 270.319C276.286 270.319 271.673 265.545 271.673 259.391C271.673 253.543 275.858 248.113 282.812 248.113ZM282.151 249.325C278.46 249.325 275.1 252.397 275.1 258.513C275.1 264.63 278.46 269.076 283.142 269.076C287.129 269.076 290.128 266.132 290.128 259.822C290.128 252.953 286.468 249.325 282.151 249.325Z" fill="url(#paint29_linear_2794_188)"/>
<path d="M319.161 249.489C317.088 249.62 316.329 250.142 316.263 251.647C316.228 252.399 316.162 253.773 316.162 256.783V260.314C316.162 263.648 315.769 266.199 313.856 268.194C312.308 269.796 310.08 270.286 307.792 270.286C305.882 270.286 303.837 269.896 302.387 268.784C300.41 267.28 299.454 265.038 299.454 261.194V252.858C299.454 249.914 299.19 249.717 296.553 249.489V248.574H305.222V249.489C302.585 249.651 302.32 249.914 302.32 252.858V261.032C302.32 265.806 304.595 268.422 308.551 268.422C313.23 268.422 314.715 265.547 314.715 260.117V256.786C314.715 253.776 314.614 252.533 314.548 251.65C314.451 250.179 313.692 249.623 311.254 249.492V248.577H319.161V249.489Z" fill="url(#paint30_linear_2794_188)"/>
<path d="M332.247 253.542C331.687 251.381 330.765 249.258 327.665 249.258C325.095 249.258 324.204 251.132 324.204 252.821C324.204 255.078 325.655 256.224 328.392 257.629C332.344 259.655 334.056 261.16 334.056 264.267C334.056 267.701 331.057 270.318 326.819 270.318C325.087 270.276 323.379 269.91 321.784 269.238C321.397 267.62 321.101 265.983 320.897 264.333L321.916 264.07C322.577 266.256 324.028 269.106 327.454 269.106C329.827 269.106 331.278 267.47 331.278 265.36C331.278 262.84 329.925 261.828 327.027 260.258C323.565 258.385 321.621 256.824 321.621 253.782C321.621 250.873 324.059 248.125 328.411 248.125C330.255 248.125 332.067 248.615 332.76 248.749C332.892 249.927 333.024 251.247 333.288 253.361L332.247 253.542Z" fill="url(#paint31_linear_2794_188)"/>
<path d="M353.999 264.626C353.801 265.478 352.91 268.844 352.58 269.828H336.563V268.91C339.628 268.682 339.861 268.388 339.861 265.706V252.79C339.861 249.88 339.496 249.714 337.029 249.486V248.571H347.098C350.195 248.571 351.482 248.537 351.878 248.506C351.91 249.324 352.042 251.775 352.174 253.501L351.186 253.667C350.96 252.797 350.627 251.958 350.195 251.169C349.669 250.089 348.911 249.861 346.935 249.861H343.804C342.781 249.861 342.715 249.958 342.715 250.907V258.132H346.371C348.845 258.132 349.008 257.642 349.405 255.418H350.427V262.156H349.433C349.005 259.802 348.741 259.474 346.368 259.474H342.743V265.981C342.743 268.27 343.467 268.479 345.116 268.501H348.174C350.185 268.501 350.516 268.204 351.239 267.355C351.869 266.668 352.558 265.328 353.02 264.345L353.999 264.626Z" fill="url(#paint32_linear_2794_188)"/>
<path d="M37.6676 304.037H32.1202L31.0629 306.575H28.231L33.5582 294.711H36.2894L41.6387 306.575H38.7343L37.6676 304.037ZM36.796 301.951L34.9081 297.415L33.0201 301.951H36.796Z" fill="url(#paint33_linear_2794_188)"/>
<path d="M47.7051 294.725H50.471V304.344H56.4495V306.58H47.7051V294.725Z" fill="url(#paint34_linear_2794_188)"/>
<path d="M67.01 297.467V306.577H64.4927V305.491C64.1472 305.883 63.7169 306.192 63.2341 306.396C62.7315 306.607 62.1907 306.714 61.645 306.709C60.4388 306.709 59.4833 306.364 58.7785 305.675C58.0736 304.986 57.7212 303.964 57.7212 302.609V297.467H60.3832V302.225C60.3832 303.693 61.0031 304.421 62.2429 304.411C62.529 304.422 62.8141 304.372 63.0791 304.264C63.344 304.156 63.5825 303.993 63.7784 303.786C64.1655 303.377 64.3605 302.762 64.3605 301.95V297.467H67.01Z" fill="url(#paint35_linear_2794_188)"/>
<path d="M75.3237 306.577L73.3099 303.767L71.2269 306.577H68.3257L71.8593 301.988L68.4421 297.467H71.4282L73.376 300.127L75.3709 297.467H78.2029L74.7888 301.922L78.3382 306.577H75.3237Z" fill="url(#paint36_linear_2794_188)"/>
<path d="M88.7249 297.467V306.577H86.2076V305.491C85.8627 305.884 85.4323 306.193 84.949 306.396C84.4516 306.606 83.9161 306.712 83.3757 306.709C82.1674 306.709 81.214 306.362 80.506 305.675C79.798 304.988 79.4487 303.964 79.4487 302.609V297.467H82.1108V302.225C82.1108 303.693 82.7317 304.421 83.9735 304.411C84.2596 304.422 84.5447 304.372 84.8096 304.264C85.0745 304.156 85.3131 303.993 85.5091 303.786C85.8961 303.377 86.0881 302.762 86.0881 301.95V297.467H88.7249Z" fill="url(#paint37_linear_2794_188)"/>
<path d="M95.0308 297.687C95.6248 297.451 96.2603 297.335 96.8999 297.346V299.788C96.6041 299.763 96.4059 299.754 96.302 299.754C95.9767 299.733 95.6504 299.778 95.3428 299.885C95.0352 299.993 94.7525 300.16 94.5116 300.378C94.0774 300.803 93.8603 301.437 93.8603 302.286V306.585H91.1982V297.468H93.7438V298.67C94.0712 298.229 94.5172 297.888 95.0308 297.687Z" fill="url(#paint38_linear_2794_188)"/>
<path d="M107.929 297.467L103.779 307.146C103.359 308.199 102.835 308.939 102.205 309.366C101.543 309.806 100.759 310.031 99.9617 310.009C99.4802 310.009 99.0015 309.935 98.5426 309.79C98.1221 309.664 97.733 309.451 97.4004 309.166L98.3727 307.292C98.5809 307.475 98.8208 307.619 99.0807 307.717C99.3335 307.815 99.6022 307.867 99.8736 307.87C100.191 307.885 100.504 307.792 100.761 307.608C101.039 307.371 101.255 307.071 101.39 306.734L101.425 306.649L97.4476 297.47H100.195L102.772 303.652L105.368 297.47L107.929 297.467Z" fill="url(#paint39_linear_2794_188)"/>
<path d="M114.697 306.426C114.082 306.288 113.494 306.051 112.957 305.723L113.844 303.828C114.306 304.107 114.806 304.318 115.329 304.453C115.883 304.614 116.457 304.697 117.035 304.699C118.161 304.699 118.724 304.422 118.724 303.869C118.722 303.738 118.675 303.612 118.592 303.51C118.509 303.409 118.393 303.338 118.265 303.31C117.804 303.165 117.33 303.068 116.849 303.023C116.22 302.936 115.597 302.805 114.986 302.632C114.505 302.486 114.071 302.217 113.727 301.852C113.344 301.412 113.151 300.84 113.189 300.259C113.182 299.707 113.359 299.168 113.693 298.726C114.074 298.249 114.584 297.889 115.162 297.687C115.892 297.422 116.664 297.295 117.44 297.312C118.092 297.313 118.742 297.384 119.379 297.524C119.938 297.635 120.476 297.832 120.974 298.108L120.087 299.982C119.28 299.53 118.367 299.296 117.44 299.304C117.001 299.278 116.561 299.359 116.16 299.538C116.036 299.591 115.931 299.678 115.855 299.789C115.78 299.899 115.738 300.029 115.735 300.163C115.733 300.298 115.777 300.431 115.861 300.539C115.944 300.646 116.062 300.723 116.194 300.756C116.674 300.904 117.166 301.008 117.664 301.068C118.286 301.164 118.901 301.297 119.508 301.465C119.989 301.606 120.423 301.873 120.766 302.236C121.141 302.668 121.331 303.228 121.295 303.797C121.301 304.343 121.12 304.874 120.782 305.305C120.391 305.78 119.873 306.135 119.288 306.329C118.54 306.588 117.751 306.711 116.959 306.694C116.196 306.702 115.436 306.611 114.697 306.426Z" fill="url(#paint40_linear_2794_188)"/>
<path d="M128.838 306.137C128.548 306.343 128.22 306.49 127.872 306.571C127.479 306.667 127.075 306.715 126.67 306.714C125.579 306.714 124.734 306.437 124.134 305.884C123.536 305.331 123.237 304.516 123.237 303.445V299.699H121.821V297.685H123.237V295.465H125.902V297.685H128.19V299.717H125.902V303.427C125.882 303.75 125.989 304.07 126.201 304.316C126.312 304.425 126.444 304.508 126.589 304.562C126.735 304.616 126.89 304.639 127.045 304.629C127.431 304.64 127.811 304.521 128.121 304.291L128.838 306.137Z" fill="url(#paint41_linear_2794_188)"/>
<path d="M137.321 298.338C138.083 299.011 138.464 300.024 138.464 301.379V306.578H135.971V305.444C135.47 306.292 134.538 306.715 133.174 306.715C132.544 306.731 131.918 306.609 131.34 306.359C130.856 306.153 130.444 305.811 130.153 305.376C129.877 304.953 129.734 304.459 129.741 303.955C129.726 303.569 129.806 303.184 129.974 302.835C130.142 302.487 130.394 302.184 130.707 301.954C131.349 301.469 132.342 301.226 133.687 301.226H135.802C135.817 300.98 135.777 300.733 135.686 300.503C135.595 300.273 135.454 300.066 135.273 299.896C134.823 299.557 134.264 299.392 133.7 299.431C133.209 299.43 132.721 299.507 132.255 299.659C131.82 299.795 131.413 300.006 131.053 300.283L130.109 298.438C130.657 298.066 131.266 297.792 131.909 297.626C132.612 297.432 133.338 297.335 134.068 297.336C135.473 297.332 136.558 297.666 137.321 298.338ZM135.053 304.623C135.407 304.41 135.673 304.078 135.802 303.687V302.75H133.977C132.884 302.75 132.337 303.106 132.337 303.818C132.331 303.974 132.364 304.129 132.434 304.269C132.504 304.41 132.608 304.53 132.737 304.62C133.06 304.841 133.446 304.951 133.838 304.932C134.264 304.941 134.684 304.835 135.053 304.623Z" fill="url(#paint42_linear_2794_188)"/>
<path d="M149.816 297.467L145.669 307.146C145.25 308.199 144.725 308.939 144.096 309.366C143.434 309.806 142.649 310.031 141.852 310.009C141.372 310.009 140.894 309.935 140.436 309.79C140.015 309.664 139.624 309.452 139.291 309.166L140.263 307.292C140.473 307.475 140.714 307.618 140.974 307.717C141.227 307.815 141.496 307.867 141.767 307.87C142.085 307.885 142.397 307.792 142.655 307.608C142.932 307.37 143.147 307.071 143.284 306.734L143.319 306.649L139.341 297.47H142.073L144.653 303.652L147.246 297.47L149.816 297.467Z" fill="url(#paint43_linear_2794_188)"/>
<path d="M155.877 295.771C155.731 295.637 155.615 295.474 155.536 295.294C155.456 295.113 155.415 294.918 155.415 294.721C155.415 294.524 155.456 294.33 155.536 294.149C155.615 293.969 155.731 293.806 155.877 293.672C156.204 293.381 156.633 293.228 157.073 293.248C157.508 293.229 157.934 293.374 158.265 293.654C158.413 293.779 158.532 293.935 158.612 294.111C158.692 294.287 158.731 294.478 158.728 294.672C158.733 294.876 158.695 295.079 158.615 295.267C158.535 295.456 158.416 295.625 158.265 295.764C157.93 296.041 157.507 296.192 157.071 296.192C156.635 296.192 156.212 296.041 155.877 295.764V295.771ZM155.738 297.466H158.404V306.577H155.738V297.466Z" fill="url(#paint44_linear_2794_188)"/>
<path d="M169.215 298.349C169.918 299.027 170.269 300.032 170.266 301.365V306.579H167.604V301.77C167.65 301.191 167.479 300.616 167.126 300.153C166.949 299.969 166.733 299.826 166.493 299.734C166.254 299.642 165.998 299.603 165.742 299.619C165.445 299.606 165.149 299.655 164.873 299.763C164.596 299.87 164.345 300.034 164.137 300.244C163.74 300.656 163.539 301.268 163.539 302.08V306.585H160.877V297.468H163.423V298.536C163.786 298.144 164.234 297.839 164.735 297.646C165.284 297.433 165.869 297.327 166.459 297.334C166.964 297.311 167.467 297.39 167.941 297.564C168.414 297.738 168.848 298.005 169.215 298.349Z" fill="url(#paint45_linear_2794_188)"/>
<path d="M186.619 297.467L182.472 307.146C182.052 308.199 181.528 308.939 180.899 309.366C180.236 309.806 179.452 310.031 178.655 310.009C178.175 310.009 177.697 309.935 177.239 309.79C176.817 309.664 176.427 309.452 176.094 309.166L177.066 307.292C177.274 307.475 177.514 307.619 177.774 307.717C178.028 307.815 178.298 307.867 178.57 307.87C178.887 307.884 179.2 307.791 179.457 307.608C179.729 307.369 179.939 307.069 180.071 306.734L180.106 306.649L176.128 297.47H178.888L181.468 303.652L184.061 297.47L186.619 297.467Z" fill="url(#paint46_linear_2794_188)"/>
<path d="M189.221 306.117C188.476 305.739 187.853 305.161 187.421 304.45C186.995 303.712 186.77 302.877 186.77 302.027C186.77 301.176 186.995 300.341 187.421 299.604C187.854 298.893 188.477 298.316 189.221 297.937C190.029 297.54 190.919 297.334 191.82 297.334C192.722 297.334 193.611 297.54 194.419 297.937C195.16 298.318 195.78 298.895 196.21 299.604C196.637 300.341 196.861 301.176 196.861 302.027C196.861 302.877 196.637 303.712 196.21 304.45C195.781 305.159 195.161 305.737 194.419 306.117C193.611 306.513 192.722 306.719 191.82 306.719C190.919 306.719 190.029 306.513 189.221 306.117ZM193.507 303.866C193.93 303.345 194.161 302.697 194.161 302.028C194.161 301.36 193.93 300.711 193.507 300.191C193.058 299.751 192.452 299.504 191.82 299.504C191.189 299.504 190.583 299.751 190.134 300.191C189.704 300.708 189.47 301.358 189.47 302.028C189.47 302.699 189.704 303.348 190.134 303.866C190.584 304.304 191.19 304.55 191.82 304.55C192.451 304.55 193.057 304.304 193.507 303.866Z" fill="url(#paint47_linear_2794_188)"/>
<path d="M207.887 297.467V306.577H205.37V305.491C205.024 305.883 204.594 306.192 204.111 306.396C203.613 306.605 203.078 306.712 202.538 306.709C201.332 306.709 200.376 306.364 199.671 305.675C198.966 304.986 198.613 303.964 198.611 302.609V297.467H201.276V302.225C201.276 303.693 201.896 304.421 203.136 304.411C203.422 304.422 203.707 304.372 203.972 304.264C204.237 304.156 204.475 303.993 204.671 303.786C205.058 303.377 205.253 302.762 205.253 301.95V297.467H207.887Z" fill="url(#paint48_linear_2794_188)"/>
<path d="M214.196 297.687C214.79 297.45 215.425 297.335 216.065 297.347V299.788C215.769 299.763 215.568 299.754 215.467 299.754C215.141 299.733 214.815 299.778 214.507 299.885C214.199 299.993 213.915 300.16 213.674 300.378C213.243 300.803 213.025 301.437 213.025 302.286V306.585H210.354V297.468H212.896V298.67C213.228 298.228 213.678 297.887 214.196 297.687Z" fill="url(#paint49_linear_2794_188)"/>
<path d="M224.316 306.116C223.57 305.737 222.947 305.16 222.516 304.448C222.091 303.71 221.868 302.875 221.868 302.025C221.868 301.176 222.091 300.341 222.516 299.603C222.948 298.892 223.571 298.314 224.316 297.935C225.121 297.526 226.016 297.319 226.921 297.333C227.822 297.318 228.713 297.525 229.514 297.935C230.255 298.316 230.876 298.893 231.307 299.603C231.732 300.341 231.955 301.176 231.955 302.025C231.955 302.875 231.732 303.71 231.307 304.448C230.877 305.158 230.256 305.735 229.514 306.116C228.713 306.527 227.822 306.734 226.921 306.718C226.016 306.733 225.121 306.526 224.316 306.116ZM228.601 303.864C229.027 303.345 229.259 302.696 229.259 302.027C229.259 301.358 229.027 300.709 228.601 300.19C228.387 299.963 228.126 299.785 227.836 299.666C227.546 299.548 227.234 299.492 226.921 299.503C226.606 299.493 226.293 299.549 226.002 299.668C225.711 299.786 225.448 299.964 225.231 300.19C224.8 300.706 224.564 301.356 224.564 302.027C224.564 302.698 224.8 303.348 225.231 303.864C225.449 304.089 225.712 304.266 226.003 304.384C226.294 304.502 226.607 304.558 226.921 304.548C227.235 304.559 227.547 304.504 227.837 304.385C228.128 304.267 228.389 304.088 228.604 303.861L228.601 303.864Z" fill="url(#paint50_linear_2794_188)"/>
<path d="M248.224 297.467L244.895 306.577H242.336L240.269 300.92L238.136 306.577H235.574L232.264 297.467H234.781L236.949 303.63L239.202 297.467H241.455L243.658 303.63L245.892 297.467H248.224Z" fill="url(#paint51_linear_2794_188)"/>
<path d="M257.808 298.349C258.507 299.027 258.857 300.032 258.859 301.365V306.579H256.197V301.77C256.242 301.191 256.072 300.616 255.719 300.153C255.541 299.969 255.325 299.826 255.086 299.734C254.847 299.642 254.59 299.603 254.334 299.619C254.038 299.606 253.742 299.655 253.465 299.763C253.189 299.87 252.938 300.034 252.73 300.244C252.333 300.656 252.132 301.268 252.132 302.08V306.585H249.47V297.468H252.012V298.536C252.377 298.144 252.827 297.84 253.327 297.646C253.877 297.433 254.462 297.327 255.052 297.334C255.556 297.311 256.06 297.39 256.534 297.564C257.007 297.738 257.441 298.005 257.808 298.349Z" fill="url(#paint52_linear_2794_188)"/>
<path d="M269.014 297.684H271.371V299.717H269.083V306.586H266.421V299.717H265.005V297.684H266.421V297.278C266.4 296.824 266.472 296.37 266.635 295.945C266.797 295.519 267.046 295.132 267.365 294.806C267.995 294.181 268.86 293.891 269.986 293.891C270.369 293.888 270.75 293.93 271.122 294.016C271.44 294.085 271.744 294.208 272.019 294.381L271.317 296.295C271.002 296.081 270.626 295.971 270.244 295.983C269.437 295.983 269.032 296.423 269.03 297.303L269.014 297.684Z" fill="url(#paint53_linear_2794_188)"/>
<path d="M281.527 302.767H274.579C274.69 303.31 275.008 303.789 275.467 304.103C275.981 304.446 276.591 304.619 277.21 304.597C277.639 304.602 278.065 304.53 278.469 304.384C278.854 304.232 279.205 304.005 279.501 303.716L280.917 305.24C280.052 306.22 278.794 306.711 277.141 306.714C276.189 306.733 275.246 306.526 274.391 306.111C273.628 305.741 272.988 305.163 272.547 304.444C272.124 303.707 271.902 302.873 271.902 302.025C271.902 301.178 272.124 300.344 272.547 299.607C272.964 298.897 273.574 298.316 274.306 297.931C275.068 297.539 275.914 297.333 276.773 297.328C277.631 297.324 278.479 297.522 279.246 297.906C279.965 298.282 280.561 298.855 280.961 299.557C281.39 300.32 281.608 301.182 281.59 302.055C281.577 302.089 281.562 302.327 281.527 302.767ZM275.297 299.835C274.881 300.189 274.612 300.685 274.545 301.225H279.07C279 300.688 278.732 300.196 278.318 299.845C277.897 299.497 277.364 299.314 276.817 299.329C276.265 299.312 275.726 299.491 275.297 299.835Z" fill="url(#paint54_linear_2794_188)"/>
<path d="M292.298 302.767H285.35C285.461 303.31 285.779 303.789 286.238 304.103C286.752 304.446 287.362 304.619 287.981 304.597C288.41 304.602 288.836 304.53 289.239 304.384C289.625 304.232 289.976 304.005 290.271 303.716L291.687 305.24C290.823 306.22 289.565 306.711 287.912 306.714C286.96 306.733 286.017 306.526 285.161 306.111C284.399 305.743 283.76 305.164 283.321 304.444C282.881 303.712 282.655 302.873 282.669 302.021C282.654 301.174 282.871 300.34 283.299 299.607C283.716 298.897 284.325 298.316 285.058 297.931C285.82 297.539 286.666 297.333 287.525 297.328C288.383 297.324 289.231 297.522 289.998 297.906C290.717 298.282 291.313 298.855 291.713 299.557C292.142 300.32 292.36 301.182 292.342 302.055C292.348 302.089 292.333 302.327 292.298 302.767ZM286.068 299.835C285.651 300.189 285.383 300.685 285.316 301.225H289.84C289.77 300.688 289.503 300.196 289.088 299.845C288.668 299.497 288.134 299.314 287.587 299.329C287.036 299.312 286.497 299.491 286.068 299.835Z" fill="url(#paint55_linear_2794_188)"/>
<path d="M294.124 294.012H296.789V306.579H294.124V294.012Z" fill="url(#paint56_linear_2794_188)"/>
<path d="M299.402 295.77C299.257 295.637 299.14 295.474 299.061 295.294C298.981 295.113 298.94 294.918 298.94 294.721C298.94 294.524 298.981 294.33 299.061 294.149C299.14 293.969 299.257 293.806 299.402 293.672C299.729 293.381 300.159 293.228 300.598 293.248C301.033 293.229 301.459 293.374 301.791 293.654C301.939 293.779 302.057 293.935 302.137 294.111C302.217 294.287 302.257 294.478 302.253 294.671C302.259 294.876 302.22 295.079 302.14 295.267C302.061 295.456 301.941 295.625 301.791 295.764C301.455 296.041 301.033 296.192 300.596 296.192C300.16 296.192 299.738 296.041 299.402 295.764V295.77ZM299.264 297.466H301.92V306.577H299.254L299.264 297.466Z" fill="url(#paint57_linear_2794_188)"/>
<path d="M312.739 298.346C313.44 299.025 313.79 300.03 313.79 301.362V306.576H311.128V301.768C311.173 301.189 311.003 300.614 310.65 300.151C310.472 299.967 310.256 299.824 310.017 299.732C309.778 299.639 309.521 299.6 309.265 299.617C308.968 299.604 308.672 299.653 308.396 299.76C308.12 299.868 307.869 300.032 307.66 300.241C307.264 300.653 307.062 301.265 307.062 302.077V306.583H304.4V297.466H306.955V298.533C307.32 298.142 307.77 297.837 308.271 297.644C308.82 297.43 309.405 297.324 309.995 297.331C310.497 297.311 310.999 297.39 311.47 297.564C311.941 297.738 312.373 298.004 312.739 298.346Z" fill="url(#paint58_linear_2794_188)"/>
<path d="M325.772 297.468V305.055C325.772 306.72 325.333 307.963 324.457 308.783C323.58 309.603 322.3 310.009 320.618 310C319.768 310.008 318.922 309.903 318.1 309.688C317.384 309.509 316.71 309.191 316.118 308.751L317.178 306.853C317.615 307.195 318.112 307.451 318.645 307.609C319.22 307.791 319.819 307.884 320.423 307.887C321.344 307.887 322.023 307.678 322.462 307.262C322.9 306.846 323.119 306.221 323.119 305.389V304.999C322.425 305.754 321.457 306.132 320.215 306.132C319.41 306.141 318.615 305.953 317.902 305.582C317.214 305.223 316.638 304.683 316.238 304.021C315.835 303.319 315.624 302.525 315.624 301.717C315.624 300.909 315.835 300.115 316.238 299.413C316.638 298.751 317.214 298.211 317.902 297.852C318.615 297.481 319.41 297.291 320.215 297.299C321.549 297.299 322.562 297.734 323.255 298.604V297.436L325.772 297.468ZM322.468 303.353C322.682 303.141 322.852 302.889 322.968 302.611C323.084 302.334 323.144 302.036 323.144 301.736C323.144 301.435 323.084 301.138 322.968 300.86C322.852 300.583 322.682 300.331 322.468 300.118C321.995 299.695 321.374 299.471 320.737 299.494C320.097 299.471 319.472 299.695 318.994 300.118C318.778 300.33 318.606 300.581 318.489 300.859C318.372 301.137 318.312 301.435 318.312 301.736C318.312 302.037 318.372 302.335 318.489 302.612C318.606 302.89 318.778 303.142 318.994 303.353C319.472 303.776 320.097 304 320.737 303.978C321.374 304.001 321.995 303.777 322.468 303.353Z" fill="url(#paint59_linear_2794_188)"/>
</g>
<defs>
<linearGradient id="paint0_linear_2794_188" x1="99.8735" y1="140.468" x2="254.127" y2="140.468" gradientUnits="userSpaceOnUse">
<stop stop-color="#7E5931"/>
<stop offset="0.08" stop-color="#825C31"/>
<stop offset="0.17" stop-color="#8F6532"/>
<stop offset="0.26" stop-color="#A57434"/>
<stop offset="0.36" stop-color="#C38937"/>
<stop offset="0.46" stop-color="#EAA43A"/>
<stop offset="0.49" stop-color="#FBB03B"/>
<stop offset="0.54" stop-color="#E4A039"/>
<stop offset="0.63" stop-color="#C08736"/>
<stop offset="0.73" stop-color="#A37334"/>
<stop offset="0.82" stop-color="#8E6432"/>
<stop offset="0.91" stop-color="#825C31"/>
<stop offset="1" stop-color="#7E5931"/>
</linearGradient>
<linearGradient id="paint1_linear_2794_188" x1="99.9465" y1="24.7287" x2="210.758" y2="158.225" gradientUnits="userSpaceOnUse">
<stop stop-color="#7E5931"/>
<stop offset="0.49" stop-color="#FBB03B"/>
<stop offset="1" stop-color="#7E5931"/>
</linearGradient>
<linearGradient id="paint2_linear_2794_188" x1="153.473" y1="-19.7013" x2="264.281" y2="113.795" gradientUnits="userSpaceOnUse">
<stop stop-color="#7E5931"/>
<stop offset="0.49" stop-color="#FBB03B"/>
<stop offset="1" stop-color="#7E5931"/>
</linearGradient>
<linearGradient id="paint3_linear_2794_188" x1="150.037" y1="-16.8477" x2="260.846" y2="116.652" gradientUnits="userSpaceOnUse">
<stop stop-color="#7E5931"/>
<stop offset="0.49" stop-color="#FBB03B"/>
<stop offset="1" stop-color="#7E5931"/>
</linearGradient>
<linearGradient id="paint4_linear_2794_188" x1="84.0647" y1="53.2994" x2="176.635" y2="181.213" gradientUnits="userSpaceOnUse">
<stop stop-color="#7E5931"/>
<stop offset="0.08" stop-color="#825C31"/>
<stop offset="0.17" stop-color="#8F6532"/>
<stop offset="0.26" stop-color="#A57434"/>
<stop offset="0.36" stop-color="#C38937"/>
<stop offset="0.46" stop-color="#EAA43A"/>
<stop offset="0.49" stop-color="#FBB03B"/>
<stop offset="0.54" stop-color="#E4A039"/>
<stop offset="0.63" stop-color="#C08736"/>
<stop offset="0.73" stop-color="#A37334"/>
<stop offset="0.82" stop-color="#8E6432"/>
<stop offset="0.91" stop-color="#825C31"/>
<stop offset="1" stop-color="#7E5931"/>
</linearGradient>
<linearGradient id="paint5_linear_2794_188" x1="103.045" y1="39.5664" x2="195.612" y2="167.48" gradientUnits="userSpaceOnUse">
<stop stop-color="#7E5931"/>
<stop offset="0.08" stop-color="#825C31"/>
<stop offset="0.17" stop-color="#8F6532"/>
<stop offset="0.26" stop-color="#A57434"/>
<stop offset="0.36" stop-color="#C38937"/>
<stop offset="0.46" stop-color="#EAA43A"/>
<stop offset="0.49" stop-color="#FBB03B"/>
<stop offset="0.54" stop-color="#E4A039"/>
<stop offset="0.63" stop-color="#C08736"/>
<stop offset="0.73" stop-color="#A37334"/>
<stop offset="0.82" stop-color="#8E6432"/>
<stop offset="0.91" stop-color="#825C31"/>
<stop offset="1" stop-color="#7E5931"/>
</linearGradient>
<linearGradient id="paint6_linear_2794_188" x1="144.747" y1="9.3856" x2="237.317" y2="137.299" gradientUnits="userSpaceOnUse">
<stop stop-color="#7E5931"/>
<stop offset="0.08" stop-color="#825C31"/>
<stop offset="0.17" stop-color="#8F6532"/>
<stop offset="0.26" stop-color="#A57434"/>
<stop offset="0.36" stop-color="#C38937"/>
<stop offset="0.46" stop-color="#EAA43A"/>
<stop offset="0.49" stop-color="#FBB03B"/>
<stop offset="0.54" stop-color="#E4A039"/>
<stop offset="0.63" stop-color="#C08736"/>
<stop offset="0.73" stop-color="#A37334"/>
<stop offset="0.82" stop-color="#8E6432"/>
<stop offset="0.91" stop-color="#825C31"/>
<stop offset="1" stop-color="#7E5931"/>
</linearGradient>
<linearGradient id="paint7_linear_2794_188" x1="145.078" y1="9.15001" x2="237.645" y2="137.063" gradientUnits="userSpaceOnUse">
<stop stop-color="#7E5931"/>
<stop offset="0.08" stop-color="#825C31"/>
<stop offset="0.17" stop-color="#8F6532"/>
<stop offset="0.26" stop-color="#A57434"/>
<stop offset="0.36" stop-color="#C38937"/>
<stop offset="0.46" stop-color="#EAA43A"/>
<stop offset="0.49" stop-color="#FBB03B"/>
<stop offset="0.54" stop-color="#E4A039"/>
<stop offset="0.63" stop-color="#C08736"/>
<stop offset="0.73" stop-color="#A37334"/>
<stop offset="0.82" stop-color="#8E6432"/>
<stop offset="0.91" stop-color="#825C31"/>
<stop offset="1" stop-color="#7E5931"/>
</linearGradient>
<linearGradient id="paint8_linear_2794_188" x1="121.591" y1="26.1459" x2="214.158" y2="154.059" gradientUnits="userSpaceOnUse">
<stop stop-color="#7E5931"/>
<stop offset="0.08" stop-color="#825C31"/>
<stop offset="0.17" stop-color="#8F6532"/>
<stop offset="0.26" stop-color="#A57434"/>
<stop offset="0.36" stop-color="#C38937"/>
<stop offset="0.46" stop-color="#EAA43A"/>
<stop offset="0.49" stop-color="#FBB03B"/>
<stop offset="0.54" stop-color="#E4A039"/>
<stop offset="0.63" stop-color="#C08736"/>
<stop offset="0.73" stop-color="#A37334"/>
<stop offset="0.82" stop-color="#8E6432"/>
<stop offset="0.91" stop-color="#825C31"/>
<stop offset="1" stop-color="#7E5931"/>
</linearGradient>
<linearGradient id="paint9_linear_2794_188" x1="130.499" y1="19.7" x2="223.066" y2="147.613" gradientUnits="userSpaceOnUse">
<stop stop-color="#7E5931"/>
<stop offset="0.08" stop-color="#825C31"/>
<stop offset="0.17" stop-color="#8F6532"/>
<stop offset="0.26" stop-color="#A57434"/>
<stop offset="0.36" stop-color="#C38937"/>
<stop offset="0.46" stop-color="#EAA43A"/>
<stop offset="0.49" stop-color="#FBB03B"/>
<stop offset="0.54" stop-color="#E4A039"/>
<stop offset="0.63" stop-color="#C08736"/>
<stop offset="0.73" stop-color="#A37334"/>
<stop offset="0.82" stop-color="#8E6432"/>
<stop offset="0.91" stop-color="#825C31"/>
<stop offset="1" stop-color="#7E5931"/>
</linearGradient>
<linearGradient id="paint10_linear_2794_188" x1="140.619" y1="12.3742" x2="233.186" y2="140.287" gradientUnits="userSpaceOnUse">
<stop stop-color="#7E5931"/>
<stop offset="0.08" stop-color="#825C31"/>
<stop offset="0.17" stop-color="#8F6532"/>
<stop offset="0.26" stop-color="#A57434"/>
<stop offset="0.36" stop-color="#C38937"/>
<stop offset="0.46" stop-color="#EAA43A"/>
<stop offset="0.49" stop-color="#FBB03B"/>
<stop offset="0.54" stop-color="#E4A039"/>
<stop offset="0.63" stop-color="#C08736"/>
<stop offset="0.73" stop-color="#A37334"/>
<stop offset="0.82" stop-color="#8E6432"/>
<stop offset="0.91" stop-color="#825C31"/>
<stop offset="1" stop-color="#7E5931"/>
</linearGradient>
<linearGradient id="paint11_linear_2794_188" x1="154.885" y1="2.0507" x2="247.452" y2="129.964" gradientUnits="userSpaceOnUse">
<stop stop-color="#7E5931"/>
<stop offset="0.08" stop-color="#825C31"/>
<stop offset="0.17" stop-color="#8F6532"/>
<stop offset="0.26" stop-color="#A57434"/>
<stop offset="0.36" stop-color="#C38937"/>
<stop offset="0.46" stop-color="#EAA43A"/>
<stop offset="0.49" stop-color="#FBB03B"/>
<stop offset="0.54" stop-color="#E4A039"/>
<stop offset="0.63" stop-color="#C08736"/>
<stop offset="0.73" stop-color="#A37334"/>
<stop offset="0.82" stop-color="#8E6432"/>
<stop offset="0.91" stop-color="#825C31"/>
<stop offset="1" stop-color="#7E5931"/>
</linearGradient>
<linearGradient id="paint12_linear_2794_188" x1="54.8511" y1="134.717" x2="65.77" y2="256.696" gradientUnits="userSpaceOnUse">
<stop stop-color="#7E5931"/>
<stop offset="0.08" stop-color="#825C31"/>
<stop offset="0.17" stop-color="#8F6532"/>
<stop offset="0.26" stop-color="#A57434"/>
<stop offset="0.36" stop-color="#C38937"/>
<stop offset="0.46" stop-color="#EAA43A"/>
<stop offset="0.49" stop-color="#FBB03B"/>
<stop offset="0.54" stop-color="#E4A039"/>
<stop offset="0.63" stop-color="#C08736"/>
<stop offset="0.73" stop-color="#A37334"/>
<stop offset="0.82" stop-color="#8E6432"/>
<stop offset="0.91" stop-color="#825C31"/>
<stop offset="1" stop-color="#7E5931"/>
</linearGradient>
<linearGradient id="paint13_linear_2794_188" x1="100.485" y1="130.633" x2="111.4" y2="252.612" gradientUnits="userSpaceOnUse">
<stop stop-color="#7E5931"/>
<stop offset="0.08" stop-color="#825C31"/>
<stop offset="0.17" stop-color="#8F6532"/>
<stop offset="0.26" stop-color="#A57434"/>
<stop offset="0.36" stop-color="#C38937"/>
<stop offset="0.46" stop-color="#EAA43A"/>
<stop offset="0.49" stop-color="#FBB03B"/>
<stop offset="0.54" stop-color="#E4A039"/>
<stop offset="0.63" stop-color="#C08736"/>
<stop offset="0.73" stop-color="#A37334"/>
<stop offset="0.82" stop-color="#8E6432"/>
<stop offset="0.91" stop-color="#825C31"/>
<stop offset="1" stop-color="#7E5931"/>
</linearGradient>
<linearGradient id="paint14_linear_2794_188" x1="173.859" y1="124.067" x2="184.778" y2="246.049" gradientUnits="userSpaceOnUse">
<stop stop-color="#7E5931"/>
<stop offset="0.08" stop-color="#825C31"/>
<stop offset="0.17" stop-color="#8F6532"/>
<stop offset="0.26" stop-color="#A57434"/>
<stop offset="0.36" stop-color="#C38937"/>
<stop offset="0.46" stop-color="#EAA43A"/>
<stop offset="0.49" stop-color="#FBB03B"/>
<stop offset="0.54" stop-color="#E4A039"/>
<stop offset="0.63" stop-color="#C08736"/>
<stop offset="0.73" stop-color="#A37334"/>
<stop offset="0.82" stop-color="#8E6432"/>
<stop offset="0.91" stop-color="#825C31"/>
<stop offset="1" stop-color="#7E5931"/>
</linearGradient>
<linearGradient id="paint15_linear_2794_188" x1="233.207" y1="118.753" x2="244.123" y2="240.735" gradientUnits="userSpaceOnUse">
<stop stop-color="#7E5931"/>
<stop offset="0.08" stop-color="#825C31"/>
<stop offset="0.17" stop-color="#8F6532"/>
<stop offset="0.26" stop-color="#A57434"/>
<stop offset="0.36" stop-color="#C38937"/>
<stop offset="0.46" stop-color="#EAA43A"/>
<stop offset="0.49" stop-color="#FBB03B"/>
<stop offset="0.54" stop-color="#E4A039"/>
<stop offset="0.63" stop-color="#C08736"/>
<stop offset="0.73" stop-color="#A37334"/>
<stop offset="0.82" stop-color="#8E6432"/>
<stop offset="0.91" stop-color="#825C31"/>
<stop offset="1" stop-color="#7E5931"/>
</linearGradient>
<linearGradient id="paint16_linear_2794_188" x1="292.428" y1="113.454" x2="303.343" y2="235.436" gradientUnits="userSpaceOnUse">
<stop stop-color="#7E5931"/>
<stop offset="0.08" stop-color="#825C31"/>
<stop offset="0.17" stop-color="#8F6532"/>
<stop offset="0.26" stop-color="#A57434"/>
<stop offset="0.36" stop-color="#C38937"/>
<stop offset="0.46" stop-color="#EAA43A"/>
<stop offset="0.49" stop-color="#FBB03B"/>
<stop offset="0.54" stop-color="#E4A039"/>
<stop offset="0.63" stop-color="#C08736"/>
<stop offset="0.73" stop-color="#A37334"/>
<stop offset="0.82" stop-color="#8E6432"/>
<stop offset="0.91" stop-color="#825C31"/>
<stop offset="1" stop-color="#7E5931"/>
</linearGradient>
<linearGradient id="paint17_linear_2794_188" x1="-3.98556" y1="258.469" x2="353.321" y2="289.555" gradientUnits="userSpaceOnUse">
<stop stop-color="#7E5931"/>
<stop offset="0.08" stop-color="#825C31"/>
<stop offset="0.17" stop-color="#8F6532"/>
<stop offset="0.26" stop-color="#A57434"/>
<stop offset="0.36" stop-color="#C38937"/>
<stop offset="0.46" stop-color="#EAA43A"/>
<stop offset="0.49" stop-color="#FBB03B"/>
<stop offset="0.54" stop-color="#E4A039"/>
<stop offset="0.63" stop-color="#C08736"/>
<stop offset="0.73" stop-color="#A37334"/>
<stop offset="0.82" stop-color="#8E6432"/>
<stop offset="0.91" stop-color="#825C31"/>
<stop offset="1" stop-color="#7E5931"/>
</linearGradient>
<linearGradient id="paint18_linear_2794_188" x1="-3.78888" y1="256.174" x2="353.518" y2="287.26" gradientUnits="userSpaceOnUse">
<stop stop-color="#7E5931"/>
<stop offset="0.08" stop-color="#825C31"/>
<stop offset="0.17" stop-color="#8F6532"/>
<stop offset="0.26" stop-color="#A57434"/>
<stop offset="0.36" stop-color="#C38937"/>
<stop offset="0.46" stop-color="#EAA43A"/>
<stop offset="0.49" stop-color="#FBB03B"/>
<stop offset="0.54" stop-color="#E4A039"/>
<stop offset="0.63" stop-color="#C08736"/>
<stop offset="0.73" stop-color="#A37334"/>
<stop offset="0.82" stop-color="#8E6432"/>
<stop offset="0.91" stop-color="#825C31"/>
<stop offset="1" stop-color="#7E5931"/>
</linearGradient>
<linearGradient id="paint19_linear_2794_188" x1="-3.64068" y1="254.503" x2="353.663" y2="285.593" gradientUnits="userSpaceOnUse">
<stop stop-color="#7E5931"/>
<stop offset="0.08" stop-color="#825C31"/>
<stop offset="0.17" stop-color="#8F6532"/>
<stop offset="0.26" stop-color="#A57434"/>
<stop offset="0.36" stop-color="#C38937"/>
<stop offset="0.46" stop-color="#EAA43A"/>
<stop offset="0.49" stop-color="#FBB03B"/>
<stop offset="0.54" stop-color="#E4A039"/>
<stop offset="0.63" stop-color="#C08736"/>
<stop offset="0.73" stop-color="#A37334"/>
<stop offset="0.82" stop-color="#8E6432"/>
<stop offset="0.91" stop-color="#825C31"/>
<stop offset="1" stop-color="#7E5931"/>
</linearGradient>
<linearGradient id="paint20_linear_2794_188" x1="-3.45198" y1="252.33" x2="353.855" y2="283.417" gradientUnits="userSpaceOnUse">
<stop stop-color="#7E5931"/>
<stop offset="0.08" stop-color="#825C31"/>
<stop offset="0.17" stop-color="#8F6532"/>
<stop offset="0.26" stop-color="#A57434"/>
<stop offset="0.36" stop-color="#C38937"/>
<stop offset="0.46" stop-color="#EAA43A"/>
<stop offset="0.49" stop-color="#FBB03B"/>
<stop offset="0.54" stop-color="#E4A039"/>
<stop offset="0.63" stop-color="#C08736"/>
<stop offset="0.73" stop-color="#A37334"/>
<stop offset="0.82" stop-color="#8E6432"/>
<stop offset="0.91" stop-color="#825C31"/>
<stop offset="1" stop-color="#7E5931"/>
</linearGradient>
<linearGradient id="paint21_linear_2794_188" x1="-3.34158" y1="251.039" x2="353.965" y2="282.126" gradientUnits="userSpaceOnUse">
<stop stop-color="#7E5931"/>
<stop offset="0.08" stop-color="#825C31"/>
<stop offset="0.17" stop-color="#8F6532"/>
<stop offset="0.26" stop-color="#A57434"/>
<stop offset="0.36" stop-color="#C38937"/>
<stop offset="0.46" stop-color="#EAA43A"/>
<stop offset="0.49" stop-color="#FBB03B"/>
<stop offset="0.54" stop-color="#E4A039"/>
<stop offset="0.63" stop-color="#C08736"/>
<stop offset="0.73" stop-color="#A37334"/>
<stop offset="0.82" stop-color="#8E6432"/>
<stop offset="0.91" stop-color="#825C31"/>
<stop offset="1" stop-color="#7E5931"/>
</linearGradient>
<linearGradient id="paint22_linear_2794_188" x1="-3.14334" y1="248.79" x2="354.163" y2="279.876" gradientUnits="userSpaceOnUse">
<stop stop-color="#7E5931"/>
<stop offset="0.08" stop-color="#825C31"/>
<stop offset="0.17" stop-color="#8F6532"/>
<stop offset="0.26" stop-color="#A57434"/>
<stop offset="0.36" stop-color="#C38937"/>
<stop offset="0.46" stop-color="#EAA43A"/>
<stop offset="0.49" stop-color="#FBB03B"/>
<stop offset="0.54" stop-color="#E4A039"/>
<stop offset="0.63" stop-color="#C08736"/>
<stop offset="0.73" stop-color="#A37334"/>
<stop offset="0.82" stop-color="#8E6432"/>
<stop offset="0.91" stop-color="#825C31"/>
<stop offset="1" stop-color="#7E5931"/>
</linearGradient>
<linearGradient id="paint23_linear_2794_188" x1="-2.94122" y1="246.465" x2="354.365" y2="277.551" gradientUnits="userSpaceOnUse">
<stop stop-color="#7E5931"/>
<stop offset="0.08" stop-color="#825C31"/>
<stop offset="0.17" stop-color="#8F6532"/>
<stop offset="0.26" stop-color="#A57434"/>
<stop offset="0.36" stop-color="#C38937"/>
<stop offset="0.46" stop-color="#EAA43A"/>
<stop offset="0.49" stop-color="#FBB03B"/>
<stop offset="0.54" stop-color="#E4A039"/>
<stop offset="0.63" stop-color="#C08736"/>
<stop offset="0.73" stop-color="#A37334"/>
<stop offset="0.82" stop-color="#8E6432"/>
<stop offset="0.91" stop-color="#825C31"/>
<stop offset="1" stop-color="#7E5931"/>
</linearGradient>
<linearGradient id="paint24_linear_2794_188" x1="-2.75332" y1="244.306" x2="354.553" y2="275.393" gradientUnits="userSpaceOnUse">
<stop stop-color="#7E5931"/>
<stop offset="0.08" stop-color="#825C31"/>
<stop offset="0.17" stop-color="#8F6532"/>
<stop offset="0.26" stop-color="#A57434"/>
<stop offset="0.36" stop-color="#C38937"/>
<stop offset="0.46" stop-color="#EAA43A"/>
<stop offset="0.49" stop-color="#FBB03B"/>
<stop offset="0.54" stop-color="#E4A039"/>
<stop offset="0.63" stop-color="#C08736"/>
<stop offset="0.73" stop-color="#A37334"/>
<stop offset="0.82" stop-color="#8E6432"/>
<stop offset="0.91" stop-color="#825C31"/>
<stop offset="1" stop-color="#7E5931"/>
</linearGradient>
<linearGradient id="paint25_linear_2794_188" x1="-2.6209" y1="242.755" x2="354.686" y2="273.841" gradientUnits="userSpaceOnUse">
<stop stop-color="#7E5931"/>
<stop offset="0.08" stop-color="#825C31"/>
<stop offset="0.17" stop-color="#8F6532"/>
<stop offset="0.26" stop-color="#A57434"/>
<stop offset="0.36" stop-color="#C38937"/>
<stop offset="0.46" stop-color="#EAA43A"/>
<stop offset="0.49" stop-color="#FBB03B"/>
<stop offset="0.54" stop-color="#E4A039"/>
<stop offset="0.63" stop-color="#C08736"/>
<stop offset="0.73" stop-color="#A37334"/>
<stop offset="0.82" stop-color="#8E6432"/>
<stop offset="0.91" stop-color="#825C31"/>
<stop offset="1" stop-color="#7E5931"/>
</linearGradient>
<linearGradient id="paint26_linear_2794_188" x1="-2.48622" y1="241.197" x2="354.82" y2="272.283" gradientUnits="userSpaceOnUse">
<stop stop-color="#7E5931"/>
<stop offset="0.08" stop-color="#825C31"/>
<stop offset="0.17" stop-color="#8F6532"/>
<stop offset="0.26" stop-color="#A57434"/>
<stop offset="0.36" stop-color="#C38937"/>
<stop offset="0.46" stop-color="#EAA43A"/>
<stop offset="0.49" stop-color="#FBB03B"/>
<stop offset="0.54" stop-color="#E4A039"/>
<stop offset="0.63" stop-color="#C08736"/>
<stop offset="0.73" stop-color="#A37334"/>
<stop offset="0.82" stop-color="#8E6432"/>
<stop offset="0.91" stop-color="#825C31"/>
<stop offset="1" stop-color="#7E5931"/>
</linearGradient>
<linearGradient id="paint27_linear_2794_188" x1="-2.29983" y1="239.083" x2="355.007" y2="270.17" gradientUnits="userSpaceOnUse">
<stop stop-color="#7E5931"/>
<stop offset="0.08" stop-color="#825C31"/>
<stop offset="0.17" stop-color="#8F6532"/>
<stop offset="0.26" stop-color="#A57434"/>
<stop offset="0.36" stop-color="#C38937"/>
<stop offset="0.46" stop-color="#EAA43A"/>
<stop offset="0.49" stop-color="#FBB03B"/>
<stop offset="0.54" stop-color="#E4A039"/>
<stop offset="0.63" stop-color="#C08736"/>
<stop offset="0.73" stop-color="#A37334"/>
<stop offset="0.82" stop-color="#8E6432"/>
<stop offset="0.91" stop-color="#825C31"/>
<stop offset="1" stop-color="#7E5931"/>
</linearGradient>
<linearGradient id="paint28_linear_2794_188" x1="-2.1178" y1="236.997" x2="355.189" y2="268.087" gradientUnits="userSpaceOnUse">
<stop stop-color="#7E5931"/>
<stop offset="0.08" stop-color="#825C31"/>
<stop offset="0.17" stop-color="#8F6532"/>
<stop offset="0.26" stop-color="#A57434"/>
<stop offset="0.36" stop-color="#C38937"/>
<stop offset="0.46" stop-color="#EAA43A"/>
<stop offset="0.49" stop-color="#FBB03B"/>
<stop offset="0.54" stop-color="#E4A039"/>
<stop offset="0.63" stop-color="#C08736"/>
<stop offset="0.73" stop-color="#A37334"/>
<stop offset="0.82" stop-color="#8E6432"/>
<stop offset="0.91" stop-color="#825C31"/>
<stop offset="1" stop-color="#7E5931"/>
</linearGradient>
<linearGradient id="paint29_linear_2794_188" x1="-1.93108" y1="234.834" x2="355.375" y2="265.921" gradientUnits="userSpaceOnUse">
<stop stop-color="#7E5931"/>
<stop offset="0.08" stop-color="#825C31"/>
<stop offset="0.17" stop-color="#8F6532"/>
<stop offset="0.26" stop-color="#A57434"/>
<stop offset="0.36" stop-color="#C38937"/>
<stop offset="0.46" stop-color="#EAA43A"/>
<stop offset="0.49" stop-color="#FBB03B"/>
<stop offset="0.54" stop-color="#E4A039"/>
<stop offset="0.63" stop-color="#C08736"/>
<stop offset="0.73" stop-color="#A37334"/>
<stop offset="0.82" stop-color="#8E6432"/>
<stop offset="0.91" stop-color="#825C31"/>
<stop offset="1" stop-color="#7E5931"/>
</linearGradient>
<linearGradient id="paint30_linear_2794_188" x1="-1.72433" y1="232.454" x2="355.583" y2="263.541" gradientUnits="userSpaceOnUse">
<stop stop-color="#7E5931"/>
<stop offset="0.08" stop-color="#825C31"/>
<stop offset="0.17" stop-color="#8F6532"/>
<stop offset="0.26" stop-color="#A57434"/>
<stop offset="0.36" stop-color="#C38937"/>
<stop offset="0.46" stop-color="#EAA43A"/>
<stop offset="0.49" stop-color="#FBB03B"/>
<stop offset="0.54" stop-color="#E4A039"/>
<stop offset="0.63" stop-color="#C08736"/>
<stop offset="0.73" stop-color="#A37334"/>
<stop offset="0.82" stop-color="#8E6432"/>
<stop offset="0.91" stop-color="#825C31"/>
<stop offset="1" stop-color="#7E5931"/>
</linearGradient>
<linearGradient id="paint31_linear_2794_188" x1="-1.59875" y1="231.012" x2="355.707" y2="262.102" gradientUnits="userSpaceOnUse">
<stop stop-color="#7E5931"/>
<stop offset="0.08" stop-color="#825C31"/>
<stop offset="0.17" stop-color="#8F6532"/>
<stop offset="0.26" stop-color="#A57434"/>
<stop offset="0.36" stop-color="#C38937"/>
<stop offset="0.46" stop-color="#EAA43A"/>
<stop offset="0.49" stop-color="#FBB03B"/>
<stop offset="0.54" stop-color="#E4A039"/>
<stop offset="0.63" stop-color="#C08736"/>
<stop offset="0.73" stop-color="#A37334"/>
<stop offset="0.82" stop-color="#8E6432"/>
<stop offset="0.91" stop-color="#825C31"/>
<stop offset="1" stop-color="#7E5931"/>
</linearGradient>
<linearGradient id="paint32_linear_2794_188" x1="-1.47397" y1="229.554" x2="355.833" y2="260.641" gradientUnits="userSpaceOnUse">
<stop stop-color="#7E5931"/>
<stop offset="0.08" stop-color="#825C31"/>
<stop offset="0.17" stop-color="#8F6532"/>
<stop offset="0.26" stop-color="#A57434"/>
<stop offset="0.36" stop-color="#C38937"/>
<stop offset="0.46" stop-color="#EAA43A"/>
<stop offset="0.49" stop-color="#FBB03B"/>
<stop offset="0.54" stop-color="#E4A039"/>
<stop offset="0.63" stop-color="#C08736"/>
<stop offset="0.73" stop-color="#A37334"/>
<stop offset="0.82" stop-color="#8E6432"/>
<stop offset="0.91" stop-color="#825C31"/>
<stop offset="1" stop-color="#7E5931"/>
</linearGradient>
<linearGradient id="paint33_linear_2794_188" x1="21.0032" y1="299.828" x2="361.611" y2="325.088" gradientUnits="userSpaceOnUse">
<stop stop-color="#7E5931"/>
<stop offset="0.08" stop-color="#825C31"/>
<stop offset="0.17" stop-color="#8F6532"/>
<stop offset="0.26" stop-color="#A57434"/>
<stop offset="0.36" stop-color="#C38937"/>
<stop offset="0.46" stop-color="#EAA43A"/>
<stop offset="0.49" stop-color="#FBB03B"/>
<stop offset="0.54" stop-color="#E4A039"/>
<stop offset="0.63" stop-color="#C08736"/>
<stop offset="0.73" stop-color="#A37334"/>
<stop offset="0.82" stop-color="#8E6432"/>
<stop offset="0.91" stop-color="#825C31"/>
<stop offset="1" stop-color="#7E5931"/>
</linearGradient>
<linearGradient id="paint34_linear_2794_188" x1="21.0942" y1="298.609" x2="361.702" y2="323.868" gradientUnits="userSpaceOnUse">
<stop stop-color="#7E5931"/>
<stop offset="0.08" stop-color="#825C31"/>
<stop offset="0.17" stop-color="#8F6532"/>
<stop offset="0.26" stop-color="#A57434"/>
<stop offset="0.36" stop-color="#C38937"/>
<stop offset="0.46" stop-color="#EAA43A"/>
<stop offset="0.49" stop-color="#FBB03B"/>
<stop offset="0.54" stop-color="#E4A039"/>
<stop offset="0.63" stop-color="#C08736"/>
<stop offset="0.73" stop-color="#A37334"/>
<stop offset="0.82" stop-color="#8E6432"/>
<stop offset="0.91" stop-color="#825C31"/>
<stop offset="1" stop-color="#7E5931"/>
</linearGradient>
<linearGradient id="paint35_linear_2794_188" x1="21.0694" y1="298.94" x2="361.677" y2="324.2" gradientUnits="userSpaceOnUse">
<stop stop-color="#7E5931"/>
<stop offset="0.08" stop-color="#825C31"/>
<stop offset="0.17" stop-color="#8F6532"/>
<stop offset="0.26" stop-color="#A57434"/>
<stop offset="0.36" stop-color="#C38937"/>
<stop offset="0.46" stop-color="#EAA43A"/>
<stop offset="0.49" stop-color="#FBB03B"/>
<stop offset="0.54" stop-color="#E4A039"/>
<stop offset="0.63" stop-color="#C08736"/>
<stop offset="0.73" stop-color="#A37334"/>
<stop offset="0.82" stop-color="#8E6432"/>
<stop offset="0.91" stop-color="#825C31"/>
<stop offset="1" stop-color="#7E5931"/>
</linearGradient>
<linearGradient id="paint36_linear_2794_188" x1="21.1234" y1="298.216" x2="361.731" y2="323.476" gradientUnits="userSpaceOnUse">
<stop stop-color="#7E5931"/>
<stop offset="0.08" stop-color="#825C31"/>
<stop offset="0.17" stop-color="#8F6532"/>
<stop offset="0.26" stop-color="#A57434"/>
<stop offset="0.36" stop-color="#C38937"/>
<stop offset="0.46" stop-color="#EAA43A"/>
<stop offset="0.49" stop-color="#FBB03B"/>
<stop offset="0.54" stop-color="#E4A039"/>
<stop offset="0.63" stop-color="#C08736"/>
<stop offset="0.73" stop-color="#A37334"/>
<stop offset="0.82" stop-color="#8E6432"/>
<stop offset="0.91" stop-color="#825C31"/>
<stop offset="1" stop-color="#7E5931"/>
</linearGradient>
<linearGradient id="paint37_linear_2794_188" x1="21.1861" y1="297.364" x2="361.793" y2="322.623" gradientUnits="userSpaceOnUse">
<stop stop-color="#7E5931"/>
<stop offset="0.08" stop-color="#825C31"/>
<stop offset="0.17" stop-color="#8F6532"/>
<stop offset="0.26" stop-color="#A57434"/>
<stop offset="0.36" stop-color="#C38937"/>
<stop offset="0.46" stop-color="#EAA43A"/>
<stop offset="0.49" stop-color="#FBB03B"/>
<stop offset="0.54" stop-color="#E4A039"/>
<stop offset="0.63" stop-color="#C08736"/>
<stop offset="0.73" stop-color="#A37334"/>
<stop offset="0.82" stop-color="#8E6432"/>
<stop offset="0.91" stop-color="#825C31"/>
<stop offset="1" stop-color="#7E5931"/>
</linearGradient>
<linearGradient id="paint38_linear_2794_188" x1="21.2397" y1="296.641" x2="361.85" y2="321.9" gradientUnits="userSpaceOnUse">
<stop stop-color="#7E5931"/>
<stop offset="0.08" stop-color="#825C31"/>
<stop offset="0.17" stop-color="#8F6532"/>
<stop offset="0.26" stop-color="#A57434"/>
<stop offset="0.36" stop-color="#C38937"/>
<stop offset="0.46" stop-color="#EAA43A"/>
<stop offset="0.49" stop-color="#FBB03B"/>
<stop offset="0.54" stop-color="#E4A039"/>
<stop offset="0.63" stop-color="#C08736"/>
<stop offset="0.73" stop-color="#A37334"/>
<stop offset="0.82" stop-color="#8E6432"/>
<stop offset="0.91" stop-color="#825C31"/>
<stop offset="1" stop-color="#7E5931"/>
</linearGradient>
<linearGradient id="paint39_linear_2794_188" x1="21.1612" y1="297.695" x2="361.772" y2="322.954" gradientUnits="userSpaceOnUse">
<stop stop-color="#7E5931"/>
<stop offset="0.08" stop-color="#825C31"/>
<stop offset="0.17" stop-color="#8F6532"/>
<stop offset="0.26" stop-color="#A57434"/>
<stop offset="0.36" stop-color="#C38937"/>
<stop offset="0.46" stop-color="#EAA43A"/>
<stop offset="0.49" stop-color="#FBB03B"/>
<stop offset="0.54" stop-color="#E4A039"/>
<stop offset="0.63" stop-color="#C08736"/>
<stop offset="0.73" stop-color="#A37334"/>
<stop offset="0.82" stop-color="#8E6432"/>
<stop offset="0.91" stop-color="#825C31"/>
<stop offset="1" stop-color="#7E5931"/>
</linearGradient>
<linearGradient id="paint40_linear_2794_188" x1="21.3587" y1="295.023" x2="361.969" y2="320.283" gradientUnits="userSpaceOnUse">
<stop stop-color="#7E5931"/>
<stop offset="0.08" stop-color="#825C31"/>
<stop offset="0.17" stop-color="#8F6532"/>
<stop offset="0.26" stop-color="#A57434"/>
<stop offset="0.36" stop-color="#C38937"/>
<stop offset="0.46" stop-color="#EAA43A"/>
<stop offset="0.49" stop-color="#FBB03B"/>
<stop offset="0.54" stop-color="#E4A039"/>
<stop offset="0.63" stop-color="#C08736"/>
<stop offset="0.73" stop-color="#A37334"/>
<stop offset="0.82" stop-color="#8E6432"/>
<stop offset="0.91" stop-color="#825C31"/>
<stop offset="1" stop-color="#7E5931"/>
</linearGradient>
<linearGradient id="paint41_linear_2794_188" x1="21.4791" y1="293.439" x2="362.086" y2="318.698" gradientUnits="userSpaceOnUse">
<stop stop-color="#7E5931"/>
<stop offset="0.08" stop-color="#825C31"/>
<stop offset="0.17" stop-color="#8F6532"/>
<stop offset="0.26" stop-color="#A57434"/>
<stop offset="0.36" stop-color="#C38937"/>
<stop offset="0.46" stop-color="#EAA43A"/>
<stop offset="0.49" stop-color="#FBB03B"/>
<stop offset="0.54" stop-color="#E4A039"/>
<stop offset="0.63" stop-color="#C08736"/>
<stop offset="0.73" stop-color="#A37334"/>
<stop offset="0.82" stop-color="#8E6432"/>
<stop offset="0.91" stop-color="#825C31"/>
<stop offset="1" stop-color="#7E5931"/>
</linearGradient>
<linearGradient id="paint42_linear_2794_188" x1="21.4473" y1="293.83" x2="362.058" y2="319.089" gradientUnits="userSpaceOnUse">
<stop stop-color="#7E5931"/>
<stop offset="0.08" stop-color="#825C31"/>
<stop offset="0.17" stop-color="#8F6532"/>
<stop offset="0.26" stop-color="#A57434"/>
<stop offset="0.36" stop-color="#C38937"/>
<stop offset="0.46" stop-color="#EAA43A"/>
<stop offset="0.49" stop-color="#FBB03B"/>
<stop offset="0.54" stop-color="#E4A039"/>
<stop offset="0.63" stop-color="#C08736"/>
<stop offset="0.73" stop-color="#A37334"/>
<stop offset="0.82" stop-color="#8E6432"/>
<stop offset="0.91" stop-color="#825C31"/>
<stop offset="1" stop-color="#7E5931"/>
</linearGradient>
<linearGradient id="paint43_linear_2794_188" x1="21.3875" y1="294.654" x2="361.995" y2="319.913" gradientUnits="userSpaceOnUse">
<stop stop-color="#7E5931"/>
<stop offset="0.08" stop-color="#825C31"/>
<stop offset="0.17" stop-color="#8F6532"/>
<stop offset="0.26" stop-color="#A57434"/>
<stop offset="0.36" stop-color="#C38937"/>
<stop offset="0.46" stop-color="#EAA43A"/>
<stop offset="0.49" stop-color="#FBB03B"/>
<stop offset="0.54" stop-color="#E4A039"/>
<stop offset="0.63" stop-color="#C08736"/>
<stop offset="0.73" stop-color="#A37334"/>
<stop offset="0.82" stop-color="#8E6432"/>
<stop offset="0.91" stop-color="#825C31"/>
<stop offset="1" stop-color="#7E5931"/>
</linearGradient>
<linearGradient id="paint44_linear_2794_188" x1="21.7273" y1="290.076" x2="362.335" y2="315.335" gradientUnits="userSpaceOnUse">
<stop stop-color="#7E5931"/>
<stop offset="0.08" stop-color="#825C31"/>
<stop offset="0.17" stop-color="#8F6532"/>
<stop offset="0.26" stop-color="#A57434"/>
<stop offset="0.36" stop-color="#C38937"/>
<stop offset="0.46" stop-color="#EAA43A"/>
<stop offset="0.49" stop-color="#FBB03B"/>
<stop offset="0.54" stop-color="#E4A039"/>
<stop offset="0.63" stop-color="#C08736"/>
<stop offset="0.73" stop-color="#A37334"/>
<stop offset="0.82" stop-color="#8E6432"/>
<stop offset="0.91" stop-color="#825C31"/>
<stop offset="1" stop-color="#7E5931"/>
</linearGradient>
<linearGradient id="paint45_linear_2794_188" x1="21.6175" y1="291.576" x2="362.225" y2="316.836" gradientUnits="userSpaceOnUse">
<stop stop-color="#7E5931"/>
<stop offset="0.08" stop-color="#825C31"/>
<stop offset="0.17" stop-color="#8F6532"/>
<stop offset="0.26" stop-color="#A57434"/>
<stop offset="0.36" stop-color="#C38937"/>
<stop offset="0.46" stop-color="#EAA43A"/>
<stop offset="0.49" stop-color="#FBB03B"/>
<stop offset="0.54" stop-color="#E4A039"/>
<stop offset="0.63" stop-color="#C08736"/>
<stop offset="0.73" stop-color="#A37334"/>
<stop offset="0.82" stop-color="#8E6432"/>
<stop offset="0.91" stop-color="#825C31"/>
<stop offset="1" stop-color="#7E5931"/>
</linearGradient>
<linearGradient id="paint46_linear_2794_188" x1="21.5857" y1="291.981" x2="362.193" y2="317.241" gradientUnits="userSpaceOnUse">
<stop stop-color="#7E5931"/>
<stop offset="0.08" stop-color="#825C31"/>
<stop offset="0.17" stop-color="#8F6532"/>
<stop offset="0.26" stop-color="#A57434"/>
<stop offset="0.36" stop-color="#C38937"/>
<stop offset="0.46" stop-color="#EAA43A"/>
<stop offset="0.49" stop-color="#FBB03B"/>
<stop offset="0.54" stop-color="#E4A039"/>
<stop offset="0.63" stop-color="#C08736"/>
<stop offset="0.73" stop-color="#A37334"/>
<stop offset="0.82" stop-color="#8E6432"/>
<stop offset="0.91" stop-color="#825C31"/>
<stop offset="1" stop-color="#7E5931"/>
</linearGradient>
<linearGradient id="paint47_linear_2794_188" x1="21.7616" y1="289.606" x2="362.37" y2="314.866" gradientUnits="userSpaceOnUse">
<stop stop-color="#7E5931"/>
<stop offset="0.08" stop-color="#825C31"/>
<stop offset="0.17" stop-color="#8F6532"/>
<stop offset="0.26" stop-color="#A57434"/>
<stop offset="0.36" stop-color="#C38937"/>
<stop offset="0.46" stop-color="#EAA43A"/>
<stop offset="0.49" stop-color="#FBB03B"/>
<stop offset="0.54" stop-color="#E4A039"/>
<stop offset="0.63" stop-color="#C08736"/>
<stop offset="0.73" stop-color="#A37334"/>
<stop offset="0.82" stop-color="#8E6432"/>
<stop offset="0.91" stop-color="#825C31"/>
<stop offset="1" stop-color="#7E5931"/>
</linearGradient>
<linearGradient id="paint48_linear_2794_188" x1="21.8281" y1="288.709" x2="362.435" y2="313.968" gradientUnits="userSpaceOnUse">
<stop stop-color="#7E5931"/>
<stop offset="0.08" stop-color="#825C31"/>
<stop offset="0.17" stop-color="#8F6532"/>
<stop offset="0.26" stop-color="#A57434"/>
<stop offset="0.36" stop-color="#C38937"/>
<stop offset="0.46" stop-color="#EAA43A"/>
<stop offset="0.49" stop-color="#FBB03B"/>
<stop offset="0.54" stop-color="#E4A039"/>
<stop offset="0.63" stop-color="#C08736"/>
<stop offset="0.73" stop-color="#A37334"/>
<stop offset="0.82" stop-color="#8E6432"/>
<stop offset="0.91" stop-color="#825C31"/>
<stop offset="1" stop-color="#7E5931"/>
</linearGradient>
<linearGradient id="paint49_linear_2794_188" x1="21.8812" y1="287.986" x2="362.489" y2="313.246" gradientUnits="userSpaceOnUse">
<stop stop-color="#7E5931"/>
<stop offset="0.08" stop-color="#825C31"/>
<stop offset="0.17" stop-color="#8F6532"/>
<stop offset="0.26" stop-color="#A57434"/>
<stop offset="0.36" stop-color="#C38937"/>
<stop offset="0.46" stop-color="#EAA43A"/>
<stop offset="0.49" stop-color="#FBB03B"/>
<stop offset="0.54" stop-color="#E4A039"/>
<stop offset="0.63" stop-color="#C08736"/>
<stop offset="0.73" stop-color="#A37334"/>
<stop offset="0.82" stop-color="#8E6432"/>
<stop offset="0.91" stop-color="#825C31"/>
<stop offset="1" stop-color="#7E5931"/>
</linearGradient>
<linearGradient id="paint50_linear_2794_188" x1="21.951" y1="287.057" x2="362.558" y2="312.317" gradientUnits="userSpaceOnUse">
<stop stop-color="#7E5931"/>
<stop offset="0.08" stop-color="#825C31"/>
<stop offset="0.17" stop-color="#8F6532"/>
<stop offset="0.26" stop-color="#A57434"/>
<stop offset="0.36" stop-color="#C38937"/>
<stop offset="0.46" stop-color="#EAA43A"/>
<stop offset="0.49" stop-color="#FBB03B"/>
<stop offset="0.54" stop-color="#E4A039"/>
<stop offset="0.63" stop-color="#C08736"/>
<stop offset="0.73" stop-color="#A37334"/>
<stop offset="0.82" stop-color="#8E6432"/>
<stop offset="0.91" stop-color="#825C31"/>
<stop offset="1" stop-color="#7E5931"/>
</linearGradient>
<linearGradient id="paint51_linear_2794_188" x1="22.0329" y1="285.968" x2="362.64" y2="311.227" gradientUnits="userSpaceOnUse">
<stop stop-color="#7E5931"/>
<stop offset="0.08" stop-color="#825C31"/>
<stop offset="0.17" stop-color="#8F6532"/>
<stop offset="0.26" stop-color="#A57434"/>
<stop offset="0.36" stop-color="#C38937"/>
<stop offset="0.46" stop-color="#EAA43A"/>
<stop offset="0.49" stop-color="#FBB03B"/>
<stop offset="0.54" stop-color="#E4A039"/>
<stop offset="0.63" stop-color="#C08736"/>
<stop offset="0.73" stop-color="#A37334"/>
<stop offset="0.82" stop-color="#8E6432"/>
<stop offset="0.91" stop-color="#825C31"/>
<stop offset="1" stop-color="#7E5931"/>
</linearGradient>
<linearGradient id="paint52_linear_2794_188" x1="22.0923" y1="285.145" x2="362.7" y2="310.401" gradientUnits="userSpaceOnUse">
<stop stop-color="#7E5931"/>
<stop offset="0.08" stop-color="#825C31"/>
<stop offset="0.17" stop-color="#8F6532"/>
<stop offset="0.26" stop-color="#A57434"/>
<stop offset="0.36" stop-color="#C38937"/>
<stop offset="0.46" stop-color="#EAA43A"/>
<stop offset="0.49" stop-color="#FBB03B"/>
<stop offset="0.54" stop-color="#E4A039"/>
<stop offset="0.63" stop-color="#C08736"/>
<stop offset="0.73" stop-color="#A37334"/>
<stop offset="0.82" stop-color="#8E6432"/>
<stop offset="0.91" stop-color="#825C31"/>
<stop offset="1" stop-color="#7E5931"/>
</linearGradient>
<linearGradient id="paint53_linear_2794_188" x1="22.3082" y1="282.264" x2="362.915" y2="307.523" gradientUnits="userSpaceOnUse">
<stop stop-color="#7E5931"/>
<stop offset="0.08" stop-color="#825C31"/>
<stop offset="0.17" stop-color="#8F6532"/>
<stop offset="0.26" stop-color="#A57434"/>
<stop offset="0.36" stop-color="#C38937"/>
<stop offset="0.46" stop-color="#EAA43A"/>
<stop offset="0.49" stop-color="#FBB03B"/>
<stop offset="0.54" stop-color="#E4A039"/>
<stop offset="0.63" stop-color="#C08736"/>
<stop offset="0.73" stop-color="#A37334"/>
<stop offset="0.82" stop-color="#8E6432"/>
<stop offset="0.91" stop-color="#825C31"/>
<stop offset="1" stop-color="#7E5931"/>
</linearGradient>
<linearGradient id="paint54_linear_2794_188" x1="22.2214" y1="283.422" x2="362.829" y2="308.681" gradientUnits="userSpaceOnUse">
<stop stop-color="#7E5931"/>
<stop offset="0.08" stop-color="#825C31"/>
<stop offset="0.17" stop-color="#8F6532"/>
<stop offset="0.26" stop-color="#A57434"/>
<stop offset="0.36" stop-color="#C38937"/>
<stop offset="0.46" stop-color="#EAA43A"/>
<stop offset="0.49" stop-color="#FBB03B"/>
<stop offset="0.54" stop-color="#E4A039"/>
<stop offset="0.63" stop-color="#C08736"/>
<stop offset="0.73" stop-color="#A37334"/>
<stop offset="0.82" stop-color="#8E6432"/>
<stop offset="0.91" stop-color="#825C31"/>
<stop offset="1" stop-color="#7E5931"/>
</linearGradient>
<linearGradient id="paint55_linear_2794_188" x1="22.2769" y1="282.641" x2="362.886" y2="307.901" gradientUnits="userSpaceOnUse">
<stop stop-color="#7E5931"/>
<stop offset="0.08" stop-color="#825C31"/>
<stop offset="0.17" stop-color="#8F6532"/>
<stop offset="0.26" stop-color="#A57434"/>
<stop offset="0.36" stop-color="#C38937"/>
<stop offset="0.46" stop-color="#EAA43A"/>
<stop offset="0.49" stop-color="#FBB03B"/>
<stop offset="0.54" stop-color="#E4A039"/>
<stop offset="0.63" stop-color="#C08736"/>
<stop offset="0.73" stop-color="#A37334"/>
<stop offset="0.82" stop-color="#8E6432"/>
<stop offset="0.91" stop-color="#825C31"/>
<stop offset="1" stop-color="#7E5931"/>
</linearGradient>
<linearGradient id="paint56_linear_2794_188" x1="22.4498" y1="280.361" x2="363.056" y2="305.621" gradientUnits="userSpaceOnUse">
<stop stop-color="#7E5931"/>
<stop offset="0.08" stop-color="#825C31"/>
<stop offset="0.17" stop-color="#8F6532"/>
<stop offset="0.26" stop-color="#A57434"/>
<stop offset="0.36" stop-color="#C38937"/>
<stop offset="0.46" stop-color="#EAA43A"/>
<stop offset="0.49" stop-color="#FBB03B"/>
<stop offset="0.54" stop-color="#E4A039"/>
<stop offset="0.63" stop-color="#C08736"/>
<stop offset="0.73" stop-color="#A37334"/>
<stop offset="0.82" stop-color="#8E6432"/>
<stop offset="0.91" stop-color="#825C31"/>
<stop offset="1" stop-color="#7E5931"/>
</linearGradient>
<linearGradient id="paint57_linear_2794_188" x1="22.4955" y1="279.654" x2="363.108" y2="304.913" gradientUnits="userSpaceOnUse">
<stop stop-color="#7E5931"/>
<stop offset="0.08" stop-color="#825C31"/>
<stop offset="0.17" stop-color="#8F6532"/>
<stop offset="0.26" stop-color="#A57434"/>
<stop offset="0.36" stop-color="#C38937"/>
<stop offset="0.46" stop-color="#EAA43A"/>
<stop offset="0.49" stop-color="#FBB03B"/>
<stop offset="0.54" stop-color="#E4A039"/>
<stop offset="0.63" stop-color="#C08736"/>
<stop offset="0.73" stop-color="#A37334"/>
<stop offset="0.82" stop-color="#8E6432"/>
<stop offset="0.91" stop-color="#825C31"/>
<stop offset="1" stop-color="#7E5931"/>
</linearGradient>
<linearGradient id="paint58_linear_2794_188" x1="22.3888" y1="281.152" x2="362.996" y2="306.411" gradientUnits="userSpaceOnUse">
<stop stop-color="#7E5931"/>
<stop offset="0.08" stop-color="#825C31"/>
<stop offset="0.17" stop-color="#8F6532"/>
<stop offset="0.26" stop-color="#A57434"/>
<stop offset="0.36" stop-color="#C38937"/>
<stop offset="0.46" stop-color="#EAA43A"/>
<stop offset="0.49" stop-color="#FBB03B"/>
<stop offset="0.54" stop-color="#E4A039"/>
<stop offset="0.63" stop-color="#C08736"/>
<stop offset="0.73" stop-color="#A37334"/>
<stop offset="0.82" stop-color="#8E6432"/>
<stop offset="0.91" stop-color="#825C31"/>
<stop offset="1" stop-color="#7E5931"/>
</linearGradient>
<linearGradient id="paint59_linear_2794_188" x1="22.3402" y1="281.782" x2="362.952" y2="307.041" gradientUnits="userSpaceOnUse">
<stop stop-color="#7E5931"/>
<stop offset="0.08" stop-color="#825C31"/>
<stop offset="0.17" stop-color="#8F6532"/>
<stop offset="0.26" stop-color="#A57434"/>
<stop offset="0.36" stop-color="#C38937"/>
<stop offset="0.46" stop-color="#EAA43A"/>
<stop offset="0.49" stop-color="#FBB03B"/>
<stop offset="0.54" stop-color="#E4A039"/>
<stop offset="0.63" stop-color="#C08736"/>
<stop offset="0.73" stop-color="#A37334"/>
<stop offset="0.82" stop-color="#8E6432"/>
<stop offset="0.91" stop-color="#825C31"/>
<stop offset="1" stop-color="#7E5931"/>
</linearGradient>
<clipPath id="clip0_2794_188">
<rect width="354" height="310" fill="white"/>
</clipPath>
</defs>
</svg>
