<svg width="38" height="38" viewBox="0 0 38 38" fill="none" xmlns="http://www.w3.org/2000/svg">
<rect width="38" height="38" fill="#F3F3F3"/>
<g id="Yaway Luxury Guest House - Home / S - 720p" clip-path="url(#clip0_0_1)">
<rect width="1280" height="7116" transform="translate(-772 -1022)" fill="#F9F9F9"/>
<g id="Ellipse 814" filter="url(#filter0_f_0_1)">
<circle cx="275" cy="58" r="336" fill="#C38937" fill-opacity="0.1"/>
</g>
<g id="row 1">
<g id="facility 8">
<rect id="Rectangle 8" x="-108" y="-34" width="255" height="154" rx="4" fill="white" fill-opacity="0.41" stroke="url(#paint0_linear_0_1)" stroke-width="2"/>
<g id="Group 9">
<path id="Vector" d="M7.51901 12.2428L8.52259 11.2199C9.64197 10.1006 11.4947 10.1006 12.6527 11.2971L12.6913 11.355C13.637 12.32 14.8915 12.7832 16.2617 12.9183C18.1338 13.092 19.948 14.0956 21.1445 15.9097C22.4569 17.9941 22.4376 20.7732 21.0673 22.8383C20.5505 23.6556 19.8555 24.3454 19.0343 24.8561C18.2131 25.3668 17.2871 25.685 16.3255 25.7871C15.3639 25.8892 14.3916 25.7725 13.4815 25.4457C12.5715 25.1188 11.7471 24.5903 11.0701 23.8998C9.98936 22.8383 9.37177 21.468 9.21738 20.0399C9.06298 18.631 8.50329 17.2993 7.51901 16.315C6.39963 15.215 6.39963 13.3622 7.51901 12.2428ZM15.6249 27.7597C13.3668 27.7597 11.2631 26.8912 9.69987 25.2894C8.3489 23.8998 7.49971 22.1628 7.28742 20.2715C7.22952 19.6925 7.05582 18.9398 6.59263 18.245C5.43465 19.8469 4.73987 21.7768 4.73987 23.8998C4.73987 27.0649 6.28384 29.8634 8.65769 31.6196H33.6893V29.6897C33.6893 22.7418 29.0767 16.8554 22.7657 14.9255C24.4834 17.6274 24.4448 21.2364 22.6885 23.8998C21.1445 26.3122 18.4812 27.7597 15.6249 27.7597ZM25.5449 11.4708H27.9959C29.675 11.4708 31.1418 12.6481 31.1418 14.7518V16.1799H33.5542V14.25C33.5542 11.355 30.9874 9.15487 27.9959 9.15487H25.5449C23.943 9.15487 22.5727 7.5723 22.5727 5.95113C22.5727 4.32996 23.943 3.13339 25.5449 3.13339V0.740234C22.5727 0.740234 20.1796 3.13339 20.1796 6.10553C20.1796 9.07767 22.5727 11.4708 25.5449 11.4708ZM5.70485 11.4515C5.82064 11.2585 5.97504 11.0655 6.14874 10.8725L7.15232 9.86896C7.32601 9.69526 7.51901 9.56016 7.71201 9.42507L4.99076 6.66522C5.26096 6.14413 5.16446 5.46864 4.73987 5.02475C4.46349 4.75572 4.09303 4.60518 3.70734 4.60518C3.32164 4.60518 2.95118 4.75572 2.67481 5.02475C2.40461 5.29495 2.26951 5.62304 2.25021 5.97043C1.90282 5.98973 1.57473 6.12483 1.30453 6.39502C0.744843 6.95471 0.744843 7.8811 1.30453 8.46008C1.74842 8.88468 2.40461 8.98117 2.945 8.71098L5.70485 11.4515ZM32.512 5.35284C33.4963 4.36856 34.1139 3.03689 34.1139 1.55082H31.7014C31.7014 3.15269 30.3505 4.50366 28.7486 4.50366V6.89681C32.3383 6.89681 35.1561 9.83036 35.1561 13.4201V18.1099H37.5492V13.4201C37.5589 11.7366 37.0907 10.0849 36.199 8.65692C35.3074 7.22891 34.0289 6.08319 32.512 5.35284ZM6.66983 37.4095H33.6893C35.8316 37.4095 37.5492 35.6919 37.5492 33.5496H2.8099C2.8099 34.5733 3.21657 35.5551 3.94045 36.279C4.66432 37.0028 5.64611 37.4095 6.66983 37.4095Z" fill="#7C6A46"/>
</g>
</g>
</g>
</g>
<defs>
<filter id="filter0_f_0_1" x="-305.4" y="-522.4" width="1160.8" height="1160.8" filterUnits="userSpaceOnUse" color-interpolation-filters="sRGB">
<feFlood flood-opacity="0" result="BackgroundImageFix"/>
<feBlend mode="normal" in="SourceGraphic" in2="BackgroundImageFix" result="shape"/>
<feGaussianBlur stdDeviation="122.2" result="effect1_foregroundBlur_0_1"/>
</filter>
<linearGradient id="paint0_linear_0_1" x1="19.5" y1="-35" x2="19.5" y2="121" gradientUnits="userSpaceOnUse">
<stop stop-color="white"/>
<stop offset="1" stop-color="white" stop-opacity="0"/>
</linearGradient>
<clipPath id="clip0_0_1">
<rect width="1280" height="7116" fill="white" transform="translate(-772 -1022)"/>
</clipPath>
</defs>
</svg>
