<svg width="80" height="70" viewBox="0 0 80 70" fill="none" xmlns="http://www.w3.org/2000/svg">
<g clip-path="url(#clip0_2617_390)">
<path d="M57.4298 36.3944C52.656 32.2605 46.6092 29.854 40.2774 29.5682C33.9456 29.2823 27.7033 31.1341 22.5703 34.8208C24.6291 32.3824 27.2028 30.422 30.1096 29.0781C33.0164 27.7341 36.1854 27.0394 39.3928 27.043C46.8643 27.043 53.4633 30.7415 57.4298 36.3944Z" fill="url(#paint0_linear_2617_390)"/>
<path d="M30.1628 16.0269C30.1345 16.0269 30.1074 16.0157 30.0874 15.9959C30.0674 15.976 30.0562 15.9491 30.0562 15.9211V13.2054C30.0562 13.1773 30.0674 13.1504 30.0874 13.1306C30.1074 13.1108 30.1345 13.0996 30.1628 13.0996C30.1911 13.0996 30.2182 13.1108 30.2382 13.1306C30.2582 13.1504 30.2695 13.1773 30.2695 13.2054V15.9211C30.2695 15.9491 30.2582 15.976 30.2382 15.9959C30.2182 16.0157 30.1911 16.0269 30.1628 16.0269Z" fill="url(#paint1_linear_2617_390)"/>
<path d="M39.6716 2.92724C39.6433 2.92724 39.6162 2.9161 39.5962 2.89627C39.5762 2.87643 39.5649 2.84954 39.5649 2.82149V0.105753C39.5649 0.0777055 39.5762 0.0508073 39.5962 0.0309748C39.6162 0.0111423 39.6433 0 39.6716 0C39.6999 0 39.727 0.0111423 39.747 0.0309748C39.767 0.0508073 39.7783 0.0777055 39.7783 0.105753V2.82149C39.7783 2.84954 39.767 2.87643 39.747 2.89627C39.727 2.9161 39.6999 2.92724 39.6716 2.92724Z" fill="url(#paint2_linear_2617_390)"/>
<path d="M49.4812 16.1186C49.4529 16.1186 49.4258 16.1075 49.4058 16.0877C49.3857 16.0678 49.3745 16.0409 49.3745 16.0129V13.2972C49.3745 13.2691 49.3857 13.2422 49.4058 13.2224C49.4258 13.2025 49.4529 13.1914 49.4812 13.1914C49.5095 13.1914 49.5366 13.2025 49.5566 13.2224C49.5766 13.2422 49.5878 13.2691 49.5878 13.2972V16.0129C49.5878 16.0409 49.5766 16.0678 49.5566 16.0877C49.5366 16.1075 49.5095 16.1186 49.4812 16.1186Z" fill="url(#paint3_linear_2617_390)"/>
<path d="M27.5466 29.1299H28.6644C28.6644 29.1299 29.9792 27.7199 31.912 27.2137V25.3235H32.2797V23.8507H31.4263V24.3717H30.8347V24.0326H30.5062V23.7196H29.5974V24.4493H29.0285V24.0058H28.673V23.6152H27.5423V25.1536H26.6655V28.6991H27.5601L27.5466 29.1299Z" fill="url(#paint4_linear_2617_390)"/>
<path d="M29.2297 23.6164V18.8067H28.5854L30.1627 15.5996L31.491 18.7024H31.1098V20.7223H32.4901V21.4005H33.4103V20.7879H34.5935V21.4266H35.5926V20.7223H36.8157V23.512H35.6452V26.2884L32.03 27.1098V25.4671H32.4766V23.6813H31.8985V23.2188H31.2407V23.4796H30.5246V23.6164H29.2297Z" fill="url(#paint5_linear_2617_390)"/>
<path d="M52.0973 29.2189H50.9802C50.9802 29.2189 49.6654 27.8088 47.7326 27.3026V25.4118H47.3643V23.9418H48.2176V24.4635H48.8092V24.1244H49.1377V23.8114H50.0451V24.5418H50.614V24.0983H50.9695V23.707H52.1002V25.2454H52.9812V28.7909H52.0845L52.0973 29.2189Z" fill="url(#paint6_linear_2617_390)"/>
<path d="M50.4148 23.7075V18.8978H51.0591L49.4812 15.6914L48.1535 18.7935H48.5347V20.8141H47.1537V21.4916H46.2336V20.8789H45.0503V21.5177H44.0512V20.8141H42.8281V23.6038H43.9986V26.3802L47.6145 27.2009V25.5589H47.1672V23.773H47.7454V23.3106H48.4031V23.5707H49.1192V23.7075H50.4148Z" fill="url(#paint7_linear_2617_390)"/>
<path d="M35.7969 26.2578V23.7007H37.02V20.5281H35.7969V19.8181H36.097V18.7754H37.9024V19.5403H38.9286V18.7754H40.5847V19.5664H41.8291V18.7754H43.5998V19.5883H43.8892V20.6832H42.627V23.6809H43.7448V26.2578L41.4437 26.0167C41.4437 26.0167 41.5098 23.2403 40.3657 23.0055C39.1568 22.6664 38.3412 23.4743 38.2623 24.5044C38.1833 25.5344 38.1698 25.9511 38.1698 25.9511L35.7969 26.2578Z" fill="url(#paint8_linear_2617_390)"/>
<path d="M46.3522 21.1483V15.6914H44.7038V16.3689H43.81V15.6914H41.8993V16.4387H40.9699V15.6914H39.0065V16.4733H37.9377V15.6914H36.1145V16.5078H34.9746V15.6914H33.1343V21.0792H33.2865V20.6223H34.6987V21.2413H35.4617V20.6223H35.7035V19.7135H35.9851V18.6356H38.0096V19.3646H38.7349V18.6053H40.7181V19.3843H41.6646V18.5658H43.7496V19.4139H44.0112V20.6696H44.1499V21.3548H44.9129V20.7972H46.2341V21.1342L46.3522 21.1483Z" fill="url(#paint9_linear_2617_390)"/>
<path d="M37.836 15.5985H38.0629V16.3332H38.8714V15.5802H41.0907V16.3036H41.7556V15.5492H41.9419V14.2724C41.9419 14.2724 41.9725 13.6125 42.5001 13.5977C43.0278 13.5829 43.165 13.965 43.1721 14.2498C43.1807 14.5149 43.1721 15.4279 43.1721 15.5471H43.9216V16.2556H44.6007V15.6119H45.1788V11.7957H43.7296V12.5634H42.9346V8.84375H41.5039V9.52268H40.4977V8.84375H38.9262V9.53255H38.2314V8.84375H36.6499V12.5254H35.8421V11.8401H34.4199V15.6049L35.099 15.5985V16.3875H35.9914V15.5985H36.603M36.603 15.5626V14.2724C36.603 14.2724 36.6329 13.6125 37.1612 13.5977C37.6896 13.5829 37.8268 13.965 37.8339 14.2498C37.841 14.5347 37.8339 15.5605 37.8339 15.5605M40.7146 14.3154H39.0755V12.5987C39.0755 12.5987 39.116 11.7202 39.8214 11.7005C40.5268 11.6807 40.7075 12.1898 40.7167 12.5698C40.7259 12.9498 40.7167 14.3175 40.7167 14.3175L40.7146 14.3154Z" fill="url(#paint10_linear_2617_390)"/>
<path d="M38.3643 9.27167V6.95286H37.5259L39.6407 2.53027L41.9774 6.90351H41.3324V9.27167H40.5971V8.68016H38.7945V9.27167H38.3643Z" fill="url(#paint11_linear_2617_390)"/>
<path d="M7.14142 36.8166L6.13379 36.5169V36.2173H8.65321C8.98713 36.2115 9.32006 36.2552 9.64093 36.347C9.90606 36.4266 10.1575 36.5455 10.3869 36.6995C10.6015 36.8462 10.7919 37.0248 10.9515 37.229C11.117 37.4432 11.2589 37.6743 11.3746 37.9185L14.3612 43.8146L17.4253 37.1169L15.9135 36.5169V36.2173H19.7407V36.5169L18.1279 37.1148L14.6001 44.8115V49.6056L15.809 49.906V50.2056H10.0626V49.906L11.2715 49.6056V45.011L7.14142 36.8166Z" fill="url(#paint12_linear_2617_390)"/>
<path d="M21.0508 49.908V50.2076H17.3218V49.908L18.9346 49.3115L24.4811 36.0205H25.0856L30.827 49.6077L31.8353 49.908V50.2076H29.4176C28.6647 50.2076 28.0733 50.0377 27.6434 49.6979C27.237 49.387 26.9186 48.9773 26.7189 48.5085L25.6914 46.1115H20.8716L19.539 49.3115L21.0508 49.908ZM21.0714 45.6074H25.4859L23.2687 40.3578L21.0714 45.6074Z" fill="url(#paint13_linear_2617_390)"/>
<path d="M30.8266 36.7178L29.7173 36.5176V36.2179H32.135C32.9006 36.2179 33.502 36.3878 33.9391 36.7277C34.3491 37.0329 34.6665 37.4441 34.8564 37.9163L37.9006 45.6116L39.6783 40.4551L38.185 36.7185L37.0764 36.5183V36.2186H39.4942C40.2607 36.2186 40.8588 36.3886 41.2883 36.7284C41.6956 37.0389 42.0152 37.4483 42.2163 37.917L45.2619 45.6116L48.1639 37.1154L46.6521 36.5155V36.2158H50.3818V36.5155L48.769 37.1154L44.2329 50.4079H43.6264L39.9998 41.275L36.8752 50.4079H36.2708L30.8266 36.7178Z" fill="url(#paint14_linear_2617_390)"/>
<path d="M51.2886 49.908V50.2076H47.5596V49.908L49.1731 49.3115L54.7196 36.0205H55.3248L61.0697 49.6112L62.0781 49.9115V50.2111H59.6603C58.907 50.2111 58.3145 50.0412 57.8826 49.7014C57.4761 49.3907 57.1576 48.981 56.9582 48.512L55.9299 46.115H51.1072L49.7768 49.3115L51.2886 49.908ZM51.3092 45.6074H55.7237L53.5058 40.3578L51.3092 45.6074Z" fill="url(#paint15_linear_2617_390)"/>
<path d="M61.2676 36.8166L60.2593 36.5169V36.2173H62.7794C63.1133 36.2115 63.4463 36.2552 63.7671 36.347C64.0322 36.4268 64.2837 36.5456 64.5131 36.6995C64.7276 36.8462 64.9181 37.0248 65.0777 37.229C65.243 37.4433 65.3848 37.6745 65.5008 37.9185L68.4874 43.8146L71.5515 37.1169L70.0397 36.5169V36.2173H73.8697V36.5169L72.2541 37.1148L68.7285 44.8115V49.6056L69.9373 49.906V50.2056H64.1924V49.906L65.4012 49.6056V45.011L61.2676 36.8166Z" fill="url(#paint16_linear_2617_390)"/>
<path d="M3.80531 59.7036C3.76051 59.9328 3.53723 60.7005 3.46256 60.9297H-0.000488281V60.7224C0.677188 60.6561 0.736921 60.6195 0.736921 59.9913V57.0598C0.736921 56.4323 0.662256 56.3957 0.0663551 56.3365V56.1299H2.06312V56.3365C1.46722 56.3957 1.38544 56.4253 1.38544 57.0598V60.0653C1.38544 60.5158 1.44517 60.6195 1.8697 60.6293L2.45778 60.6371C2.83822 60.6371 2.94986 60.5927 3.12123 60.4079C3.30683 60.2162 3.46327 59.9208 3.57563 59.6472L3.80531 59.7036Z" fill="url(#paint17_linear_2617_390)"/>
<path d="M9.08629 56.3365C8.61768 56.3661 8.4463 56.4838 8.43137 56.8236C8.42355 56.9935 8.40862 57.3037 8.40862 57.9834V58.7808C8.40862 59.5337 8.31973 60.1097 7.88738 60.5602C7.53752 60.9219 7.03406 61.0326 6.5171 61.0326C6.08475 61.0326 5.62324 60.9445 5.29543 60.6935C4.84886 60.3537 4.63268 59.8475 4.63268 58.9796V57.0972C4.63268 56.4323 4.57295 56.3879 3.97705 56.3365V56.1299H5.93826V56.3365C5.34236 56.3731 5.28263 56.4323 5.28263 57.0972V58.9429C5.28263 60.0209 5.79675 60.6117 6.6906 60.6117C7.74801 60.6117 8.08293 59.9624 8.08293 58.7363V57.9841C8.08293 57.3044 8.06089 57.0239 8.04596 56.8243C8.02391 56.4923 7.85254 56.3668 7.30144 56.3372V56.1306H9.08843L9.08629 56.3365Z" fill="url(#paint18_linear_2617_390)"/>
<path d="M12.133 60.9293V60.722C12.5952 60.6705 12.64 60.5965 12.5056 60.3533C12.3342 60.0649 12.0078 59.5115 11.5449 58.7874C11.195 59.3268 10.8672 59.8358 10.6205 60.268C10.4491 60.5782 10.5088 60.66 11.008 60.7185V60.9257H9.27295V60.7185C9.72023 60.6748 9.92858 60.5634 10.1448 60.2905C10.4199 59.938 10.7179 59.508 11.3664 58.5181C10.9789 57.8977 10.6439 57.3739 10.3979 56.9826C10.0779 56.4891 9.98049 56.3918 9.43721 56.3325V56.126H11.2918V56.3325C10.8295 56.377 10.8146 56.458 10.9362 56.6576C11.1744 57.0707 11.4503 57.4994 11.7781 58.0013C12.0683 57.5579 12.3364 57.1377 12.5298 56.7979C12.709 56.4799 12.6564 56.3918 12.165 56.3325V56.126H13.8631V56.3325C13.3049 56.403 13.1705 56.4651 12.8505 56.9156C12.6044 57.2632 12.4558 57.4796 11.9417 58.2453C12.3442 58.8727 12.7239 59.4854 13.0738 60.0247C13.4293 60.5887 13.5801 60.667 14.1162 60.7185V60.9257L12.133 60.9293Z" fill="url(#paint19_linear_2617_390)"/>
<path d="M19.2977 56.3365C18.8284 56.3661 18.6577 56.4838 18.6428 56.8236C18.635 56.9935 18.62 57.3037 18.62 57.9834V58.7808C18.62 59.5337 18.5304 60.1097 18.0988 60.5602C17.7489 60.9219 17.2419 61.0326 16.7285 61.0326C16.2962 61.0326 15.8347 60.9445 15.5069 60.6935C15.0603 60.3537 14.8441 59.8475 14.8441 58.9796V57.0972C14.8441 56.4323 14.7844 56.3879 14.1885 56.3365V56.1299H16.1476V56.3365C15.5517 56.3731 15.4919 56.4323 15.4919 57.0972V58.9429C15.4919 60.0209 16.006 60.6117 16.8999 60.6117C17.9573 60.6117 18.2922 59.9624 18.2922 58.7363V57.9841C18.2922 57.3044 18.2702 57.0239 18.2552 56.8243C18.2325 56.4923 18.0618 56.3668 17.51 56.3372V56.1306H19.2977V56.3365Z" fill="url(#paint20_linear_2617_390)"/>
<path d="M24.1317 60.9876C24.0349 60.9876 23.9532 60.9806 23.8565 60.9728C23.3125 60.9362 23.0216 60.7959 22.6945 60.3383C22.4186 59.9618 22.1505 59.4965 21.9123 59.12C21.763 58.8831 21.6663 58.838 21.2866 58.838H21.0256V59.9971C21.0256 60.6245 21.1081 60.6619 21.704 60.7204V60.9277H19.7129V60.7204C20.3308 60.6541 20.3835 60.6245 20.3835 59.9971V57.0508C20.3835 56.4233 20.301 56.4008 19.7129 56.3345V56.1279H21.6122C22.1555 56.1279 22.521 56.1942 22.804 56.3789C23.1091 56.5707 23.3103 56.9027 23.3103 57.3533C23.3103 57.9878 22.9007 58.3875 22.3496 58.6223C22.4833 58.8514 22.804 59.3456 23.0273 59.6798C23.2046 59.9471 23.4011 60.2014 23.6154 60.4405C23.7574 60.6063 23.9473 60.7249 24.1594 60.7804L24.1317 60.9876ZM21.3833 58.5906C21.7708 58.5906 22.0161 58.532 22.2024 58.3791C22.4933 58.1675 22.612 57.8693 22.612 57.4703C22.612 56.6807 22.0837 56.3923 21.5098 56.3923C21.2965 56.3923 21.1671 56.4219 21.1152 56.4663C21.0483 56.5178 21.0256 56.5918 21.0256 56.7836V58.5927L21.3833 58.5906Z" fill="url(#paint21_linear_2617_390)"/>
<path d="M28.444 56.3365C27.9227 56.3957 27.8338 56.4775 27.5359 56.9491C27.2002 57.4885 26.925 57.9975 26.5603 58.6553C26.4806 58.7865 26.4415 58.938 26.4479 59.091V59.999C26.4479 60.6117 26.519 60.6561 27.2081 60.7224V60.9297H25.0705V60.7224C25.7482 60.6343 25.8001 60.6194 25.8001 59.999V59.0465C25.8001 58.8985 25.7702 58.835 25.6515 58.6179C25.3905 58.1385 25.1373 57.6732 24.7349 56.9787C24.4447 56.4768 24.3701 56.3879 23.8638 56.3365V56.1299H25.6963V56.3365C25.1601 56.407 25.1893 56.5064 25.3237 56.7595C25.6365 57.3277 25.9864 57.9925 26.2993 58.5467C26.5674 58.0532 26.9919 57.2466 27.2002 56.8405C27.3716 56.4711 27.3496 56.3978 26.7608 56.3386V56.132H28.444V56.3365Z" fill="url(#paint22_linear_2617_390)"/>
<path d="M35.0431 58.9125C34.5816 58.9717 34.5517 59.0161 34.5517 59.4518V60.0722C34.5459 60.3069 34.5609 60.5416 34.5965 60.7737C34.1343 60.8766 33.5299 61.0395 32.9055 61.0395C31.2153 61.0395 30.187 59.9982 30.187 58.5141C30.187 56.956 31.467 56.0254 32.9603 56.0254C33.7197 56.0254 34.278 56.1727 34.5091 56.2101C34.524 56.4829 34.561 56.9335 34.6207 57.3988L34.3974 57.4432C34.2189 56.8157 34.0028 56.5499 33.5334 56.3948C33.3082 56.3309 33.0751 56.2986 32.8408 56.2989C31.7031 56.2989 30.9642 57.0745 30.9642 58.4253C30.9642 59.5991 31.5744 60.7659 33.0193 60.7659C33.2372 60.7705 33.4535 60.7276 33.6529 60.6404C33.8093 60.5516 33.9061 60.4705 33.9061 60.1681V59.5625C33.9061 59.0231 33.8463 58.9639 33.131 58.9125V58.7009H35.0452L35.0431 58.9125Z" fill="url(#paint23_linear_2617_390)"/>
<path d="M40.6293 56.3365C40.1599 56.3661 39.9893 56.4838 39.9736 56.8236C39.9665 56.9935 39.9516 57.3037 39.9516 57.9834V58.7808C39.9516 59.5337 39.862 60.1097 39.4296 60.5602C39.0798 60.9219 38.5763 61.0326 38.0594 61.0326C37.6277 61.0326 37.1655 60.9445 36.8384 60.6935C36.3911 60.3537 36.1749 59.8475 36.1749 58.9796V57.0972C36.1749 56.4323 36.1159 56.3879 35.52 56.3365V56.1299H37.4784V56.3365C36.8825 56.3731 36.8235 56.4323 36.8235 57.0972V58.9429C36.8235 60.0209 37.3369 60.6117 38.2307 60.6117C39.2881 60.6117 39.6238 59.9624 39.6238 58.7363V57.9841C39.6238 57.3044 39.601 57.0239 39.5861 56.8243C39.564 56.4923 39.3927 56.3668 38.8416 56.3372V56.1306H40.6293V56.3365Z" fill="url(#paint24_linear_2617_390)"/>
<path d="M44.9124 59.7543C44.8676 59.9467 44.6663 60.7068 44.5917 60.9288H40.9722V60.7216C41.6648 60.6701 41.7167 60.6038 41.7167 59.9982V57.0815C41.7167 56.4245 41.6349 56.3871 41.0767 56.3356V56.1291H43.3565C44.0562 56.1291 44.3463 56.1213 44.4359 56.1143C44.4438 56.299 44.4736 56.8524 44.507 57.2423L44.283 57.2797C44.2326 57.0832 44.1576 56.8937 44.0598 56.7156C43.9403 56.4717 43.7696 56.4202 43.3223 56.4202H42.6148C42.3837 56.4202 42.3695 56.4421 42.3695 56.6564V58.2878H43.1958C43.7547 58.2878 43.7917 58.1771 43.8813 57.6752H44.1117V59.1966H43.8813C43.7846 58.665 43.7248 58.591 43.1887 58.591H42.3652V60.0603C42.3652 60.577 42.5288 60.6243 42.9014 60.6292H43.594C44.0484 60.6292 44.1223 60.5622 44.2866 60.3705C44.4288 60.2154 44.5845 59.9129 44.6884 59.6908L44.9124 59.7543Z" fill="url(#paint25_linear_2617_390)"/>
<path d="M48.0175 57.2515C47.891 56.7637 47.6826 56.2842 46.9822 56.2842C46.4012 56.2842 46.2 56.7073 46.2 57.0887C46.2 57.5984 46.5271 57.8571 47.1457 58.1744C48.0396 58.632 48.4257 58.9718 48.4257 59.6733C48.4257 60.4488 47.748 61.0396 46.7902 61.0396C46.3988 61.0303 46.0127 60.9475 45.6524 60.7957C45.5643 60.4305 45.4971 60.0607 45.4512 59.6881L45.6816 59.6289C45.8309 60.1224 46.1587 60.766 46.9331 60.766C47.4693 60.766 47.7971 60.3966 47.7971 59.92C47.7971 59.3511 47.492 59.1227 46.8364 58.768C46.0542 58.345 45.6147 57.9925 45.6147 57.3058C45.6147 56.6487 46.1658 56.0283 47.1493 56.0283C47.566 56.0283 47.9756 56.139 48.132 56.1693C48.1619 56.4351 48.1917 56.7333 48.2515 57.2106L48.0175 57.2515Z" fill="url(#paint26_linear_2617_390)"/>
<path d="M52.9783 57.2889C52.9235 57.0761 52.8435 56.8705 52.7401 56.6763C52.6206 56.4767 52.546 56.4253 52.1364 56.4253H51.3919V60.0209C51.3919 60.5969 51.4516 60.6787 52.1591 60.7224V60.9296H49.9917V60.7224C50.6843 60.6787 50.744 60.6046 50.744 60.0209V56.4253H50.0664C49.6568 56.4253 49.5373 56.469 49.4107 56.6911C49.3211 56.8384 49.2614 57.0161 49.1647 57.2889H48.9414C48.9862 56.8384 49.031 56.3724 49.053 55.96H49.2244C49.3361 56.1369 49.4178 56.1299 49.6269 56.1299H52.5758C52.7842 56.1299 52.8439 56.1003 52.9556 55.96H53.1348C53.1348 56.3068 53.1646 56.8384 53.2016 57.2671L52.9783 57.2889Z" fill="url(#paint27_linear_2617_390)"/>
<path d="M60.6866 56.3365C60.0686 56.3957 60.0089 56.4323 60.0089 57.0528V60.0138C60.0089 60.6343 60.0765 60.6561 60.6866 60.7189V60.9261H58.6905V60.7189C59.3092 60.6484 59.3689 60.6307 59.3689 60.0138V58.5333H56.8218V60.0138C56.8218 60.6265 56.8808 60.6484 57.4916 60.7189V60.9261H55.502V60.7189C56.105 60.6526 56.1718 60.6307 56.1718 60.0138V57.0528C56.1718 56.4323 56.105 56.3957 55.502 56.3365V56.1299H57.493V56.3365C56.8971 56.3879 56.8232 56.4394 56.8232 57.0528V58.2266H59.3703V57.0528C59.3703 56.4394 59.2878 56.3879 58.6919 56.3365V56.1299H60.688L60.6866 56.3365Z" fill="url(#paint28_linear_2617_390)"/>
<path d="M63.9123 56.0254C65.1859 56.0254 66.3251 56.9927 66.3251 58.4619C66.3251 60.0496 65.2378 61.0395 63.8675 61.0395C62.4375 61.0395 61.395 59.9615 61.395 58.5719C61.395 57.2514 62.3408 56.0254 63.9123 56.0254ZM63.763 56.2989C62.9289 56.2989 62.1694 56.9927 62.1694 58.3738C62.1694 59.7549 62.9289 60.7589 63.987 60.7589C64.8879 60.7589 65.5656 60.0941 65.5656 58.6692C65.5656 57.1182 64.7386 56.2989 63.763 56.2989Z" fill="url(#paint29_linear_2617_390)"/>
<path d="M72.1268 56.3365C71.6582 56.3661 71.4868 56.4838 71.4719 56.8236C71.4641 56.9935 71.4491 57.3037 71.4491 57.9834V58.7808C71.4491 59.5337 71.3603 60.1097 70.9279 60.5602C70.5781 60.9219 70.0746 61.0326 69.5576 61.0326C69.126 61.0326 68.6638 60.9445 68.336 60.6935C67.8894 60.3537 67.6732 59.8475 67.6732 58.9796V57.0972C67.6732 56.4323 67.6135 56.3879 67.0176 56.3365V56.1299H68.9767V56.3365C68.3808 56.3731 68.321 56.4323 68.321 57.0972V58.9429C68.321 60.0209 68.8351 60.6117 69.729 60.6117C70.7864 60.6117 71.122 59.9624 71.122 58.7363V57.9841C71.122 57.3044 71.0993 57.0239 71.0844 56.8243C71.0623 56.4923 70.8909 56.3668 70.3398 56.3372V56.1306H72.1268V56.3365Z" fill="url(#paint30_linear_2617_390)"/>
<path d="M75.084 57.2515C74.9574 56.7637 74.749 56.2842 74.0486 56.2842C73.4676 56.2842 73.2664 56.7073 73.2664 57.0887C73.2664 57.5984 73.5942 57.8571 74.2129 58.1744C75.106 58.632 75.4929 58.9718 75.4929 59.6733C75.4929 60.4488 74.8152 61.0396 73.8573 61.0396C73.4659 61.0302 73.0799 60.9474 72.7196 60.7957C72.6321 60.4304 72.5652 60.0607 72.519 59.6881L72.7494 59.6289C72.8988 60.1224 73.2266 60.766 74.001 60.766C74.5371 60.766 74.865 60.3966 74.865 59.92C74.865 59.3511 74.5592 59.1227 73.9043 58.768C73.1221 58.345 72.6826 57.9925 72.6826 57.3058C72.6826 56.6487 73.2337 56.0283 74.2171 56.0283C74.6338 56.0283 75.0434 56.139 75.1999 56.1693C75.2297 56.4351 75.2596 56.7333 75.3193 57.2106L75.084 57.2515Z" fill="url(#paint31_linear_2617_390)"/>
<path d="M79.9998 59.7543C79.955 59.9467 79.7537 60.7068 79.6791 60.9288H76.0596V60.7216C76.7522 60.6701 76.8048 60.6038 76.8048 59.9982V57.0815C76.8048 56.4245 76.7223 56.3871 76.1648 56.3356V56.1291H78.4403C79.14 56.1291 79.4309 56.1213 79.5205 56.1143C79.5276 56.299 79.5575 56.8524 79.5873 57.2423L79.364 57.2797C79.313 57.0832 79.2378 56.8938 79.1401 56.7156C79.0213 56.4717 78.8499 56.4202 78.4034 56.4202H77.6958C77.4647 56.4202 77.4498 56.4421 77.4498 56.6564V58.2878H78.2761C78.835 58.2878 78.872 58.1771 78.9616 57.6752H79.1927V59.1966H78.968C78.8713 58.665 78.8115 58.591 78.2754 58.591H77.4562V60.0603C77.4562 60.577 77.6197 60.6243 77.9923 60.6292H78.6835C79.1379 60.6292 79.2126 60.5622 79.3761 60.3705C79.5184 60.2154 79.6741 59.9129 79.7786 59.6908L79.9998 59.7543Z" fill="url(#paint32_linear_2617_390)"/>
<path d="M8.51247 68.6537H7.2588L7.01987 69.2269H6.37988L7.58377 66.5479H8.20101L9.40987 69.2269H8.75353L8.51247 68.6537ZM8.31549 68.1828L7.88883 67.1584L7.46217 68.1828H8.31549Z" fill="url(#paint33_linear_2617_390)"/>
<path d="M10.7808 66.5508H11.4058V68.7229H12.7569V69.2277H10.7808V66.5508Z" fill="url(#paint34_linear_2617_390)"/>
<path d="M15.1436 67.1699V69.2272H14.5747V68.9818C14.4966 69.0703 14.3994 69.1402 14.2903 69.1863C14.1767 69.2339 14.0545 69.2579 13.9312 69.2568C13.6586 69.2568 13.4426 69.179 13.2834 69.0234C13.1241 68.8678 13.0444 68.6371 13.0444 68.3311V67.1699H13.646V68.2444C13.646 68.5757 13.7861 68.7402 14.0663 68.7379C14.1309 68.7404 14.1954 68.7291 14.2553 68.7048C14.3151 68.6805 14.369 68.6437 14.4133 68.5969C14.5008 68.5045 14.5449 68.3656 14.5449 68.1823V67.1699H15.1436Z" fill="url(#paint35_linear_2617_390)"/>
<path d="M17.0224 69.2272L16.5673 68.5926L16.0966 69.2272H15.4409L16.2395 68.1908L15.4672 67.1699H16.1421L16.5822 67.7706L17.0331 67.1699H17.6731L16.9015 68.176L17.7036 69.2272H17.0224Z" fill="url(#paint36_linear_2617_390)"/>
<path d="M20.0509 67.1699V69.2272H19.482V68.9818C19.4041 69.0705 19.3068 69.1404 19.1976 69.1863C19.0852 69.2336 18.9642 69.2576 18.842 69.2568C18.569 69.2568 18.3535 69.1785 18.1935 69.0234C18.0335 68.8683 17.9546 68.6371 17.9546 68.3311V67.1699H18.5562V68.2444C18.5562 68.5757 18.6965 68.7402 18.9771 68.7379C19.0418 68.7404 19.1062 68.7291 19.1661 68.7047C19.226 68.6804 19.2799 68.6436 19.3242 68.5969C19.4116 68.5045 19.455 68.3656 19.455 68.1823V67.1699H20.0509Z" fill="url(#paint37_linear_2617_390)"/>
<path d="M21.476 67.2196C21.6102 67.1664 21.7538 67.1402 21.8984 67.1427V67.6941C21.8315 67.6884 21.7867 67.6863 21.7633 67.6863C21.6897 67.6817 21.616 67.6918 21.5465 67.716C21.477 67.7402 21.4131 67.7781 21.3586 67.8273C21.2605 67.9232 21.2115 68.0663 21.2115 68.2581V69.2289H20.6099V67.1702H21.1851V67.4417C21.2591 67.342 21.3599 67.2651 21.476 67.2196Z" fill="url(#paint38_linear_2617_390)"/>
<path d="M24.3906 67.1699L23.4526 69.3555C23.3578 69.5933 23.2393 69.7604 23.0971 69.8568C22.9474 69.9562 22.7702 70.007 22.5901 70.002C22.4812 70.002 22.3731 69.9854 22.2694 69.9526C22.1743 69.924 22.0864 69.876 22.0112 69.8116L22.231 69.3886C22.278 69.4299 22.3322 69.4624 22.391 69.4845C22.4481 69.5067 22.5088 69.5184 22.5702 69.519C22.6418 69.5224 22.7125 69.5015 22.7707 69.4598C22.8335 69.4064 22.8823 69.3386 22.9129 69.2624L22.9207 69.2434L22.0219 67.1706H22.6427L23.2251 68.5666L23.8117 67.1706L24.3906 67.1699Z" fill="url(#paint39_linear_2617_390)"/>
<path d="M25.9201 69.1931C25.7811 69.162 25.6482 69.1084 25.5269 69.0344L25.7274 68.6065C25.8317 68.6695 25.9448 68.717 26.063 68.7475C26.1882 68.7839 26.318 68.8026 26.4484 68.8032C26.703 68.8032 26.8303 68.7407 26.8303 68.6156C26.8297 68.5861 26.8192 68.5576 26.8004 68.5347C26.7816 68.5119 26.7555 68.4959 26.7265 68.4894C26.6224 68.4567 26.5152 68.4349 26.4065 68.4246C26.2643 68.405 26.1236 68.3755 25.9855 68.3365C25.8768 68.3034 25.7787 68.2426 25.7011 68.1602C25.6144 68.0609 25.5707 67.9317 25.5795 67.8006C25.5778 67.676 25.6178 67.5542 25.6933 67.4545C25.7795 67.3468 25.8946 67.2654 26.0253 67.2197C26.1901 67.16 26.3647 67.1313 26.5402 67.1351C26.6875 67.1353 26.8344 67.1514 26.9782 67.183C27.1046 67.208 27.2262 67.2525 27.3387 67.3149L27.1382 67.7379C26.9558 67.6358 26.7496 67.5831 26.5402 67.5849C26.4408 67.5791 26.3415 67.5972 26.2508 67.6378C26.2229 67.6497 26.199 67.6694 26.182 67.6944C26.165 67.7194 26.1555 67.7486 26.1548 67.7788C26.1543 67.8094 26.1643 67.8394 26.1832 67.8637C26.202 67.888 26.2286 67.9053 26.2586 67.9127C26.3669 67.9461 26.4781 67.9697 26.5907 67.9832C26.7312 68.005 26.8703 68.0349 27.0074 68.0728C27.1161 68.1048 27.2142 68.1649 27.2918 68.2469C27.3765 68.3445 27.4193 68.471 27.4113 68.5994C27.4125 68.7226 27.3717 68.8427 27.2954 68.94C27.2071 69.0471 27.09 69.1273 26.9576 69.1712C26.7886 69.2296 26.6103 69.2575 26.4314 69.2537C26.259 69.2553 26.0872 69.2349 25.9201 69.1931Z" fill="url(#paint40_linear_2617_390)"/>
<path d="M29.116 69.1275C29.0504 69.174 28.9762 69.2073 28.8977 69.2255C28.8088 69.2473 28.7176 69.2582 28.6261 69.258C28.3796 69.258 28.1885 69.1954 28.0529 69.0704C27.9178 68.9456 27.8503 68.7616 27.8503 68.5198V67.6738H27.5303V67.219H27.8503V66.7178H28.4526V67.219H28.9695V67.678H28.4526V68.5156C28.4479 68.5887 28.4721 68.6608 28.5201 68.7165C28.5451 68.7409 28.5749 68.7599 28.6078 68.772C28.6406 68.7842 28.6757 68.7893 28.7107 68.787C28.7981 68.7895 28.8838 68.7627 28.9539 68.7109L29.116 69.1275Z" fill="url(#paint41_linear_2617_390)"/>
<path d="M31.0333 67.3669C31.2054 67.5188 31.2914 67.7477 31.2914 68.0536V69.2275H30.7282V68.9716C30.6149 69.1629 30.4042 69.2585 30.0961 69.2585C29.9536 69.262 29.8121 69.2346 29.6815 69.1781C29.5723 69.1315 29.4792 69.0543 29.4134 68.9561C29.351 68.8606 29.3186 68.749 29.3203 68.6353C29.3167 68.548 29.3348 68.4612 29.3728 68.3825C29.4109 68.3037 29.4678 68.2353 29.5386 68.1834C29.6836 68.0738 29.9081 68.0191 30.212 68.0191H30.6898C30.6933 67.9634 30.6844 67.9077 30.6637 67.8558C30.6431 67.8039 30.6112 67.7571 30.5704 67.7187C30.4686 67.6422 30.3423 67.6049 30.2148 67.6137C30.104 67.6136 29.9938 67.6309 29.8884 67.6652C29.7901 67.6958 29.6982 67.7435 29.6168 67.8062L29.4035 67.3895C29.5273 67.3056 29.665 67.2435 29.8102 67.2062C29.969 67.1624 30.1332 67.1404 30.298 67.1406C30.6156 67.1397 30.8607 67.2151 31.0333 67.3669ZM30.5206 68.7861C30.6007 68.738 30.6608 68.663 30.6898 68.5746V68.3631H30.2774C30.0304 68.3631 29.9069 68.4435 29.9069 68.6043C29.9055 68.6395 29.9131 68.6746 29.9288 68.7062C29.9446 68.7379 29.9681 68.7651 29.9972 68.7854C30.0702 68.8353 30.1576 68.86 30.2461 68.8559C30.3423 68.858 30.4373 68.8339 30.5206 68.7861Z" fill="url(#paint42_linear_2617_390)"/>
<path d="M33.8567 67.1699L32.9194 69.3555C32.8246 69.5933 32.7061 69.7604 32.5639 69.8568C32.4142 69.9562 32.237 70.007 32.0569 70.002C31.9483 70.002 31.8403 69.9854 31.7369 69.9526C31.6415 69.9242 31.5533 69.8762 31.478 69.8116L31.6978 69.3886C31.7452 69.4298 31.7996 69.4622 31.8585 69.4845C31.9156 69.5067 31.9763 69.5184 32.0377 69.519C32.1093 69.5224 32.18 69.5015 32.2382 69.4598C32.3008 69.4062 32.3495 69.3385 32.3804 69.2624L32.3882 69.2434L31.4894 67.1706H32.1066L32.6897 68.5666L33.2757 67.1706L33.8567 67.1699Z" fill="url(#paint43_linear_2617_390)"/>
<path d="M35.2264 66.7868C35.1935 66.7566 35.1673 66.72 35.1493 66.6792C35.1313 66.6384 35.1221 66.5944 35.1221 66.5499C35.1221 66.5055 35.1313 66.4615 35.1493 66.4207C35.1673 66.3799 35.1935 66.3433 35.2264 66.3131C35.3003 66.2472 35.3974 66.2128 35.4967 66.2172C35.5949 66.2128 35.6913 66.2456 35.7662 66.3088C35.7997 66.3371 35.8265 66.3723 35.8445 66.4121C35.8626 66.4518 35.8715 66.4951 35.8707 66.5387C35.8719 66.5848 35.8633 66.6307 35.8452 66.6732C35.8272 66.7158 35.8003 66.754 35.7662 66.7854C35.6903 66.8479 35.5949 66.882 35.4963 66.882C35.3977 66.882 35.3023 66.8479 35.2264 66.7854V66.7868ZM35.1951 67.1697H35.7974V69.2269H35.1951V67.1697Z" fill="url(#paint44_linear_2617_390)"/>
<path d="M38.2409 67.3686C38.3997 67.5219 38.4788 67.7489 38.4784 68.0497V69.2271H37.8768V68.1413C37.887 68.0106 37.8485 67.8807 37.7687 67.7761C37.7286 67.7346 37.6798 67.7023 37.6257 67.6815C37.5717 67.6607 37.5137 67.6518 37.4558 67.6556C37.3888 67.6527 37.3219 67.6637 37.2594 67.688C37.1969 67.7123 37.1403 67.7493 37.0931 67.7966C37.0035 67.8897 36.958 68.0278 36.958 68.2111V69.2285H36.3564V67.1698H36.9317V67.4109C37.0138 67.3224 37.1152 67.2536 37.2283 67.21C37.3524 67.1619 37.4847 67.1379 37.6179 67.1395C37.7319 67.1345 37.8458 67.1521 37.9528 67.1915C38.0598 67.2309 38.1578 67.2911 38.2409 67.3686Z" fill="url(#paint45_linear_2617_390)"/>
<path d="M42.174 67.1699L41.2368 69.3555C41.142 69.5933 41.0235 69.7604 40.8813 69.8568C40.7316 69.9562 40.5544 70.007 40.3742 70.002C40.2656 70.002 40.1577 69.9854 40.0543 69.9526C39.9589 69.9242 39.8707 69.8762 39.7954 69.8116L40.0151 69.3886C40.0622 69.4299 40.1164 69.4624 40.1751 69.4845C40.2325 69.5067 40.2935 69.5184 40.355 69.519C40.4267 69.5221 40.4973 69.5013 40.5556 69.4598C40.6169 69.4058 40.6644 69.3382 40.6942 69.2624L40.7021 69.2434L39.8032 67.1706H40.4269L41.01 68.5666L41.5959 67.1706L42.174 67.1699Z" fill="url(#paint46_linear_2617_390)"/>
<path d="M42.762 69.1229C42.5936 69.0375 42.4527 68.9071 42.3552 68.7464C42.2588 68.5799 42.208 68.3913 42.208 68.1993C42.208 68.0073 42.2588 67.8187 42.3552 67.6522C42.4529 67.4917 42.5937 67.3613 42.762 67.2757C42.9446 67.1862 43.1456 67.1396 43.3493 67.1396C43.5531 67.1396 43.7541 67.1862 43.9367 67.2757C44.104 67.3618 44.2441 67.4921 44.3413 67.6522C44.4378 67.8187 44.4885 68.0073 44.4885 68.1993C44.4885 68.3913 44.4378 68.5799 44.3413 68.7464C44.2443 68.9067 44.1042 69.037 43.9367 69.1229C43.7541 69.2124 43.5531 69.2589 43.3493 69.2589C43.1456 69.2589 42.9446 69.2124 42.762 69.1229ZM43.7305 68.6146C43.8261 68.4971 43.8783 68.3506 43.8783 68.1996C43.8783 68.0487 43.8261 67.9022 43.7305 67.7847C43.6289 67.6854 43.492 67.6297 43.3493 67.6297C43.2066 67.6297 43.0697 67.6854 42.9682 67.7847C42.8711 67.9016 42.8181 68.0483 42.8181 68.1996C42.8181 68.351 42.8711 68.4977 42.9682 68.6146C43.0699 68.7136 43.2068 68.7691 43.3493 68.7691C43.4919 68.7691 43.6288 68.7136 43.7305 68.6146Z" fill="url(#paint47_linear_2617_390)"/>
<path d="M46.9801 67.1699V69.2272H46.4112V68.9818C46.3331 69.0703 46.2359 69.1402 46.1268 69.1863C46.0143 69.2335 45.8934 69.2574 45.7712 69.2568C45.4987 69.2568 45.2827 69.179 45.1234 69.0234C44.9641 68.8678 44.8843 68.6371 44.8838 68.3311V67.1699H45.4861V68.2444C45.4861 68.5757 45.6262 68.7402 45.9063 68.7379C45.971 68.7404 46.0355 68.7291 46.0953 68.7048C46.1552 68.6805 46.2091 68.6437 46.2534 68.5969C46.3408 68.5045 46.3849 68.3656 46.3849 68.1823V67.1699H46.9801Z" fill="url(#paint48_linear_2617_390)"/>
<path d="M48.4059 67.2196C48.54 67.1662 48.6837 67.1401 48.8282 67.1428V67.6941C48.7614 67.6884 48.7159 67.6863 48.6931 67.6863C48.6195 67.6817 48.5457 67.6918 48.476 67.7161C48.4064 67.7403 48.3424 67.7781 48.2878 67.8273C48.1904 67.9232 48.1413 68.0663 48.1413 68.2581V69.2289H47.5376V67.1703H48.1122V67.4417C48.187 67.3417 48.2888 67.2647 48.4059 67.2196Z" fill="url(#paint49_linear_2617_390)"/>
<path d="M50.6928 69.123C50.5245 69.0377 50.3836 68.9072 50.2861 68.7465C50.1901 68.5799 50.1396 68.3913 50.1396 68.1995C50.1396 68.0076 50.1901 67.819 50.2861 67.6524C50.3838 67.4918 50.5246 67.3615 50.6928 67.2759C50.8749 67.1835 51.0771 67.1367 51.2816 67.1398C51.4853 67.1366 51.6866 67.1833 51.8676 67.2759C52.0351 67.3619 52.1754 67.4922 52.2729 67.6524C52.3689 67.819 52.4193 68.0076 52.4193 68.1995C52.4193 68.3913 52.3689 68.5799 52.2729 68.7465C52.1756 68.9069 52.0353 69.0372 51.8676 69.123C51.6867 69.2159 51.4853 69.2627 51.2816 69.2591C51.0771 69.2625 50.8748 69.2158 50.6928 69.123ZM51.6614 68.6147C51.7575 68.4974 51.81 68.3509 51.81 68.1998C51.81 68.0487 51.7575 67.9022 51.6614 67.7849C51.6128 67.7338 51.5539 67.6935 51.4884 67.6667C51.4229 67.64 51.3524 67.6274 51.2816 67.6298C51.2106 67.6276 51.1398 67.6403 51.074 67.667C51.0082 67.6937 50.9489 67.7339 50.8998 67.7849C50.8024 67.9016 50.7491 68.0483 50.7491 68.1998C50.7491 68.3513 50.8024 68.498 50.8998 68.6147C50.949 68.6655 51.0084 68.7054 51.0742 68.732C51.14 68.7586 51.2106 68.7712 51.2816 68.7691C51.3525 68.7716 51.4231 68.7591 51.4888 68.7323C51.5544 68.7056 51.6135 68.6652 51.6621 68.614L51.6614 68.6147Z" fill="url(#paint50_linear_2617_390)"/>
<path d="M56.0959 67.1699L55.3436 69.2272H54.7655L54.2983 67.9497L53.8162 69.2272H53.2373L52.4893 67.1699H53.0581L53.5481 68.5616L54.0572 67.1699H54.5664L55.0641 68.5616L55.569 67.1699H56.0959Z" fill="url(#paint51_linear_2617_390)"/>
<path d="M58.2619 67.3686C58.4197 67.5219 58.4989 67.7489 58.4994 68.0497V69.2271H57.8978V68.1413C57.908 68.0106 57.8695 67.8807 57.7897 67.7761C57.7496 67.7346 57.7008 67.7023 57.6467 67.6815C57.5927 67.6607 57.5347 67.6518 57.4768 67.6556C57.4098 67.6527 57.3429 67.6637 57.2804 67.688C57.2179 67.7123 57.1613 67.7493 57.1141 67.7966C57.0245 67.8897 56.979 68.0278 56.979 68.2111V69.2285H56.3774V67.1698H56.952V67.4109C57.0344 67.3225 57.1361 67.2538 57.2492 67.21C57.3733 67.1618 57.5057 67.1379 57.6389 67.1395C57.7529 67.1345 57.8668 67.1521 57.9738 67.1915C58.0808 67.2309 58.1788 67.2911 58.2619 67.3686Z" fill="url(#paint52_linear_2617_390)"/>
<path d="M60.7941 67.2189H61.3267V67.6779H60.8098V69.2289H60.2082V67.6779H59.8882V67.2189H60.2082V67.1273C60.2033 67.0247 60.2197 66.9222 60.2564 66.8261C60.2931 66.7301 60.3493 66.6425 60.4215 66.5689C60.5637 66.4279 60.7593 66.3623 61.0138 66.3623C61.1002 66.3618 61.1864 66.3713 61.2706 66.3905C61.3424 66.4061 61.411 66.434 61.4732 66.473L61.3146 66.9052C61.2434 66.8568 61.1585 66.8321 61.0722 66.8347C60.8896 66.8347 60.7981 66.9341 60.7977 67.1329L60.7941 67.2189Z" fill="url(#paint53_linear_2617_390)"/>
<path d="M63.622 68.3668H62.0519C62.0768 68.4893 62.1487 68.5975 62.2524 68.6686C62.3686 68.7459 62.5065 68.7849 62.6463 68.7799C62.7433 68.7811 62.8397 68.7649 62.9308 68.732C63.0179 68.6977 63.0972 68.6464 63.164 68.5811L63.484 68.9252C63.2887 69.1466 63.0043 69.2575 62.6307 69.258C62.4156 69.2623 62.2025 69.2157 62.0092 69.1219C61.8369 69.0384 61.6923 68.9078 61.5925 68.7454C61.497 68.579 61.4468 68.3908 61.4468 68.1994C61.4468 68.0079 61.497 67.8197 61.5925 67.6533C61.6869 67.4929 61.8246 67.3618 61.99 67.2747C62.1624 67.1863 62.3534 67.1397 62.5475 67.1387C62.7416 67.1377 62.9332 67.1824 63.1064 67.2691C63.269 67.354 63.4036 67.4834 63.494 67.642C63.5911 67.8142 63.6402 68.0089 63.6362 68.2061C63.6334 68.2138 63.6298 68.2674 63.622 68.3668ZM62.214 67.7048C62.1199 67.7848 62.0593 67.8966 62.044 68.0185H63.0666C63.0508 67.8974 62.9903 67.7864 62.8967 67.7069C62.8017 67.6284 62.681 67.5871 62.5575 67.5906C62.4329 67.5866 62.311 67.6271 62.214 67.7048Z" fill="url(#paint54_linear_2617_390)"/>
<path d="M66.056 68.3668H64.4859C64.5109 68.4893 64.5827 68.5975 64.6865 68.6686C64.8027 68.7459 64.9405 68.7849 65.0804 68.7799C65.1774 68.7811 65.2737 68.7649 65.3648 68.732C65.452 68.6977 65.5313 68.6464 65.5981 68.5811L65.9181 68.9252C65.7228 69.1466 65.4383 69.2575 65.0648 69.258C64.8496 69.2623 64.6365 69.2157 64.4433 69.1219C64.2709 69.0387 64.1265 68.908 64.0273 68.7454C63.9278 68.5802 63.8768 68.3907 63.8801 68.1983C63.8765 68.0072 63.9257 67.8188 64.0223 67.6533C64.1167 67.4929 64.2544 67.3618 64.4198 67.2747C64.5922 67.1863 64.7832 67.1397 64.9773 67.1387C65.1714 67.1377 65.3629 67.1824 65.5362 67.2691C65.6988 67.354 65.8333 67.4834 65.9238 67.642C66.0209 67.8142 66.07 68.0089 66.066 68.2061C66.0674 68.2138 66.0639 68.2674 66.056 68.3668ZM64.6481 67.7048C64.554 67.7848 64.4934 67.8966 64.4781 68.0185H65.5007C65.4849 67.8974 65.4243 67.7864 65.3307 67.7069C65.2357 67.6284 65.1151 67.5871 64.9915 67.5906C64.8669 67.5866 64.745 67.6271 64.6481 67.7048Z" fill="url(#paint55_linear_2617_390)"/>
<path d="M66.4688 66.3896H67.071V69.2274H66.4688V66.3896Z" fill="url(#paint56_linear_2617_390)"/>
<path d="M67.6615 66.7868C67.6286 66.7566 67.6023 66.7199 67.5844 66.6792C67.5664 66.6384 67.5571 66.5944 67.5571 66.5499C67.5571 66.5055 67.5664 66.4615 67.5844 66.4207C67.6023 66.3799 67.6286 66.3433 67.6615 66.3131C67.7354 66.2472 67.8324 66.2128 67.9317 66.2172C68.03 66.213 68.1262 66.2457 68.2012 66.3088C68.2347 66.337 68.2615 66.3723 68.2796 66.4121C68.2977 66.4518 68.3066 66.4951 68.3058 66.5387C68.307 66.5848 68.2983 66.6306 68.2803 66.6732C68.2623 66.7157 68.2353 66.754 68.2012 66.7854C68.1254 66.8478 68.0299 66.882 67.9314 66.882C67.8328 66.882 67.7373 66.8478 67.6615 66.7854V66.7868ZM67.6302 67.1697H68.2304V69.2269H67.6281L67.6302 67.1697Z" fill="url(#paint57_linear_2617_390)"/>
<path d="M70.6754 67.3685C70.8338 67.5218 70.9129 67.7488 70.9129 68.0496V69.227H70.3113V68.1412C70.3215 68.0105 70.2831 67.8806 70.2033 67.776C70.1631 67.7345 70.1143 67.7022 70.0603 67.6814C70.0062 67.6606 69.9482 67.6517 69.8904 67.6555C69.8233 67.6525 69.7564 67.6636 69.694 67.6879C69.6315 67.7121 69.5749 67.7491 69.5277 67.7965C69.4381 67.8895 69.3926 68.0277 69.3926 68.211V69.2284H68.791V67.1697H69.3684V67.4108C69.4509 67.3224 69.5525 67.2537 69.6657 67.2099C69.7898 67.1617 69.9221 67.1378 70.0554 67.1394C70.1689 67.1347 70.2822 67.1526 70.3887 67.1919C70.4952 67.2313 70.5927 67.2913 70.6754 67.3685Z" fill="url(#paint58_linear_2617_390)"/>
<path d="M73.6209 67.17V68.8832C73.6209 69.2592 73.5219 69.5398 73.3237 69.725C73.1255 69.9101 72.8364 70.0018 72.4562 69.9999C72.2642 70.0015 72.0729 69.9778 71.8873 69.9294C71.7253 69.889 71.573 69.8171 71.4393 69.7179L71.6789 69.2893C71.7775 69.3664 71.8899 69.4243 72.0103 69.4599C72.1402 69.501 72.2757 69.5221 72.4121 69.5226C72.6202 69.5226 72.7738 69.4756 72.8729 69.3816C72.9719 69.2876 73.0215 69.1466 73.0215 68.9586V68.8705C72.8646 69.0411 72.6458 69.1264 72.3651 69.1264C72.1832 69.1285 72.0037 69.0859 71.8425 69.0023C71.6869 68.9212 71.5568 68.7992 71.4663 68.6498C71.3754 68.4912 71.3276 68.3119 71.3276 68.1295C71.3276 67.9471 71.3754 67.7678 71.4663 67.6092C71.5568 67.4598 71.6869 67.3378 71.8425 67.2567C72.0036 67.1729 72.1832 67.13 72.3651 67.1319C72.6666 67.1319 72.8956 67.2301 73.0521 67.4266V67.1629L73.6209 67.17ZM72.8743 68.4989C72.9227 68.451 72.9611 68.3941 72.9873 68.3314C73.0135 68.2687 73.027 68.2016 73.027 68.1337C73.027 68.0659 73.0135 67.9987 72.9873 67.9361C72.9611 67.8734 72.9227 67.8165 72.8743 67.7685C72.7674 67.6729 72.6271 67.6223 72.4832 67.6275C72.3384 67.6224 72.1973 67.6729 72.0892 67.7685C72.0404 67.8162 72.0016 67.8731 71.9751 67.9358C71.9486 67.9985 71.935 68.0658 71.935 68.1337C71.935 68.2017 71.9486 68.269 71.9751 68.3317C72.0016 68.3944 72.0404 68.4512 72.0892 68.4989C72.1973 68.5945 72.3384 68.645 72.4832 68.6399C72.6271 68.6452 72.7674 68.5946 72.8743 68.4989Z" fill="url(#paint59_linear_2617_390)"/>
</g>
<defs>
<linearGradient id="paint0_linear_2617_390" x1="22.5703" y1="31.7187" x2="57.4298" y2="31.7187" gradientUnits="userSpaceOnUse">
<stop stop-color="#7E5931"/>
<stop offset="0.08" stop-color="#825C31"/>
<stop offset="0.17" stop-color="#8F6532"/>
<stop offset="0.26" stop-color="#A57434"/>
<stop offset="0.36" stop-color="#C38937"/>
<stop offset="0.46" stop-color="#EAA43A"/>
<stop offset="0.49" stop-color="#FBB03B"/>
<stop offset="0.54" stop-color="#E4A039"/>
<stop offset="0.63" stop-color="#C08736"/>
<stop offset="0.73" stop-color="#A37334"/>
<stop offset="0.82" stop-color="#8E6432"/>
<stop offset="0.91" stop-color="#825C31"/>
<stop offset="1" stop-color="#7E5931"/>
</linearGradient>
<linearGradient id="paint1_linear_2617_390" x1="22.5868" y1="5.5841" x2="47.605" y2="35.7483" gradientUnits="userSpaceOnUse">
<stop stop-color="#7E5931"/>
<stop offset="0.49" stop-color="#FBB03B"/>
<stop offset="1" stop-color="#7E5931"/>
</linearGradient>
<linearGradient id="paint2_linear_2617_390" x1="34.6833" y1="-4.44867" x2="59.7008" y2="25.7155" gradientUnits="userSpaceOnUse">
<stop stop-color="#7E5931"/>
<stop offset="0.49" stop-color="#FBB03B"/>
<stop offset="1" stop-color="#7E5931"/>
</linearGradient>
<linearGradient id="paint3_linear_2617_390" x1="33.9067" y1="-3.8045" x2="58.9242" y2="26.3604" gradientUnits="userSpaceOnUse">
<stop stop-color="#7E5931"/>
<stop offset="0.49" stop-color="#FBB03B"/>
<stop offset="1" stop-color="#7E5931"/>
</linearGradient>
<linearGradient id="paint4_linear_2617_390" x1="18.9978" y1="12.0353" x2="39.8953" y2="40.935" gradientUnits="userSpaceOnUse">
<stop stop-color="#7E5931"/>
<stop offset="0.08" stop-color="#825C31"/>
<stop offset="0.17" stop-color="#8F6532"/>
<stop offset="0.26" stop-color="#A57434"/>
<stop offset="0.36" stop-color="#C38937"/>
<stop offset="0.46" stop-color="#EAA43A"/>
<stop offset="0.49" stop-color="#FBB03B"/>
<stop offset="0.54" stop-color="#E4A039"/>
<stop offset="0.63" stop-color="#C08736"/>
<stop offset="0.73" stop-color="#A37334"/>
<stop offset="0.82" stop-color="#8E6432"/>
<stop offset="0.91" stop-color="#825C31"/>
<stop offset="1" stop-color="#7E5931"/>
</linearGradient>
<linearGradient id="paint5_linear_2617_390" x1="23.2871" y1="8.93435" x2="44.1839" y2="37.834" gradientUnits="userSpaceOnUse">
<stop stop-color="#7E5931"/>
<stop offset="0.08" stop-color="#825C31"/>
<stop offset="0.17" stop-color="#8F6532"/>
<stop offset="0.26" stop-color="#A57434"/>
<stop offset="0.36" stop-color="#C38937"/>
<stop offset="0.46" stop-color="#EAA43A"/>
<stop offset="0.49" stop-color="#FBB03B"/>
<stop offset="0.54" stop-color="#E4A039"/>
<stop offset="0.63" stop-color="#C08736"/>
<stop offset="0.73" stop-color="#A37334"/>
<stop offset="0.82" stop-color="#8E6432"/>
<stop offset="0.91" stop-color="#825C31"/>
<stop offset="1" stop-color="#7E5931"/>
</linearGradient>
<linearGradient id="paint6_linear_2617_390" x1="32.7114" y1="2.11933" x2="53.609" y2="31.019" gradientUnits="userSpaceOnUse">
<stop stop-color="#7E5931"/>
<stop offset="0.08" stop-color="#825C31"/>
<stop offset="0.17" stop-color="#8F6532"/>
<stop offset="0.26" stop-color="#A57434"/>
<stop offset="0.36" stop-color="#C38937"/>
<stop offset="0.46" stop-color="#EAA43A"/>
<stop offset="0.49" stop-color="#FBB03B"/>
<stop offset="0.54" stop-color="#E4A039"/>
<stop offset="0.63" stop-color="#C08736"/>
<stop offset="0.73" stop-color="#A37334"/>
<stop offset="0.82" stop-color="#8E6432"/>
<stop offset="0.91" stop-color="#825C31"/>
<stop offset="1" stop-color="#7E5931"/>
</linearGradient>
<linearGradient id="paint7_linear_2617_390" x1="32.786" y1="2.06619" x2="53.6829" y2="30.9659" gradientUnits="userSpaceOnUse">
<stop stop-color="#7E5931"/>
<stop offset="0.08" stop-color="#825C31"/>
<stop offset="0.17" stop-color="#8F6532"/>
<stop offset="0.26" stop-color="#A57434"/>
<stop offset="0.36" stop-color="#C38937"/>
<stop offset="0.46" stop-color="#EAA43A"/>
<stop offset="0.49" stop-color="#FBB03B"/>
<stop offset="0.54" stop-color="#E4A039"/>
<stop offset="0.63" stop-color="#C08736"/>
<stop offset="0.73" stop-color="#A37334"/>
<stop offset="0.82" stop-color="#8E6432"/>
<stop offset="0.91" stop-color="#825C31"/>
<stop offset="1" stop-color="#7E5931"/>
</linearGradient>
<linearGradient id="paint8_linear_2617_390" x1="27.4784" y1="5.90385" x2="48.3753" y2="34.8035" gradientUnits="userSpaceOnUse">
<stop stop-color="#7E5931"/>
<stop offset="0.08" stop-color="#825C31"/>
<stop offset="0.17" stop-color="#8F6532"/>
<stop offset="0.26" stop-color="#A57434"/>
<stop offset="0.36" stop-color="#C38937"/>
<stop offset="0.46" stop-color="#EAA43A"/>
<stop offset="0.49" stop-color="#FBB03B"/>
<stop offset="0.54" stop-color="#E4A039"/>
<stop offset="0.63" stop-color="#C08736"/>
<stop offset="0.73" stop-color="#A37334"/>
<stop offset="0.82" stop-color="#8E6432"/>
<stop offset="0.91" stop-color="#825C31"/>
<stop offset="1" stop-color="#7E5931"/>
</linearGradient>
<linearGradient id="paint9_linear_2617_390" x1="29.4913" y1="4.44845" x2="50.3882" y2="33.3481" gradientUnits="userSpaceOnUse">
<stop stop-color="#7E5931"/>
<stop offset="0.08" stop-color="#825C31"/>
<stop offset="0.17" stop-color="#8F6532"/>
<stop offset="0.26" stop-color="#A57434"/>
<stop offset="0.36" stop-color="#C38937"/>
<stop offset="0.46" stop-color="#EAA43A"/>
<stop offset="0.49" stop-color="#FBB03B"/>
<stop offset="0.54" stop-color="#E4A039"/>
<stop offset="0.63" stop-color="#C08736"/>
<stop offset="0.73" stop-color="#A37334"/>
<stop offset="0.82" stop-color="#8E6432"/>
<stop offset="0.91" stop-color="#825C31"/>
<stop offset="1" stop-color="#7E5931"/>
</linearGradient>
<linearGradient id="paint10_linear_2617_390" x1="31.7782" y1="2.79398" x2="52.6751" y2="31.6936" gradientUnits="userSpaceOnUse">
<stop stop-color="#7E5931"/>
<stop offset="0.08" stop-color="#825C31"/>
<stop offset="0.17" stop-color="#8F6532"/>
<stop offset="0.26" stop-color="#A57434"/>
<stop offset="0.36" stop-color="#C38937"/>
<stop offset="0.46" stop-color="#EAA43A"/>
<stop offset="0.49" stop-color="#FBB03B"/>
<stop offset="0.54" stop-color="#E4A039"/>
<stop offset="0.63" stop-color="#C08736"/>
<stop offset="0.73" stop-color="#A37334"/>
<stop offset="0.82" stop-color="#8E6432"/>
<stop offset="0.91" stop-color="#825C31"/>
<stop offset="1" stop-color="#7E5931"/>
</linearGradient>
<linearGradient id="paint11_linear_2617_390" x1="35.0022" y1="0.463156" x2="55.8991" y2="29.3628" gradientUnits="userSpaceOnUse">
<stop stop-color="#7E5931"/>
<stop offset="0.08" stop-color="#825C31"/>
<stop offset="0.17" stop-color="#8F6532"/>
<stop offset="0.26" stop-color="#A57434"/>
<stop offset="0.36" stop-color="#C38937"/>
<stop offset="0.46" stop-color="#EAA43A"/>
<stop offset="0.49" stop-color="#FBB03B"/>
<stop offset="0.54" stop-color="#E4A039"/>
<stop offset="0.63" stop-color="#C08736"/>
<stop offset="0.73" stop-color="#A37334"/>
<stop offset="0.82" stop-color="#8E6432"/>
<stop offset="0.91" stop-color="#825C31"/>
<stop offset="1" stop-color="#7E5931"/>
</linearGradient>
<linearGradient id="paint12_linear_2617_390" x1="12.3957" y1="30.4199" x2="14.8593" y2="57.9639" gradientUnits="userSpaceOnUse">
<stop stop-color="#7E5931"/>
<stop offset="0.08" stop-color="#825C31"/>
<stop offset="0.17" stop-color="#8F6532"/>
<stop offset="0.26" stop-color="#A57434"/>
<stop offset="0.36" stop-color="#C38937"/>
<stop offset="0.46" stop-color="#EAA43A"/>
<stop offset="0.49" stop-color="#FBB03B"/>
<stop offset="0.54" stop-color="#E4A039"/>
<stop offset="0.63" stop-color="#C08736"/>
<stop offset="0.73" stop-color="#A37334"/>
<stop offset="0.82" stop-color="#8E6432"/>
<stop offset="0.91" stop-color="#825C31"/>
<stop offset="1" stop-color="#7E5931"/>
</linearGradient>
<linearGradient id="paint13_linear_2617_390" x1="22.7083" y1="29.4977" x2="25.1712" y2="57.0416" gradientUnits="userSpaceOnUse">
<stop stop-color="#7E5931"/>
<stop offset="0.08" stop-color="#825C31"/>
<stop offset="0.17" stop-color="#8F6532"/>
<stop offset="0.26" stop-color="#A57434"/>
<stop offset="0.36" stop-color="#C38937"/>
<stop offset="0.46" stop-color="#EAA43A"/>
<stop offset="0.49" stop-color="#FBB03B"/>
<stop offset="0.54" stop-color="#E4A039"/>
<stop offset="0.63" stop-color="#C08736"/>
<stop offset="0.73" stop-color="#A37334"/>
<stop offset="0.82" stop-color="#8E6432"/>
<stop offset="0.91" stop-color="#825C31"/>
<stop offset="1" stop-color="#7E5931"/>
</linearGradient>
<linearGradient id="paint14_linear_2617_390" x1="39.2901" y1="28.015" x2="41.7537" y2="55.5597" gradientUnits="userSpaceOnUse">
<stop stop-color="#7E5931"/>
<stop offset="0.08" stop-color="#825C31"/>
<stop offset="0.17" stop-color="#8F6532"/>
<stop offset="0.26" stop-color="#A57434"/>
<stop offset="0.36" stop-color="#C38937"/>
<stop offset="0.46" stop-color="#EAA43A"/>
<stop offset="0.49" stop-color="#FBB03B"/>
<stop offset="0.54" stop-color="#E4A039"/>
<stop offset="0.63" stop-color="#C08736"/>
<stop offset="0.73" stop-color="#A37334"/>
<stop offset="0.82" stop-color="#8E6432"/>
<stop offset="0.91" stop-color="#825C31"/>
<stop offset="1" stop-color="#7E5931"/>
</linearGradient>
<linearGradient id="paint15_linear_2617_390" x1="52.7022" y1="26.8151" x2="55.1651" y2="54.3597" gradientUnits="userSpaceOnUse">
<stop stop-color="#7E5931"/>
<stop offset="0.08" stop-color="#825C31"/>
<stop offset="0.17" stop-color="#8F6532"/>
<stop offset="0.26" stop-color="#A57434"/>
<stop offset="0.36" stop-color="#C38937"/>
<stop offset="0.46" stop-color="#EAA43A"/>
<stop offset="0.49" stop-color="#FBB03B"/>
<stop offset="0.54" stop-color="#E4A039"/>
<stop offset="0.63" stop-color="#C08736"/>
<stop offset="0.73" stop-color="#A37334"/>
<stop offset="0.82" stop-color="#8E6432"/>
<stop offset="0.91" stop-color="#825C31"/>
<stop offset="1" stop-color="#7E5931"/>
</linearGradient>
<linearGradient id="paint16_linear_2617_390" x1="66.0853" y1="25.6188" x2="68.5482" y2="53.1634" gradientUnits="userSpaceOnUse">
<stop stop-color="#7E5931"/>
<stop offset="0.08" stop-color="#825C31"/>
<stop offset="0.17" stop-color="#8F6532"/>
<stop offset="0.26" stop-color="#A57434"/>
<stop offset="0.36" stop-color="#C38937"/>
<stop offset="0.46" stop-color="#EAA43A"/>
<stop offset="0.49" stop-color="#FBB03B"/>
<stop offset="0.54" stop-color="#E4A039"/>
<stop offset="0.63" stop-color="#C08736"/>
<stop offset="0.73" stop-color="#A37334"/>
<stop offset="0.82" stop-color="#8E6432"/>
<stop offset="0.91" stop-color="#825C31"/>
<stop offset="1" stop-color="#7E5931"/>
</linearGradient>
<linearGradient id="paint17_linear_2617_390" x1="-0.900739" y1="58.3641" x2="79.8455" y2="65.3949" gradientUnits="userSpaceOnUse">
<stop stop-color="#7E5931"/>
<stop offset="0.08" stop-color="#825C31"/>
<stop offset="0.17" stop-color="#8F6532"/>
<stop offset="0.26" stop-color="#A57434"/>
<stop offset="0.36" stop-color="#C38937"/>
<stop offset="0.46" stop-color="#EAA43A"/>
<stop offset="0.49" stop-color="#FBB03B"/>
<stop offset="0.54" stop-color="#E4A039"/>
<stop offset="0.63" stop-color="#C08736"/>
<stop offset="0.73" stop-color="#A37334"/>
<stop offset="0.82" stop-color="#8E6432"/>
<stop offset="0.91" stop-color="#825C31"/>
<stop offset="1" stop-color="#7E5931"/>
</linearGradient>
<linearGradient id="paint18_linear_2617_390" x1="-0.856285" y1="57.8459" x2="79.89" y2="64.8767" gradientUnits="userSpaceOnUse">
<stop stop-color="#7E5931"/>
<stop offset="0.08" stop-color="#825C31"/>
<stop offset="0.17" stop-color="#8F6532"/>
<stop offset="0.26" stop-color="#A57434"/>
<stop offset="0.36" stop-color="#C38937"/>
<stop offset="0.46" stop-color="#EAA43A"/>
<stop offset="0.49" stop-color="#FBB03B"/>
<stop offset="0.54" stop-color="#E4A039"/>
<stop offset="0.63" stop-color="#C08736"/>
<stop offset="0.73" stop-color="#A37334"/>
<stop offset="0.82" stop-color="#8E6432"/>
<stop offset="0.91" stop-color="#825C31"/>
<stop offset="1" stop-color="#7E5931"/>
</linearGradient>
<linearGradient id="paint19_linear_2617_390" x1="-0.822513" y1="57.4683" x2="79.923" y2="64.4999" gradientUnits="userSpaceOnUse">
<stop stop-color="#7E5931"/>
<stop offset="0.08" stop-color="#825C31"/>
<stop offset="0.17" stop-color="#8F6532"/>
<stop offset="0.26" stop-color="#A57434"/>
<stop offset="0.36" stop-color="#C38937"/>
<stop offset="0.46" stop-color="#EAA43A"/>
<stop offset="0.49" stop-color="#FBB03B"/>
<stop offset="0.54" stop-color="#E4A039"/>
<stop offset="0.63" stop-color="#C08736"/>
<stop offset="0.73" stop-color="#A37334"/>
<stop offset="0.82" stop-color="#8E6432"/>
<stop offset="0.91" stop-color="#825C31"/>
<stop offset="1" stop-color="#7E5931"/>
</linearGradient>
<linearGradient id="paint20_linear_2617_390" x1="-0.780147" y1="56.978" x2="79.9661" y2="64.0088" gradientUnits="userSpaceOnUse">
<stop stop-color="#7E5931"/>
<stop offset="0.08" stop-color="#825C31"/>
<stop offset="0.17" stop-color="#8F6532"/>
<stop offset="0.26" stop-color="#A57434"/>
<stop offset="0.36" stop-color="#C38937"/>
<stop offset="0.46" stop-color="#EAA43A"/>
<stop offset="0.49" stop-color="#FBB03B"/>
<stop offset="0.54" stop-color="#E4A039"/>
<stop offset="0.63" stop-color="#C08736"/>
<stop offset="0.73" stop-color="#A37334"/>
<stop offset="0.82" stop-color="#8E6432"/>
<stop offset="0.91" stop-color="#825C31"/>
<stop offset="1" stop-color="#7E5931"/>
</linearGradient>
<linearGradient id="paint21_linear_2617_390" x1="-0.755368" y1="56.6863" x2="79.9909" y2="63.7171" gradientUnits="userSpaceOnUse">
<stop stop-color="#7E5931"/>
<stop offset="0.08" stop-color="#825C31"/>
<stop offset="0.17" stop-color="#8F6532"/>
<stop offset="0.26" stop-color="#A57434"/>
<stop offset="0.36" stop-color="#C38937"/>
<stop offset="0.46" stop-color="#EAA43A"/>
<stop offset="0.49" stop-color="#FBB03B"/>
<stop offset="0.54" stop-color="#E4A039"/>
<stop offset="0.63" stop-color="#C08736"/>
<stop offset="0.73" stop-color="#A37334"/>
<stop offset="0.82" stop-color="#8E6432"/>
<stop offset="0.91" stop-color="#825C31"/>
<stop offset="1" stop-color="#7E5931"/>
</linearGradient>
<linearGradient id="paint22_linear_2617_390" x1="-0.710358" y1="56.1785" x2="80.0359" y2="63.2093" gradientUnits="userSpaceOnUse">
<stop stop-color="#7E5931"/>
<stop offset="0.08" stop-color="#825C31"/>
<stop offset="0.17" stop-color="#8F6532"/>
<stop offset="0.26" stop-color="#A57434"/>
<stop offset="0.36" stop-color="#C38937"/>
<stop offset="0.46" stop-color="#EAA43A"/>
<stop offset="0.49" stop-color="#FBB03B"/>
<stop offset="0.54" stop-color="#E4A039"/>
<stop offset="0.63" stop-color="#C08736"/>
<stop offset="0.73" stop-color="#A37334"/>
<stop offset="0.82" stop-color="#8E6432"/>
<stop offset="0.91" stop-color="#825C31"/>
<stop offset="1" stop-color="#7E5931"/>
</linearGradient>
<linearGradient id="paint23_linear_2617_390" x1="-0.664709" y1="55.6531" x2="80.0816" y2="62.684" gradientUnits="userSpaceOnUse">
<stop stop-color="#7E5931"/>
<stop offset="0.08" stop-color="#825C31"/>
<stop offset="0.17" stop-color="#8F6532"/>
<stop offset="0.26" stop-color="#A57434"/>
<stop offset="0.36" stop-color="#C38937"/>
<stop offset="0.46" stop-color="#EAA43A"/>
<stop offset="0.49" stop-color="#FBB03B"/>
<stop offset="0.54" stop-color="#E4A039"/>
<stop offset="0.63" stop-color="#C08736"/>
<stop offset="0.73" stop-color="#A37334"/>
<stop offset="0.82" stop-color="#8E6432"/>
<stop offset="0.91" stop-color="#825C31"/>
<stop offset="1" stop-color="#7E5931"/>
</linearGradient>
<linearGradient id="paint24_linear_2617_390" x1="-0.622262" y1="55.1661" x2="80.124" y2="62.1969" gradientUnits="userSpaceOnUse">
<stop stop-color="#7E5931"/>
<stop offset="0.08" stop-color="#825C31"/>
<stop offset="0.17" stop-color="#8F6532"/>
<stop offset="0.26" stop-color="#A57434"/>
<stop offset="0.36" stop-color="#C38937"/>
<stop offset="0.46" stop-color="#EAA43A"/>
<stop offset="0.49" stop-color="#FBB03B"/>
<stop offset="0.54" stop-color="#E4A039"/>
<stop offset="0.63" stop-color="#C08736"/>
<stop offset="0.73" stop-color="#A37334"/>
<stop offset="0.82" stop-color="#8E6432"/>
<stop offset="0.91" stop-color="#825C31"/>
<stop offset="1" stop-color="#7E5931"/>
</linearGradient>
<linearGradient id="paint25_linear_2617_390" x1="-0.592273" y1="54.8156" x2="80.154" y2="61.8464" gradientUnits="userSpaceOnUse">
<stop stop-color="#7E5931"/>
<stop offset="0.08" stop-color="#825C31"/>
<stop offset="0.17" stop-color="#8F6532"/>
<stop offset="0.26" stop-color="#A57434"/>
<stop offset="0.36" stop-color="#C38937"/>
<stop offset="0.46" stop-color="#EAA43A"/>
<stop offset="0.49" stop-color="#FBB03B"/>
<stop offset="0.54" stop-color="#E4A039"/>
<stop offset="0.63" stop-color="#C08736"/>
<stop offset="0.73" stop-color="#A37334"/>
<stop offset="0.82" stop-color="#8E6432"/>
<stop offset="0.91" stop-color="#825C31"/>
<stop offset="1" stop-color="#7E5931"/>
</linearGradient>
<linearGradient id="paint26_linear_2617_390" x1="-0.561892" y1="54.4639" x2="80.1844" y2="61.4947" gradientUnits="userSpaceOnUse">
<stop stop-color="#7E5931"/>
<stop offset="0.08" stop-color="#825C31"/>
<stop offset="0.17" stop-color="#8F6532"/>
<stop offset="0.26" stop-color="#A57434"/>
<stop offset="0.36" stop-color="#C38937"/>
<stop offset="0.46" stop-color="#EAA43A"/>
<stop offset="0.49" stop-color="#FBB03B"/>
<stop offset="0.54" stop-color="#E4A039"/>
<stop offset="0.63" stop-color="#C08736"/>
<stop offset="0.73" stop-color="#A37334"/>
<stop offset="0.82" stop-color="#8E6432"/>
<stop offset="0.91" stop-color="#825C31"/>
<stop offset="1" stop-color="#7E5931"/>
</linearGradient>
<linearGradient id="paint27_linear_2617_390" x1="-0.519782" y1="53.9866" x2="80.2265" y2="61.0174" gradientUnits="userSpaceOnUse">
<stop stop-color="#7E5931"/>
<stop offset="0.08" stop-color="#825C31"/>
<stop offset="0.17" stop-color="#8F6532"/>
<stop offset="0.26" stop-color="#A57434"/>
<stop offset="0.36" stop-color="#C38937"/>
<stop offset="0.46" stop-color="#EAA43A"/>
<stop offset="0.49" stop-color="#FBB03B"/>
<stop offset="0.54" stop-color="#E4A039"/>
<stop offset="0.63" stop-color="#C08736"/>
<stop offset="0.73" stop-color="#A37334"/>
<stop offset="0.82" stop-color="#8E6432"/>
<stop offset="0.91" stop-color="#825C31"/>
<stop offset="1" stop-color="#7E5931"/>
</linearGradient>
<linearGradient id="paint28_linear_2617_390" x1="-0.478611" y1="53.5157" x2="80.2677" y2="60.5472" gradientUnits="userSpaceOnUse">
<stop stop-color="#7E5931"/>
<stop offset="0.08" stop-color="#825C31"/>
<stop offset="0.17" stop-color="#8F6532"/>
<stop offset="0.26" stop-color="#A57434"/>
<stop offset="0.36" stop-color="#C38937"/>
<stop offset="0.46" stop-color="#EAA43A"/>
<stop offset="0.49" stop-color="#FBB03B"/>
<stop offset="0.54" stop-color="#E4A039"/>
<stop offset="0.63" stop-color="#C08736"/>
<stop offset="0.73" stop-color="#A37334"/>
<stop offset="0.82" stop-color="#8E6432"/>
<stop offset="0.91" stop-color="#825C31"/>
<stop offset="1" stop-color="#7E5931"/>
</linearGradient>
<linearGradient id="paint29_linear_2617_390" x1="-0.436377" y1="53.0269" x2="80.3098" y2="60.0578" gradientUnits="userSpaceOnUse">
<stop stop-color="#7E5931"/>
<stop offset="0.08" stop-color="#825C31"/>
<stop offset="0.17" stop-color="#8F6532"/>
<stop offset="0.26" stop-color="#A57434"/>
<stop offset="0.36" stop-color="#C38937"/>
<stop offset="0.46" stop-color="#EAA43A"/>
<stop offset="0.49" stop-color="#FBB03B"/>
<stop offset="0.54" stop-color="#E4A039"/>
<stop offset="0.63" stop-color="#C08736"/>
<stop offset="0.73" stop-color="#A37334"/>
<stop offset="0.82" stop-color="#8E6432"/>
<stop offset="0.91" stop-color="#825C31"/>
<stop offset="1" stop-color="#7E5931"/>
</linearGradient>
<linearGradient id="paint30_linear_2617_390" x1="-0.389669" y1="52.4899" x2="80.3567" y2="59.5207" gradientUnits="userSpaceOnUse">
<stop stop-color="#7E5931"/>
<stop offset="0.08" stop-color="#825C31"/>
<stop offset="0.17" stop-color="#8F6532"/>
<stop offset="0.26" stop-color="#A57434"/>
<stop offset="0.36" stop-color="#C38937"/>
<stop offset="0.46" stop-color="#EAA43A"/>
<stop offset="0.49" stop-color="#FBB03B"/>
<stop offset="0.54" stop-color="#E4A039"/>
<stop offset="0.63" stop-color="#C08736"/>
<stop offset="0.73" stop-color="#A37334"/>
<stop offset="0.82" stop-color="#8E6432"/>
<stop offset="0.91" stop-color="#825C31"/>
<stop offset="1" stop-color="#7E5931"/>
</linearGradient>
<linearGradient id="paint31_linear_2617_390" x1="-0.361345" y1="52.1641" x2="80.3848" y2="59.1956" gradientUnits="userSpaceOnUse">
<stop stop-color="#7E5931"/>
<stop offset="0.08" stop-color="#825C31"/>
<stop offset="0.17" stop-color="#8F6532"/>
<stop offset="0.26" stop-color="#A57434"/>
<stop offset="0.36" stop-color="#C38937"/>
<stop offset="0.46" stop-color="#EAA43A"/>
<stop offset="0.49" stop-color="#FBB03B"/>
<stop offset="0.54" stop-color="#E4A039"/>
<stop offset="0.63" stop-color="#C08736"/>
<stop offset="0.73" stop-color="#A37334"/>
<stop offset="0.82" stop-color="#8E6432"/>
<stop offset="0.91" stop-color="#825C31"/>
<stop offset="1" stop-color="#7E5931"/>
</linearGradient>
<linearGradient id="paint32_linear_2617_390" x1="-0.333069" y1="51.8348" x2="80.4132" y2="58.8656" gradientUnits="userSpaceOnUse">
<stop stop-color="#7E5931"/>
<stop offset="0.08" stop-color="#825C31"/>
<stop offset="0.17" stop-color="#8F6532"/>
<stop offset="0.26" stop-color="#A57434"/>
<stop offset="0.36" stop-color="#C38937"/>
<stop offset="0.46" stop-color="#EAA43A"/>
<stop offset="0.49" stop-color="#FBB03B"/>
<stop offset="0.54" stop-color="#E4A039"/>
<stop offset="0.63" stop-color="#C08736"/>
<stop offset="0.73" stop-color="#A37334"/>
<stop offset="0.82" stop-color="#8E6432"/>
<stop offset="0.91" stop-color="#825C31"/>
<stop offset="1" stop-color="#7E5931"/>
</linearGradient>
<linearGradient id="paint33_linear_2617_390" x1="4.74649" y1="67.7034" x2="81.7193" y2="73.4163" gradientUnits="userSpaceOnUse">
<stop stop-color="#7E5931"/>
<stop offset="0.08" stop-color="#825C31"/>
<stop offset="0.17" stop-color="#8F6532"/>
<stop offset="0.26" stop-color="#A57434"/>
<stop offset="0.36" stop-color="#C38937"/>
<stop offset="0.46" stop-color="#EAA43A"/>
<stop offset="0.49" stop-color="#FBB03B"/>
<stop offset="0.54" stop-color="#E4A039"/>
<stop offset="0.63" stop-color="#C08736"/>
<stop offset="0.73" stop-color="#A37334"/>
<stop offset="0.82" stop-color="#8E6432"/>
<stop offset="0.91" stop-color="#825C31"/>
<stop offset="1" stop-color="#7E5931"/>
</linearGradient>
<linearGradient id="paint34_linear_2617_390" x1="4.767" y1="67.4278" x2="81.7398" y2="73.1408" gradientUnits="userSpaceOnUse">
<stop stop-color="#7E5931"/>
<stop offset="0.08" stop-color="#825C31"/>
<stop offset="0.17" stop-color="#8F6532"/>
<stop offset="0.26" stop-color="#A57434"/>
<stop offset="0.36" stop-color="#C38937"/>
<stop offset="0.46" stop-color="#EAA43A"/>
<stop offset="0.49" stop-color="#FBB03B"/>
<stop offset="0.54" stop-color="#E4A039"/>
<stop offset="0.63" stop-color="#C08736"/>
<stop offset="0.73" stop-color="#A37334"/>
<stop offset="0.82" stop-color="#8E6432"/>
<stop offset="0.91" stop-color="#825C31"/>
<stop offset="1" stop-color="#7E5931"/>
</linearGradient>
<linearGradient id="paint35_linear_2617_390" x1="4.76155" y1="67.5027" x2="81.7344" y2="73.2156" gradientUnits="userSpaceOnUse">
<stop stop-color="#7E5931"/>
<stop offset="0.08" stop-color="#825C31"/>
<stop offset="0.17" stop-color="#8F6532"/>
<stop offset="0.26" stop-color="#A57434"/>
<stop offset="0.36" stop-color="#C38937"/>
<stop offset="0.46" stop-color="#EAA43A"/>
<stop offset="0.49" stop-color="#FBB03B"/>
<stop offset="0.54" stop-color="#E4A039"/>
<stop offset="0.63" stop-color="#C08736"/>
<stop offset="0.73" stop-color="#A37334"/>
<stop offset="0.82" stop-color="#8E6432"/>
<stop offset="0.91" stop-color="#825C31"/>
<stop offset="1" stop-color="#7E5931"/>
</linearGradient>
<linearGradient id="paint36_linear_2617_390" x1="4.77373" y1="67.3391" x2="81.7465" y2="73.0521" gradientUnits="userSpaceOnUse">
<stop stop-color="#7E5931"/>
<stop offset="0.08" stop-color="#825C31"/>
<stop offset="0.17" stop-color="#8F6532"/>
<stop offset="0.26" stop-color="#A57434"/>
<stop offset="0.36" stop-color="#C38937"/>
<stop offset="0.46" stop-color="#EAA43A"/>
<stop offset="0.49" stop-color="#FBB03B"/>
<stop offset="0.54" stop-color="#E4A039"/>
<stop offset="0.63" stop-color="#C08736"/>
<stop offset="0.73" stop-color="#A37334"/>
<stop offset="0.82" stop-color="#8E6432"/>
<stop offset="0.91" stop-color="#825C31"/>
<stop offset="1" stop-color="#7E5931"/>
</linearGradient>
<linearGradient id="paint37_linear_2617_390" x1="4.7879" y1="67.1467" x2="81.7606" y2="72.8596" gradientUnits="userSpaceOnUse">
<stop stop-color="#7E5931"/>
<stop offset="0.08" stop-color="#825C31"/>
<stop offset="0.17" stop-color="#8F6532"/>
<stop offset="0.26" stop-color="#A57434"/>
<stop offset="0.36" stop-color="#C38937"/>
<stop offset="0.46" stop-color="#EAA43A"/>
<stop offset="0.49" stop-color="#FBB03B"/>
<stop offset="0.54" stop-color="#E4A039"/>
<stop offset="0.63" stop-color="#C08736"/>
<stop offset="0.73" stop-color="#A37334"/>
<stop offset="0.82" stop-color="#8E6432"/>
<stop offset="0.91" stop-color="#825C31"/>
<stop offset="1" stop-color="#7E5931"/>
</linearGradient>
<linearGradient id="paint38_linear_2617_390" x1="4.80001" y1="66.9834" x2="81.7735" y2="72.6963" gradientUnits="userSpaceOnUse">
<stop stop-color="#7E5931"/>
<stop offset="0.08" stop-color="#825C31"/>
<stop offset="0.17" stop-color="#8F6532"/>
<stop offset="0.26" stop-color="#A57434"/>
<stop offset="0.36" stop-color="#C38937"/>
<stop offset="0.46" stop-color="#EAA43A"/>
<stop offset="0.49" stop-color="#FBB03B"/>
<stop offset="0.54" stop-color="#E4A039"/>
<stop offset="0.63" stop-color="#C08736"/>
<stop offset="0.73" stop-color="#A37334"/>
<stop offset="0.82" stop-color="#8E6432"/>
<stop offset="0.91" stop-color="#825C31"/>
<stop offset="1" stop-color="#7E5931"/>
</linearGradient>
<linearGradient id="paint39_linear_2617_390" x1="4.78203" y1="67.2214" x2="81.7555" y2="72.9343" gradientUnits="userSpaceOnUse">
<stop stop-color="#7E5931"/>
<stop offset="0.08" stop-color="#825C31"/>
<stop offset="0.17" stop-color="#8F6532"/>
<stop offset="0.26" stop-color="#A57434"/>
<stop offset="0.36" stop-color="#C38937"/>
<stop offset="0.46" stop-color="#EAA43A"/>
<stop offset="0.49" stop-color="#FBB03B"/>
<stop offset="0.54" stop-color="#E4A039"/>
<stop offset="0.63" stop-color="#C08736"/>
<stop offset="0.73" stop-color="#A37334"/>
<stop offset="0.82" stop-color="#8E6432"/>
<stop offset="0.91" stop-color="#825C31"/>
<stop offset="1" stop-color="#7E5931"/>
</linearGradient>
<linearGradient id="paint40_linear_2617_390" x1="4.82678" y1="66.6183" x2="81.8003" y2="72.3313" gradientUnits="userSpaceOnUse">
<stop stop-color="#7E5931"/>
<stop offset="0.08" stop-color="#825C31"/>
<stop offset="0.17" stop-color="#8F6532"/>
<stop offset="0.26" stop-color="#A57434"/>
<stop offset="0.36" stop-color="#C38937"/>
<stop offset="0.46" stop-color="#EAA43A"/>
<stop offset="0.49" stop-color="#FBB03B"/>
<stop offset="0.54" stop-color="#E4A039"/>
<stop offset="0.63" stop-color="#C08736"/>
<stop offset="0.73" stop-color="#A37334"/>
<stop offset="0.82" stop-color="#8E6432"/>
<stop offset="0.91" stop-color="#825C31"/>
<stop offset="1" stop-color="#7E5931"/>
</linearGradient>
<linearGradient id="paint41_linear_2617_390" x1="4.85407" y1="66.2602" x2="81.8268" y2="71.9731" gradientUnits="userSpaceOnUse">
<stop stop-color="#7E5931"/>
<stop offset="0.08" stop-color="#825C31"/>
<stop offset="0.17" stop-color="#8F6532"/>
<stop offset="0.26" stop-color="#A57434"/>
<stop offset="0.36" stop-color="#C38937"/>
<stop offset="0.46" stop-color="#EAA43A"/>
<stop offset="0.49" stop-color="#FBB03B"/>
<stop offset="0.54" stop-color="#E4A039"/>
<stop offset="0.63" stop-color="#C08736"/>
<stop offset="0.73" stop-color="#A37334"/>
<stop offset="0.82" stop-color="#8E6432"/>
<stop offset="0.91" stop-color="#825C31"/>
<stop offset="1" stop-color="#7E5931"/>
</linearGradient>
<linearGradient id="paint42_linear_2617_390" x1="4.84706" y1="66.3489" x2="81.8206" y2="72.0618" gradientUnits="userSpaceOnUse">
<stop stop-color="#7E5931"/>
<stop offset="0.08" stop-color="#825C31"/>
<stop offset="0.17" stop-color="#8F6532"/>
<stop offset="0.26" stop-color="#A57434"/>
<stop offset="0.36" stop-color="#C38937"/>
<stop offset="0.46" stop-color="#EAA43A"/>
<stop offset="0.49" stop-color="#FBB03B"/>
<stop offset="0.54" stop-color="#E4A039"/>
<stop offset="0.63" stop-color="#C08736"/>
<stop offset="0.73" stop-color="#A37334"/>
<stop offset="0.82" stop-color="#8E6432"/>
<stop offset="0.91" stop-color="#825C31"/>
<stop offset="1" stop-color="#7E5931"/>
</linearGradient>
<linearGradient id="paint43_linear_2617_390" x1="4.83316" y1="66.5347" x2="81.806" y2="72.2476" gradientUnits="userSpaceOnUse">
<stop stop-color="#7E5931"/>
<stop offset="0.08" stop-color="#825C31"/>
<stop offset="0.17" stop-color="#8F6532"/>
<stop offset="0.26" stop-color="#A57434"/>
<stop offset="0.36" stop-color="#C38937"/>
<stop offset="0.46" stop-color="#EAA43A"/>
<stop offset="0.49" stop-color="#FBB03B"/>
<stop offset="0.54" stop-color="#E4A039"/>
<stop offset="0.63" stop-color="#C08736"/>
<stop offset="0.73" stop-color="#A37334"/>
<stop offset="0.82" stop-color="#8E6432"/>
<stop offset="0.91" stop-color="#825C31"/>
<stop offset="1" stop-color="#7E5931"/>
</linearGradient>
<linearGradient id="paint44_linear_2617_390" x1="4.91014" y1="65.5009" x2="81.883" y2="71.2138" gradientUnits="userSpaceOnUse">
<stop stop-color="#7E5931"/>
<stop offset="0.08" stop-color="#825C31"/>
<stop offset="0.17" stop-color="#8F6532"/>
<stop offset="0.26" stop-color="#A57434"/>
<stop offset="0.36" stop-color="#C38937"/>
<stop offset="0.46" stop-color="#EAA43A"/>
<stop offset="0.49" stop-color="#FBB03B"/>
<stop offset="0.54" stop-color="#E4A039"/>
<stop offset="0.63" stop-color="#C08736"/>
<stop offset="0.73" stop-color="#A37334"/>
<stop offset="0.82" stop-color="#8E6432"/>
<stop offset="0.91" stop-color="#825C31"/>
<stop offset="1" stop-color="#7E5931"/>
</linearGradient>
<linearGradient id="paint45_linear_2617_390" x1="4.88539" y1="65.8395" x2="81.8581" y2="71.5524" gradientUnits="userSpaceOnUse">
<stop stop-color="#7E5931"/>
<stop offset="0.08" stop-color="#825C31"/>
<stop offset="0.17" stop-color="#8F6532"/>
<stop offset="0.26" stop-color="#A57434"/>
<stop offset="0.36" stop-color="#C38937"/>
<stop offset="0.46" stop-color="#EAA43A"/>
<stop offset="0.49" stop-color="#FBB03B"/>
<stop offset="0.54" stop-color="#E4A039"/>
<stop offset="0.63" stop-color="#C08736"/>
<stop offset="0.73" stop-color="#A37334"/>
<stop offset="0.82" stop-color="#8E6432"/>
<stop offset="0.91" stop-color="#825C31"/>
<stop offset="1" stop-color="#7E5931"/>
</linearGradient>
<linearGradient id="paint46_linear_2617_390" x1="4.87833" y1="65.9312" x2="81.8511" y2="71.6441" gradientUnits="userSpaceOnUse">
<stop stop-color="#7E5931"/>
<stop offset="0.08" stop-color="#825C31"/>
<stop offset="0.17" stop-color="#8F6532"/>
<stop offset="0.26" stop-color="#A57434"/>
<stop offset="0.36" stop-color="#C38937"/>
<stop offset="0.46" stop-color="#EAA43A"/>
<stop offset="0.49" stop-color="#FBB03B"/>
<stop offset="0.54" stop-color="#E4A039"/>
<stop offset="0.63" stop-color="#C08736"/>
<stop offset="0.73" stop-color="#A37334"/>
<stop offset="0.82" stop-color="#8E6432"/>
<stop offset="0.91" stop-color="#825C31"/>
<stop offset="1" stop-color="#7E5931"/>
</linearGradient>
<linearGradient id="paint47_linear_2617_390" x1="4.91797" y1="65.3947" x2="81.8908" y2="71.1077" gradientUnits="userSpaceOnUse">
<stop stop-color="#7E5931"/>
<stop offset="0.08" stop-color="#825C31"/>
<stop offset="0.17" stop-color="#8F6532"/>
<stop offset="0.26" stop-color="#A57434"/>
<stop offset="0.36" stop-color="#C38937"/>
<stop offset="0.46" stop-color="#EAA43A"/>
<stop offset="0.49" stop-color="#FBB03B"/>
<stop offset="0.54" stop-color="#E4A039"/>
<stop offset="0.63" stop-color="#C08736"/>
<stop offset="0.73" stop-color="#A37334"/>
<stop offset="0.82" stop-color="#8E6432"/>
<stop offset="0.91" stop-color="#825C31"/>
<stop offset="1" stop-color="#7E5931"/>
</linearGradient>
<linearGradient id="paint48_linear_2617_390" x1="4.93288" y1="65.1923" x2="81.9056" y2="70.9053" gradientUnits="userSpaceOnUse">
<stop stop-color="#7E5931"/>
<stop offset="0.08" stop-color="#825C31"/>
<stop offset="0.17" stop-color="#8F6532"/>
<stop offset="0.26" stop-color="#A57434"/>
<stop offset="0.36" stop-color="#C38937"/>
<stop offset="0.46" stop-color="#EAA43A"/>
<stop offset="0.49" stop-color="#FBB03B"/>
<stop offset="0.54" stop-color="#E4A039"/>
<stop offset="0.63" stop-color="#C08736"/>
<stop offset="0.73" stop-color="#A37334"/>
<stop offset="0.82" stop-color="#8E6432"/>
<stop offset="0.91" stop-color="#825C31"/>
<stop offset="1" stop-color="#7E5931"/>
</linearGradient>
<linearGradient id="paint49_linear_2617_390" x1="4.94488" y1="65.0291" x2="81.9178" y2="70.7421" gradientUnits="userSpaceOnUse">
<stop stop-color="#7E5931"/>
<stop offset="0.08" stop-color="#825C31"/>
<stop offset="0.17" stop-color="#8F6532"/>
<stop offset="0.26" stop-color="#A57434"/>
<stop offset="0.36" stop-color="#C38937"/>
<stop offset="0.46" stop-color="#EAA43A"/>
<stop offset="0.49" stop-color="#FBB03B"/>
<stop offset="0.54" stop-color="#E4A039"/>
<stop offset="0.63" stop-color="#C08736"/>
<stop offset="0.73" stop-color="#A37334"/>
<stop offset="0.82" stop-color="#8E6432"/>
<stop offset="0.91" stop-color="#825C31"/>
<stop offset="1" stop-color="#7E5931"/>
</linearGradient>
<linearGradient id="paint50_linear_2617_390" x1="4.96075" y1="64.8196" x2="81.9334" y2="70.5325" gradientUnits="userSpaceOnUse">
<stop stop-color="#7E5931"/>
<stop offset="0.08" stop-color="#825C31"/>
<stop offset="0.17" stop-color="#8F6532"/>
<stop offset="0.26" stop-color="#A57434"/>
<stop offset="0.36" stop-color="#C38937"/>
<stop offset="0.46" stop-color="#EAA43A"/>
<stop offset="0.49" stop-color="#FBB03B"/>
<stop offset="0.54" stop-color="#E4A039"/>
<stop offset="0.63" stop-color="#C08736"/>
<stop offset="0.73" stop-color="#A37334"/>
<stop offset="0.82" stop-color="#8E6432"/>
<stop offset="0.91" stop-color="#825C31"/>
<stop offset="1" stop-color="#7E5931"/>
</linearGradient>
<linearGradient id="paint51_linear_2617_390" x1="4.97937" y1="64.5733" x2="81.9521" y2="70.2863" gradientUnits="userSpaceOnUse">
<stop stop-color="#7E5931"/>
<stop offset="0.08" stop-color="#825C31"/>
<stop offset="0.17" stop-color="#8F6532"/>
<stop offset="0.26" stop-color="#A57434"/>
<stop offset="0.36" stop-color="#C38937"/>
<stop offset="0.46" stop-color="#EAA43A"/>
<stop offset="0.49" stop-color="#FBB03B"/>
<stop offset="0.54" stop-color="#E4A039"/>
<stop offset="0.63" stop-color="#C08736"/>
<stop offset="0.73" stop-color="#A37334"/>
<stop offset="0.82" stop-color="#8E6432"/>
<stop offset="0.91" stop-color="#825C31"/>
<stop offset="1" stop-color="#7E5931"/>
</linearGradient>
<linearGradient id="paint52_linear_2617_390" x1="4.99271" y1="64.3871" x2="81.9656" y2="70.0993" gradientUnits="userSpaceOnUse">
<stop stop-color="#7E5931"/>
<stop offset="0.08" stop-color="#825C31"/>
<stop offset="0.17" stop-color="#8F6532"/>
<stop offset="0.26" stop-color="#A57434"/>
<stop offset="0.36" stop-color="#C38937"/>
<stop offset="0.46" stop-color="#EAA43A"/>
<stop offset="0.49" stop-color="#FBB03B"/>
<stop offset="0.54" stop-color="#E4A039"/>
<stop offset="0.63" stop-color="#C08736"/>
<stop offset="0.73" stop-color="#A37334"/>
<stop offset="0.82" stop-color="#8E6432"/>
<stop offset="0.91" stop-color="#825C31"/>
<stop offset="1" stop-color="#7E5931"/>
</linearGradient>
<linearGradient id="paint53_linear_2617_390" x1="5.04137" y1="63.7368" x2="82.0139" y2="69.4497" gradientUnits="userSpaceOnUse">
<stop stop-color="#7E5931"/>
<stop offset="0.08" stop-color="#825C31"/>
<stop offset="0.17" stop-color="#8F6532"/>
<stop offset="0.26" stop-color="#A57434"/>
<stop offset="0.36" stop-color="#C38937"/>
<stop offset="0.46" stop-color="#EAA43A"/>
<stop offset="0.49" stop-color="#FBB03B"/>
<stop offset="0.54" stop-color="#E4A039"/>
<stop offset="0.63" stop-color="#C08736"/>
<stop offset="0.73" stop-color="#A37334"/>
<stop offset="0.82" stop-color="#8E6432"/>
<stop offset="0.91" stop-color="#825C31"/>
<stop offset="1" stop-color="#7E5931"/>
</linearGradient>
<linearGradient id="paint54_linear_2617_390" x1="5.02181" y1="63.9985" x2="81.9946" y2="69.7114" gradientUnits="userSpaceOnUse">
<stop stop-color="#7E5931"/>
<stop offset="0.08" stop-color="#825C31"/>
<stop offset="0.17" stop-color="#8F6532"/>
<stop offset="0.26" stop-color="#A57434"/>
<stop offset="0.36" stop-color="#C38937"/>
<stop offset="0.46" stop-color="#EAA43A"/>
<stop offset="0.49" stop-color="#FBB03B"/>
<stop offset="0.54" stop-color="#E4A039"/>
<stop offset="0.63" stop-color="#C08736"/>
<stop offset="0.73" stop-color="#A37334"/>
<stop offset="0.82" stop-color="#8E6432"/>
<stop offset="0.91" stop-color="#825C31"/>
<stop offset="1" stop-color="#7E5931"/>
</linearGradient>
<linearGradient id="paint55_linear_2617_390" x1="5.03432" y1="63.8223" x2="82.0074" y2="69.5352" gradientUnits="userSpaceOnUse">
<stop stop-color="#7E5931"/>
<stop offset="0.08" stop-color="#825C31"/>
<stop offset="0.17" stop-color="#8F6532"/>
<stop offset="0.26" stop-color="#A57434"/>
<stop offset="0.36" stop-color="#C38937"/>
<stop offset="0.46" stop-color="#EAA43A"/>
<stop offset="0.49" stop-color="#FBB03B"/>
<stop offset="0.54" stop-color="#E4A039"/>
<stop offset="0.63" stop-color="#C08736"/>
<stop offset="0.73" stop-color="#A37334"/>
<stop offset="0.82" stop-color="#8E6432"/>
<stop offset="0.91" stop-color="#825C31"/>
<stop offset="1" stop-color="#7E5931"/>
</linearGradient>
<linearGradient id="paint56_linear_2617_390" x1="5.07343" y1="63.3073" x2="82.046" y2="69.0202" gradientUnits="userSpaceOnUse">
<stop stop-color="#7E5931"/>
<stop offset="0.08" stop-color="#825C31"/>
<stop offset="0.17" stop-color="#8F6532"/>
<stop offset="0.26" stop-color="#A57434"/>
<stop offset="0.36" stop-color="#C38937"/>
<stop offset="0.46" stop-color="#EAA43A"/>
<stop offset="0.49" stop-color="#FBB03B"/>
<stop offset="0.54" stop-color="#E4A039"/>
<stop offset="0.63" stop-color="#C08736"/>
<stop offset="0.73" stop-color="#A37334"/>
<stop offset="0.82" stop-color="#8E6432"/>
<stop offset="0.91" stop-color="#825C31"/>
<stop offset="1" stop-color="#7E5931"/>
</linearGradient>
<linearGradient id="paint57_linear_2617_390" x1="5.08369" y1="63.1475" x2="82.0577" y2="68.8605" gradientUnits="userSpaceOnUse">
<stop stop-color="#7E5931"/>
<stop offset="0.08" stop-color="#825C31"/>
<stop offset="0.17" stop-color="#8F6532"/>
<stop offset="0.26" stop-color="#A57434"/>
<stop offset="0.36" stop-color="#C38937"/>
<stop offset="0.46" stop-color="#EAA43A"/>
<stop offset="0.49" stop-color="#FBB03B"/>
<stop offset="0.54" stop-color="#E4A039"/>
<stop offset="0.63" stop-color="#C08736"/>
<stop offset="0.73" stop-color="#A37334"/>
<stop offset="0.82" stop-color="#8E6432"/>
<stop offset="0.91" stop-color="#825C31"/>
<stop offset="1" stop-color="#7E5931"/>
</linearGradient>
<linearGradient id="paint58_linear_2617_390" x1="5.05959" y1="63.486" x2="82.0323" y2="69.1989" gradientUnits="userSpaceOnUse">
<stop stop-color="#7E5931"/>
<stop offset="0.08" stop-color="#825C31"/>
<stop offset="0.17" stop-color="#8F6532"/>
<stop offset="0.26" stop-color="#A57434"/>
<stop offset="0.36" stop-color="#C38937"/>
<stop offset="0.46" stop-color="#EAA43A"/>
<stop offset="0.49" stop-color="#FBB03B"/>
<stop offset="0.54" stop-color="#E4A039"/>
<stop offset="0.63" stop-color="#C08736"/>
<stop offset="0.73" stop-color="#A37334"/>
<stop offset="0.82" stop-color="#8E6432"/>
<stop offset="0.91" stop-color="#825C31"/>
<stop offset="1" stop-color="#7E5931"/>
</linearGradient>
<linearGradient id="paint59_linear_2617_390" x1="5.04881" y1="63.628" x2="82.0225" y2="69.3409" gradientUnits="userSpaceOnUse">
<stop stop-color="#7E5931"/>
<stop offset="0.08" stop-color="#825C31"/>
<stop offset="0.17" stop-color="#8F6532"/>
<stop offset="0.26" stop-color="#A57434"/>
<stop offset="0.36" stop-color="#C38937"/>
<stop offset="0.46" stop-color="#EAA43A"/>
<stop offset="0.49" stop-color="#FBB03B"/>
<stop offset="0.54" stop-color="#E4A039"/>
<stop offset="0.63" stop-color="#C08736"/>
<stop offset="0.73" stop-color="#A37334"/>
<stop offset="0.82" stop-color="#8E6432"/>
<stop offset="0.91" stop-color="#825C31"/>
<stop offset="1" stop-color="#7E5931"/>
</linearGradient>
<clipPath id="clip0_2617_390">
<rect width="80" height="70" fill="white"/>
</clipPath>
</defs>
</svg>
